<svg data-name="Layer 1" data-tags="amazon, achievement" viewBox="0 0 100 100" xmlns="http://www.w3.org/2000/svg"><path fill="#232f3e" d="M65.103 17.285l-1.182 2.338-.01.009-1.666 3.287-4.945 9.756-.098.206-2.984-.412-.009-.009-3.6-.501-7.347-1.022 9.81-19.744 11.655 5.903.376.189z"/><path fill="#435770" d="M66.123 16.272l-.296-.152-13.366-6.773-11.27 22.692 12.551 1.738 2.804.394.045.01.726.098h.009l.663.09.071-.135-1.37-3.377-.27.528-1.056-.143-10.025-1.398 8.34-16.797 9.577 4.838-4.82 9.523-.008.009-.717 1.406 3.18-.197.717-1.415h.009l3.404-6.728 1.666-3.297.251-.502-.815-.412z"/><path fill="#232f3e" d="M51.357 31.32l-13.454 4.133.545-22.038 13.473.435-.564 17.47z"/><path fill="#435770" d="M36.485 37.323L37.11 12l16.226.524-.642 19.818-16.209 4.981zm3.298-22.493l-.463 18.754 10.699-3.287.488-15.121-10.724-.346z"/><path fill="#232f3e" d="M46.75 31.945l-10.448 9.432-8.82-20.204 12.396-5.3 6.872 16.072z"/><path fill="#435770" d="M35.808 43.67L25.672 20.456 40.6 14.073l7.795 18.233L35.808 43.67zM29.29 21.89l7.506 17.193 8.307-7.5-5.947-13.91-9.866 4.218z"/><path fill="#232f3e" d="M42.837 34.459l-5.483 12.963-16.532-14.583 8.995-10.043 13.02 11.663z"/><path fill="#435770" d="M37.877 49.71L18.88 32.953 29.71 20.86l14.771 13.23-6.604 15.62zM22.765 32.725l14.07 12.41 4.358-10.31-11.27-10.093-7.158 7.993z"/><path fill="#232f3e" d="M40.355 38.39l.51 14.065-21.147-6.23 3.908-12.903 16.729 5.067z"/><path fill="#435770" d="M42.304 54.31l-24.299-7.16 4.707-15.537 18.977 5.748.615 16.949zM21.43 45.3l17.996 5.303-.407-11.186-14.478-4.385L21.43 45.3z"/><path fill="#232f3e" d="M39.765 43.001l6.407 12.533-21.797 3.291-1.912-13.346L39.765 43z"/><path fill="#435770" d="M23.213 60.387l-2.3-16.07 19.627-2.812 7.72 15.101-25.047 3.78zm.802-13.745l1.52 10.62 18.55-2.8-5.095-9.965-14.975 2.145z"/><path fill="#232f3e" d="M41.18 47.43l11.105 8.651-18.367 12.196-7.372-11.289 14.634-9.557z"/><path fill="#435770" d="M33.527 70.183L24.65 56.59l16.6-10.842L54.63 56.17 33.526 70.183zm-5.083-12.796l5.867 8.984 15.63-10.379-8.832-6.878-12.665 8.273z"/><path fill="#232f3e" d="M44.333 50.847l13.723 3.147-11.493 18.814-11.451-7.114 9.221-14.847z"/><path fill="#435770" d="M47.015 74.702l-13.793-8.567L43.685 49.29l16.532 3.793-13.202 21.618zm-10.016-9.45l9.115 5.664 9.778-16.012-10.91-2.503-7.983 12.851z"/><path fill="#232f3e" d="M48.637 52.61l13.765-2.946-2.464 21.908-13.385-1.609 2.084-17.353z"/><path fill="#435770" d="M61.148 73.098l-16.12-1.936 2.365-19.688 16.584-3.55-2.83 25.174zm-13.07-4.332l10.653 1.28 2.096-18.643-10.946 2.342-1.803 15.021z"/><path fill="#232f3e" d="M53.283 52.39l11.229-8.49 7.028 20.9L58.727 69l-5.444-16.61z"/><path fill="#435770" d="M57.85 70.728l-6.174-18.842L65.205 41.66l8.073 24.01-15.427 5.058zm-2.96-17.835l4.713 14.375 10.196-3.342-5.98-17.782-8.928 6.75z"/><path fill="#232f3e" d="M57.398 50.226l6.592-12.438 15.199 15.969-9.837 9.22-11.954-12.75z"/><path fill="#435770" d="M69.291 64.915L55.728 50.45l7.941-14.986 17.465 18.349-11.843 11.102zM59.068 50.003L69.414 61.04l7.83-7.338-12.935-13.59-5.24 9.891z"/><path fill="#232f3e" d="M60.215 46.527l.716-14.06 20.525 8.051-5.018 12.513-16.223-6.504z"/><path fill="#435770" d="M77.2 54.814l-18.404-7.38.862-16.938 23.585 9.25-6.044 15.068zM61.634 45.62l14.04 5.63 3.994-9.959-17.466-6.85-.568 11.179z"/><path fill="#232f3e" d="M60.891 28.626l-.717 1.415-1.299 2.563-.385.77-.43.86-1.37-3.377 1.02-2.034 3.181-.197zm-4.981.314l1.8-.117-1.02 2.034-.78-1.917z"/><path fill="#232f3e" d="M78.656 41.025l-17.451.958-3.145-7.749.43-.86.385-.77 1.3-2.563.716-1.415 17.021-1.066.744 13.465z"/><path fill="#435770" d="M79.211 26.109L61.617 27.21h-.01l-1.54.098-1.63.099-.01.009-2.006 3.968-1.057-.143 1.182 2.93.01.017 3.744 9.219 19.798-1.093-.887-16.206zM60.174 30.04l11.458-.716 4.99-.314.592 10.715-15.105.833-1.522-3.754-1.712-4.192v-.01l1.3-2.562z"/><path fill="#232f3e" d="M75.234 26.207l-13.205 11.44-6.11-3.547.663.09.009-.01.726.099h.009l.663.09.501-.995 6.531-12.891 1.666-3.297.251-.502-.815-.412.287-.26 8.824 10.195z"/><path fill="#435770" d="M66.544 14.077l-2.123 1.864 1.11.564-1.916 3.799 2.66-2.348 7.024 8.108-11.431 9.908-4.784-2.777-.502.994-4.246-.591 9.845 5.725L77.17 26.342 66.544 14.077z"/><path fill="#f19c38" fill-rule="evenodd" d="M51.918 30.09a3.596 3.596 0 00-5.323-.02L33.908 43.864c-2.152 2.34-.519 6.149 2.64 6.16l6.598.024-.035 10.077c-.007 2.023 1.61 3.67 3.61 3.677l4.831.017c2.001.007 3.629-1.627 3.636-3.651l.035-10.077 6.603.023c3.159.012 4.818-3.786 2.683-6.14L51.919 30.09z"/><path fill="#f19c38" fill-rule="evenodd" d="M33.147 45.083l1.342-3.331 2.642.761-.405 3.068-1.477 1.066-2.102-1.564zm32.013 2.819l1.33-3.318-1.943-.929-2.304 2.408.143 1.629 2.775.21zM54.97 61.415l1.329-3.317-1.943-.93-2.304 2.409.143 1.629 2.775.21z"/><path fill="#ffc400" fill-rule="evenodd" stroke-width="0" d="M53.175 26.967a3.596 3.596 0 00-5.323-.02L35.165 40.74c-2.152 2.34-.52 6.149 2.64 6.16l6.598.024L44.368 57c-.007 2.023 1.61 3.67 3.61 3.677l4.83.017c2.002.007 3.63-1.628 3.637-3.651l.035-10.077 6.602.023c3.16.012 4.819-3.786 2.683-6.14l-12.59-13.883z"/><path fill="#d54831" stroke-width="0" d="M90.06 78.603c-12.1 7.35-26.8 12.06-40.04 12.05-13.23.01-27.99-4.7-40.08-12.05l7.99-7.78-2.59-11.86c10.8 7.01 22.74 10.69 34.68 10.67 11.93.02 23.85-3.65 34.62-10.63l-2.57 11.82 7.99 7.78z"/><path fill="#fff" d="M45.702 76.823l-.241-.994h-3.68l-.268 2.882a4.999 4.999 0 012.358-.588c.953 0 1.791.195 2.514.582.724.39 1.283.928 1.679 1.619.397.689.594 1.44.594 2.253 0 .94-.213 1.77-.638 2.493-.426.723-1.032 1.274-1.818 1.653s-1.703.57-2.751.57c-1.418 0-2.571-.349-3.462-1.043-.89-.697-1.421-1.667-1.594-2.914l2.877-.352c.207 1.318.866 1.978 1.974 1.978.66 0 1.163-.187 1.51-.56s.517-.906.517-1.6c0-1.528-.652-2.294-1.956-2.294-.768 0-1.414.364-1.938 1.093l-2.376-1.183.473-6.92h8.513v3.325h-2.287zm15.541 3.441c0 2.295-.432 4.04-1.296 5.235-.863 1.196-2.108 1.794-3.733 1.794-1.632 0-2.878-.598-3.738-1.794-.861-1.195-1.291-2.94-1.291-5.235 0-2.24.427-3.968 1.281-5.185.855-1.217 2.104-1.825 3.748-1.825 1.661 0 2.914.595 3.76 1.784.846 1.19 1.269 2.932 1.269 5.226zm-6.673 0c0 1.579.134 2.747.402 3.505s.688 1.139 1.26 1.139.989-.38 1.25-1.139c.262-.758.393-1.926.393-3.505 0-3.107-.547-4.66-1.643-4.66-.572-.001-.992.387-1.26 1.164s-.402 1.943-.402 3.496z"/><path d="M17.93 70.823l-7.99 7.78m7.99-7.78l-2.59-11.86m74.72 19.64l-7.99-7.78m0 0l2.57-11.82.01-.04"/></svg>
