<svg data-tags="amazon, achievement" viewBox="0 0 100 100" xmlns="http://www.w3.org/2000/svg"><path fill="#f19c38" d="M93.583 58.049c-2.7 1.716-3.368 5.55-3.368 5.55s3.707 1.059 6.408-.657c2.701-1.716 3.368-5.55 3.368-5.55s-3.707-1.06-6.408.657zm.371-9.489c-2.171 2.352-1.843 6.228-1.843 6.228s3.856.053 6.037-2.298c2.172-2.352 1.833-6.218 1.833-6.218s-3.856-.053-6.037 2.299l.01-.01z"/><path fill="#ffc400" d="M30.326 76.977c.72 3.125-1.493 6.292-1.493 6.292s-3.39-1.896-4.11-5.02c-.72-3.125 1.494-6.282 1.494-6.282s3.389 1.896 4.11 5.01z"/><path fill="#f19c38" d="M22.573 81.71c3.093-.698 6.26 1.558 6.26 1.558s-1.854 3.389-4.947 4.099c-3.092.699-6.26-1.557-6.26-1.557s1.854-3.39 4.947-4.1z"/><path fill="#ffc400" d="M24.374 72.666c-.106 3.2-3.061 5.667-3.061 5.667s-2.797-2.712-2.69-5.91c.105-3.199 3.06-5.667 3.06-5.667s2.797 2.712 2.69 5.9v.01z"/><path fill="#f19c38" d="M15.657 75.209c3.177.138 5.656 3.135 5.656 3.135s-2.67 2.786-5.847 2.659c-3.177-.127-5.656-3.135-5.656-3.135s2.67-2.786 5.847-2.659z"/><path fill="#ffc400" d="M19.734 66.958c-.921 3.05-4.427 4.66-4.427 4.66s-2.002-3.336-1.09-6.397c.92-3.05 4.416-4.66 4.416-4.66s2.002 3.336 1.09 6.397h.011z"/><path fill="#f19c38" d="M10.636 67.139c3.04.953 4.671 4.49 4.671 4.49s-3.294 1.992-6.334 1.039c-3.04-.954-4.67-4.491-4.67-4.491s3.304-1.992 6.344-1.038h-.01z"/><path fill="#ffc400" d="M16.695 60.254c-1.674 2.701-5.476 3.347-5.476 3.347s-1.08-3.738.593-6.44c1.673-2.7 5.476-3.346 5.476-3.346s1.08 3.739-.593 6.44z"/><path fill="#f19c38" d="M7.85 58.05c2.702 1.717 3.369 5.55 3.369 5.55s-3.707 1.06-6.408-.656c-2.701-1.716-3.368-5.55-3.368-5.55s3.707-1.06 6.408.657z"/><path fill="#ffc400" d="M15.487 52.987c-2.32 2.172-6.164 1.79-6.164 1.79s-.095-3.887 2.224-6.058c2.32-2.171 6.164-1.79 6.164-1.79s.085 3.887-2.224 6.058z"/><path fill="#f19c38" d="M7.48 48.56c2.171 2.352 1.843 6.228 1.843 6.228s-3.855.053-6.037-2.298c-2.172-2.351-1.833-6.228-1.833-6.228s3.856-.053 6.038 2.298H7.48z"/><path fill="#ffc400" d="M13.92 43.126c-.88 3.072-4.353 4.734-4.353 4.734s-2.055-3.315-1.176-6.376c.879-3.06 4.353-4.724 4.353-4.724s2.055 3.305 1.176 6.377v-.011zm58.622 33.851c-.72 3.125 1.494 6.292 1.494 6.292s3.389-1.896 4.11-5.02c.72-3.125-1.494-6.282-1.494-6.282s-3.39 1.896-4.11 5.01z"/><path fill="#f19c38" d="M80.295 81.71c-3.092-.698-6.26 1.558-6.26 1.558s1.854 3.389 4.947 4.099c3.093.699 6.26-1.557 6.26-1.557s-1.854-3.39-4.947-4.1z"/><path fill="#ffc400" d="M78.495 72.666c.106 3.2 3.06 5.667 3.06 5.667s2.797-2.712 2.691-5.91c-.106-3.199-3.061-5.667-3.061-5.667s-2.796 2.712-2.69 5.9v.01z"/><path fill="#f19c38" d="M87.212 75.209c-3.178.138-5.656 3.135-5.656 3.135s2.669 2.786 5.846 2.659c3.178-.127 5.656-3.135 5.656-3.135s-2.669-2.786-5.846-2.659z"/><path fill="#ffc400" d="M83.134 66.958c.921 3.05 4.427 4.66 4.427 4.66s2.002-3.336 1.091-6.397c-.921-3.05-4.417-4.66-4.417-4.66s-2.001 3.336-1.09 6.397h-.011z"/><path fill="#f19c38" d="M92.232 67.139c-3.04.953-4.67 4.49-4.67 4.49s3.293 1.992 6.333 1.039c3.04-.954 4.67-4.491 4.67-4.491s-3.304-1.992-6.344-1.038h.011z"/><path fill="#ffc400" d="M86.174 60.252c1.673 2.701 5.475 3.347 5.475 3.347s1.08-3.739-.593-6.44c-1.673-2.7-5.476-3.346-5.476-3.346s-1.08 3.738.594 6.44zm1.207-7.265c2.32 2.172 6.164 1.79 6.164 1.79s.096-3.887-2.224-6.058c-2.32-2.171-6.164-1.79-6.164-1.79s-.085 3.887 2.224 6.058zm1.568-9.861c.879 3.072 4.353 4.734 4.353 4.734s2.055-3.315 1.175-6.376-4.353-4.724-4.353-4.724-2.054 3.305-1.175 6.377v-.011z"/><path fill="#252f3d" stroke-width="0" d="M23.733 63.387l-.086-.408c-.018-.096-2.163-10.074-4.143-20.078-4.15-20.93-3.682-21.503-3.04-22.302l.47-.582.799-.034c6.244 0 11.324-5.08 11.324-11.325V7.104h42.336v1.563c0 6.244 5.072 11.324 11.307 11.324h.747l.538.617c.643.79 1.146 1.415-2.91 22.319a1364.733 1364.733 0 01-4.055 20.052l-.086.417-26.6 29.5-26.6-29.5v-.01z"/><path fill="#47566e" stroke-width="0" d="M75.492 62.65L50.333 90.551 25.166 62.65s-8.805-41.102-7.433-41.102c7.12 0 12.878-5.767 12.878-12.88h39.21c0 7.113 5.766 12.88 12.87 12.88 1.46 0-7.216 41.102-7.216 41.102h.017z"/><path fill="#f19c38" d="M27.615 61.396c-2.796-13.087-6.443-31.28-7.225-37.43 6.444-1.11 11.541-6.209 12.662-12.652h34.364c1.111 6.46 6.226 11.567 12.687 12.661-.72 6.114-4.298 24.334-7.051 37.43l-22.71 25.193-22.718-25.193-.009-.009z"/><path fill="#ffc400" d="M78.132 25.351c-.947 6.574-3.83 21.485-6.713 35.224L50.333 83.962l-18.55-20.574-2.535-2.822c-2.935-13.747-5.88-28.623-6.878-35.232A17.378 17.378 0 0034.476 13.08H66c1.572 5.94 6.226 10.647 12.14 12.271h-.008z"/><path fill="#fff" stroke-width="0" d="M78.129 25.356c-.94 6.57-3.83 21.48-6.71 35.22l-21.09 23.39-18.55-20.58 10.65-16.1 17.46-26.38 5.18-7.83h.92c1.57 5.94 6.23 10.65 12.14 12.28z" opacity=".6"/><path fill="#232f3e" fill-rule="evenodd" stroke-width="0" d="M59.889 20.906l-17.46 26.38c-.18-.08-.35-.19-.44-.66-.03-.12 0-.22.05-.31-.41.3-.83.63-1.23.97-3.13 2.68-3.01 4.14-5 5.16-1.98 1.02-3.87 0-4.2-1.23-.26-.9-.14-2.3-.02-3.2 0-.39.99-.71 2.2-.71s2.19.32 2.19.71c0 .04-.01.07-.02.11l.14 1.21s1.78-2.13 3.92-3.64c.74-.52 1.35-.85 1.85-1.07-.09-.17-.12-.34-.01-.48.32-.46.4-1.48-.72-1.57-1.57-.14-2.67-.84-1.97-1.71 1.11-1.37 2.62-3.4 2.62-3.85 0-.46-.13-2.03-.13-2.03s-4.91.13-5.3-.4c-.39-.52-.46-1.11.98-1.89 1.44-.79 4.58-2.68 4.58-2.68s3.08-8.38 11.45-8.05l.53.03-1.37-.97 1.5-1.95 2.93 3.19 2.93-1.36z"/><path fill="#47566e" fill-rule="evenodd" d="M68.849 57.206c-1.27 3.2-10.86.96-24.29 6.39 1.28-3.83 2.86-5.32 2.86-5.32l2.09-4.19-1.11-3.27s-2.49.78-4.12.52c-1.64-.26-1.05-2.29-1.31-3.4-.12-.51-.33-.56-.54-.65l17.46-26.38.93-.43.89 2.29-2.14.44c4.57 1.92 7.01 6.05 6.16 12.69 0 0 2.55 3.34 3.14 5.3.26.85.07 1.77-1.37 1.7-1.44-.06-3.79-.59-3.79-.59l-1.84 3.67.4 1.96s2.48-.72 3 .78c.53 1.51 1.25 4.71 1.25 4.71s3.13 1.79 2.33 3.78z"/></svg>
