<svg data-tags="amazon, achievement" viewBox="0 0 100 100" xmlns="http://www.w3.org/2000/svg"><defs><linearGradient id="a" x1="8.969" x2="13.745" y1="-4448.924" y2="-4448.924" gradientTransform="matrix(1 0 0 -1 0 -4383.386)" gradientUnits="userSpaceOnUse"><stop offset="0" stop-color="#90291a"/><stop offset="1" stop-color="#90291a"/></linearGradient><linearGradient id="b" x1="86.053" x2="94.019" y1="-4449.202" y2="-4449.202"/></defs><path fill="#ffc400" d="M49.876 50.658l39.672-12.891-27.413-3.983-12.259 16.874z"/><path fill="#f19c38" d="M69.712 57.102l19.836-19.335-39.672 12.89 19.836 6.445z"/><path fill="#f19c38" d="M62.135 33.784L49.876 8.944v41.714l12.26-16.874zm-12.259 37.73l24.518 12.89-24.518-33.746v20.856z"/><path fill="#ffc400" d="M49.876 50.658l24.518 33.747-4.682-27.303-19.836-6.444z"/><path fill="#f19c38" d="M49.876 50.658L25.358 84.405l24.518-12.891V50.658zm0 0L10.204 37.767 30.04 57.102l19.836-6.444z"/><path fill="#ffc400" d="M37.617 33.784l-27.413 3.983 39.672 12.89-12.26-16.873zM30.04 57.102l-4.682 27.303 24.518-33.747-19.836 6.444z"/><path fill="#ffc400" d="M49.876 50.658V8.944l-12.26 24.84 12.26 16.874z"/><path fill="#ffc400" d="M43.146 56.719a9.517 9.517 0 010-13.46 9.486 9.486 0 016.733-2.787v-4.18a13.658 13.658 0 00-9.688 4.011c-5.35 5.35-5.35 14.022 0 19.37a13.65 13.65 0 009.688 4.017v-4.18a9.49 9.49 0 01-6.733-2.791z"/><path fill="#f19c38" d="M49.879 36.292v4.18c2.434 0 4.87.928 6.727 2.787a9.517 9.517 0 010 13.46 9.485 9.485 0 01-6.727 2.79v4.181c3.503 0 7.01-1.34 9.683-4.016 5.35-5.35 5.35-14.022 0-19.37a13.657 13.657 0 00-9.683-4.012z"/><path fill="#e7e7e7" stroke-width="0" d="M58.689 41.176a12.415 12.415 0 00-8.81-3.65 12.42 12.42 0 00-8.815 3.65c-4.867 4.867-4.867 12.758 0 17.624a12.426 12.426 0 008.816 3.655 12.42 12.42 0 008.809-3.655c4.867-4.866 4.867-12.757 0-17.624z"/><path fill="#232f3e" stroke-width="0" d="M57.777 48.2l-5.509-.8-2.464-4.992L47.34 47.4l-5.509.8 3.987 3.886-.941 5.487 4.927-2.59 4.928 2.59-.941-5.487 3.986-3.886z"/><path fill="#90291a" d="M84.618 81.549l-10.024-12.26V56.13l6.528 12.64 3.496 12.778zm-69.438 0l10.024-12.26V56.13l-6.527 12.64-3.497 12.78z"/><path fill="#c13e28" d="M.642 60.696a146.916 146.916 0 0113.103-2.094v13.187c-4.2.525-8.38 1.25-12.526 2.176-.765.17-1.354-.67-.934-1.33l3.874-6.11L.17 62.15a.88.88 0 01.472-1.455z"/><path fill="url(#a)" stroke-width="0" d="M13.745 58.602c-1.48.169-2.959.362-4.435.575l-.341 13.297a132.87 132.87 0 014.776-.685V58.602z" opacity=".5"/><path fill="#d54831" d="M85.944 86.25c-1.165-6.085-3.657-11.394-4.822-17.479-9.72 6.236-20.471 9.51-31.223 9.497-10.751.013-21.503-3.26-31.222-9.497-1.166 6.085-3.703 11.394-4.868 17.479 10.892 6.543 24.177 10.738 36.09 10.725 11.914.013 25.153-4.182 36.045-10.725z"/><path fill="#90291a" d="M8.365 68.057s2.075 3.094 5.38 3.732v-6.036l-5.38 2.304z"/><path fill="#d54831" d="M25.204 69.288c-8.802-4.48-16.839-1.23-16.839-1.23V54.9s8.037-3.25 16.84 1.23v13.158z"/><path fill="#c13e28" d="M99.157 60.696a146.91 146.91 0 00-13.104-2.094v13.187c4.2.525 8.38 1.25 12.527 2.176.764.17 1.353-.67.934-1.33l-3.874-6.11 3.988-4.374a.88.88 0 00-.471-1.455z"/><path fill="url(#b)" stroke-width="0" d="M93.073 59.575c-2.333-.38-4.674-.706-7.02-.973v13.187c2.665.333 5.32.748 7.966 1.242l-.946-13.456z" opacity=".5"/><path fill="#90291a" d="M91.433 68.057s-2.075 3.094-5.38 3.732v-6.036l5.38 2.304z"/><path fill="#d54831" d="M74.594 69.288c8.803-4.48 16.839-1.23 16.839-1.23V54.9s-8.036-3.25-16.839 1.23v13.158zM22.193 54.87c-7.542-2.51-13.828.03-13.828.03v6.485s3.837-1.55 9.112-1.032c2.53.25 4.716-1.762 4.716-4.304v-1.178z"/><path fill="#d54831" d="M86.975 53.9c-3.159-.351-7.659-.173-12.381 2.23v6.059a21.617 21.617 0 017.267-2.213 5.797 5.797 0 005.114-5.752v-.325z"/><path fill="#fff" stroke-width="0" d="M26.238 85.887l-.441 1.312a51.455 51.455 0 01-3.912-1.885l.514-1.277c.396.208.594.31.992.51.054-.598.083-.896.143-1.493a50.102 50.102 0 01-1.961-1.048c-.38.425-.571.636-.957 1.056.409.232.613.346 1.025.57l-.53 1.27a52.97 52.97 0 01-3.43-2.01l.592-1.232c.372.234.558.349.933.575a92.012 92.012 0 003.626-4.07 47.44 47.44 0 01-.938-.543l.566-1.248c1.797 1.064 2.712 1.549 4.563 2.424l-.47 1.3c-.39-.185-.584-.279-.971-.471-.165 2.322-.221 3.49-.282 5.838.374.172.562.256.938.422zm-2.573-4.104c.113-1.042.175-1.562.308-2.598-.63.77-.95 1.153-1.596 1.91.513.282.77.42 1.288.688zm3.15 5.852l.422-1.32c.453.189.68.281 1.136.46l1.571-5.21a45.69 45.69 0 01-1.05-.426c.168-.529.253-.793.422-1.32 1.577.658 2.374.954 3.98 1.48l-.339 1.35a44.686 44.686 0 01-1.087-.368l-1.416 5.268a49.43 49.43 0 002.383.78c.23-.996.346-1.493.578-2.488.609.185.914.273 1.526.44l-.81 3.87c-2.963-.808-4.431-1.31-7.316-2.516zm8.517 2.83l.263-1.374c.467.117.7.173 1.17.28l.945-5.403c-.433-.1-.65-.151-1.082-.26l.264-1.373c1.625.407 2.443.577 4.085.85l-.178 1.392a44.512 44.512 0 01-1.112-.198l-.787 5.437c.972.184 1.46.265 2.436.405l.283-2.552c.621.09.932.13 1.555.201l-.35 3.96c-3.016-.348-4.52-.621-7.492-1.365zm12.804 1.73l.05-2.836c.552.013.829.016 1.382.015.016.518.151.9.406 1.144.256.243.55.36.876.352a.865.865 0 00.639-.285.863.863 0 00.243-.636c-.008-.254-.1-.465-.272-.633s-.484-.354-.93-.567c-.941-.445-1.565-.863-1.89-1.224-.323-.36-.476-.844-.465-1.447.014-.728.235-1.284.654-1.679.418-.395.883-.593 1.406-.601.599-.01 1.067.231 1.415.734l-.022-.69c.509-.022.763-.036 1.271-.07.053 1.01.079 1.516.13 2.526-.527.036-.791.05-1.319.073-.054-.39-.19-.686-.404-.892a.998.998 0 00-.734-.3.833.833 0 00-.54.195.605.605 0 00-.218.486.76.76 0 00.187.487c.125.152.49.366 1.1.63.588.254 1.048.48 1.372.684.324.204.588.475.792.814.203.34.32.74.347 1.202.047.82-.155 1.458-.619 1.903a2.495 2.495 0 01-1.701.702c-.743.024-1.322-.241-1.72-.78v.708c-.574.001-.862-.002-1.436-.015zm8.591-.445l-.136-1.397a47.5 47.5 0 001.242-.172l-.625-5.464c-.459.069-.689.1-1.149.159l.187 1.926c-.54.069-.812.1-1.354.155l-.258-3.331c2.723-.276 4.082-.505 6.77-1.144l.597 3.274c-.529.126-.793.185-1.323.297l-.31-1.905c-.469.1-.704.146-1.174.235l.784 5.437c.495-.093.742-.143 1.235-.247l.224 1.383a48.55 48.55 0 01-4.71.794zm14.916-5.428l.422 1.32c-1.588.663-2.39.964-4.004 1.506l-.347-1.349c.412-.138.618-.21 1.03-.356a91.936 91.936 0 01-.748-1.233 48.17 48.17 0 01-2.052.673c-.039.605-.06.907-.105 1.512.433-.13.65-.197 1.081-.335l.333 1.354a49.104 49.104 0 01-3.665 1.045l-.264-1.373c.404-.102.606-.154 1.008-.263.191-2.316.262-3.473.356-5.78-.4.12-.599.178-1 .29l-.292-1.366c1.924-.538 2.879-.854 4.767-1.58l.393 1.332a44.88 44.88 0 01-.995.372 92.894 92.894 0 003.135 4.616c.38-.15.569-.228.947-.385zm-4.276-1.17c-.51-.872-.762-1.31-1.255-2.191-.027 1.052-.045 1.58-.092 2.634.54-.17.81-.258 1.347-.442zm13.257-3.492l.593 1.233c-.933.586-1.404.867-2.352 1.407a58.456 58.456 0 01-3.104-2.34c-.343.182-.515.27-.86.445l.795 2.046c.388-.197.582-.297.968-.502l.518 1.276a51.48 51.48 0 01-4.157 2.007l-.44-1.313c.433-.19.649-.287 1.08-.485l-1.805-5.11c-.399.183-.599.273-1 .449l-.44-1.313a45.926 45.926 0 004.259-2.087c.792-.432 1.448-.548 1.988-.33.54.218.938.586 1.185 1.118.387.836.257 1.702-.423 2.578.873.625 1.316.93 2.219 1.522.392-.236.587-.356.976-.6zm-6.194-.468c.263-.134.395-.202.657-.339.81-.424 1.086-.947.837-1.535-.124-.291-.306-.458-.546-.504-.24-.046-.515.016-.83.182-.323.17-.484.254-.809.418l.69 1.778z"/><path fill="#ffc400" d="M22.619 18.716l15.703-5.102-10.85-1.577-4.853 6.68z"/><path fill="#f19c38" d="M30.47 21.267l7.852-7.653-15.703 5.102 7.851 2.551z"/><path fill="#f19c38" d="M27.471 12.037L22.62 2.205v16.511l4.852-6.679zm-4.852 14.935l9.704 5.102-9.704-13.358v8.256z"/><path fill="#ffc400" d="M22.619 18.716l9.704 13.358-1.853-10.807-7.851-2.55z"/><path fill="#f19c38" d="M22.619 18.716l-9.705 13.358 9.705-5.102v-8.256z"/><path fill="#f19c38" d="M22.619 18.716L6.916 13.614l7.851 7.653 7.852-2.55z"/><path fill="#ffc400" d="M17.766 12.037l-10.85 1.577 15.703 5.102-4.853-6.679z"/><path fill="#ffc400" d="M14.767 21.267l-1.853 10.807 9.705-13.358-7.852 2.551z"/><path fill="#ffc400" d="M22.619 18.716V2.206l-4.853 9.831 4.853 6.68zm55.467 0l15.703-5.102-10.85-1.577-4.853 6.68z"/><path fill="#f19c38" d="M85.938 21.267l7.851-7.653-15.703 5.102 7.852 2.551zm-2.999-9.23l-4.853-9.832v16.511l4.853-6.679z"/><path fill="#f19c38" d="M78.086 26.972l9.705 5.102-9.705-13.358v8.256z"/><path fill="#ffc400" d="M78.086 18.716l9.705 13.358-1.853-10.807-7.852-2.55z"/><path fill="#f19c38" d="M78.086 18.716l-9.705 13.358 9.705-5.102v-8.256z"/><path fill="#f19c38" d="M78.086 18.716l-15.703-5.102 7.852 7.653 7.851-2.55z"/><path fill="#ffc400" d="M73.234 12.037l-10.85 1.577 15.702 5.102-4.852-6.679zm-2.999 9.23L68.38 32.074l9.705-13.358-7.851 2.551z"/><path fill="#ffc400" d="M78.086 18.716V2.206l-4.852 9.831 4.852 6.68z"/></svg>
