<svg xmlns="http://www.w3.org/2000/svg" data-name="Layer 1" data-tags="amazon, achievement" viewBox="0 0 100 100"><path fill="#232f3e" d="m65.469 18.313-1.266 2.504-.01.01-1.785 3.52-5.295 10.448-.106.22-3.195-.44-.01-.01-3.856-.538-7.867-1.093 10.505-21.145 12.482 6.322.403.202z"/><path fill="#435770" d="m66.561 17.229-.316-.164L51.93 9.813l-12.07 24.3 13.442 1.862 3.002.422.048.01.777.105h.01l.71.096.077-.144-1.468-3.617-.288.566-1.132-.153-10.736-1.497 8.932-17.988 10.256 5.18-5.161 10.199-.01.01-.767 1.505 3.405-.21.768-1.516h.01l3.645-7.205 1.785-3.53.268-.538-.873-.441Z"/><path fill="#232f3e" d="M50.748 33.344 36.34 37.77l.583-23.601 14.43.465-.605 18.71z"/><path fill="#435770" d="m34.821 39.773.67-27.12 17.377.562-.688 21.223-17.359 5.335Zm3.532-24.09-.495 20.085 11.457-3.52.523-16.194-11.485-.37Z"/><path fill="#232f3e" d="M45.814 34.012 34.626 44.114 25.18 22.477l13.275-5.676 7.36 17.211z"/><path fill="#435770" d="M34.097 46.57 23.242 21.708l15.986-6.836L47.576 34.4l-13.48 12.17Zm-6.981-23.325 8.039 18.412 8.895-8.031-6.368-14.898-10.566 4.517Z"/><path fill="#232f3e" d="m41.624 36.705-5.872 13.882L18.048 34.97l9.633-10.755 13.943 12.49z"/><path fill="#435770" d="M36.312 53.037 15.968 35.092l11.599-12.95L43.385 36.31l-7.073 16.726ZM20.128 34.848l15.068 13.29 4.667-11.04-12.068-10.81-7.667 8.56Z"/><path fill="#232f3e" d="m38.966 40.914.545 15.063-22.646-6.671 4.186-13.818 17.915 5.426z"/><path fill="#435770" d="M41.053 57.963 15.03 50.296l5.04-16.639 20.324 6.156.658 18.15Zm-22.355-9.648 19.273 5.679-.435-11.979L22.03 37.32l-3.333 10.996Z"/><path fill="#232f3e" d="m38.334 45.853 6.862 13.422L21.852 62.8l-2.047-14.293 18.529-2.653z"/><path fill="#435770" d="m20.608 64.472-2.464-17.21 21.02-3.01 8.268 16.17-26.824 4.05Zm.859-14.72 1.628 11.374 19.865-2.998-5.456-10.673-16.037 2.297Z"/><path fill="#232f3e" d="m39.85 50.596 11.892 9.265-19.67 13.06-7.895-12.09L39.85 50.597z"/><path fill="#435770" d="m31.654 74.963-9.508-14.558 17.779-11.61 14.327 11.16-22.598 15.008ZM26.21 61.259l6.283 9.62L49.23 59.766 39.774 52.4 26.21 61.259Z"/><path fill="#232f3e" d="m43.226 54.255 14.696 3.37-12.308 20.15-12.263-7.62 9.875-15.9z"/><path fill="#435770" d="m46.098 79.802-14.771-9.175 11.205-18.038 17.705 4.062-14.14 23.151Zm-10.726-10.12 9.762 6.065L55.604 58.6 43.92 55.92l-8.548 13.762Z"/><path fill="#232f3e" d="m47.835 56.143 14.742-3.155-2.639 23.462-14.335-1.723 2.232-18.584z"/><path fill="#435770" d="m61.233 78.084-17.262-2.073 2.532-21.084 17.76-3.801-3.03 26.958Zm-13.996-4.639 11.409 1.37L60.89 54.85l-11.723 2.51-1.93 16.085Z"/><path fill="#232f3e" d="m52.81 55.907 12.026-9.09 7.526 22.38-13.721 4.497-5.83-17.787z"/><path fill="#435770" d="M57.702 75.546 51.09 55.368l14.488-10.951 8.645 25.713-16.52 5.416Zm-3.17-19.1 5.047 15.395 10.92-3.58-6.406-19.043-9.56 7.229Z"/><path fill="#232f3e" d="m57.218 53.59 7.059-13.32 16.277 17.102-10.534 9.874L57.218 53.59z"/><path fill="#435770" d="M69.954 69.321 55.43 53.83l8.504-16.05 18.703 19.651-12.683 11.89Zm-10.948-15.97 11.08 11.82 8.385-7.858L64.619 42.76l-5.613 10.59Z"/><path fill="#232f3e" d="m60.234 49.629.767-15.057 21.98 8.622-5.373 13.4-17.374-6.965z"/><path fill="#435770" d="M78.423 58.504 58.715 50.6l.923-18.14 25.257 9.906-6.472 16.137Zm-16.668-9.848 15.035 6.03 4.278-10.665-18.704-7.337-.61 11.972Z"/><path fill="#232f3e" d="m60.958 30.459-.767 1.515-1.391 2.744-.413.825-.46.921-1.468-3.617 1.094-2.178 3.405-.21zm-5.334.335 1.929-.125-1.094 2.178-.835-2.053z"/><path fill="#232f3e" d="m79.983 43.736-18.689 1.027-3.367-8.299.46-.92.413-.826 1.39-2.744.768-1.515 18.229-1.142.796 14.42z"/><path fill="#435770" d="m80.578 27.763-18.842 1.18h-.01l-1.65.105-1.746.106-.01.01-2.149 4.25-1.132-.154 1.266 3.137.01.02 4.01 9.871 21.203-1.17-.95-17.355ZM60.19 31.974l12.27-.767 5.344-.336.633 11.474-16.175.892-1.63-4.02-1.833-4.49v-.009l1.39-2.744Z"/><path fill="#232f3e" d="M76.318 27.868 62.177 40.119l-6.543-3.799.71.096.01-.01.776.106h.01l.71.096.537-1.065 6.994-13.805 1.785-3.53.268-.538-.873-.441.307-.279 9.45 10.918z"/><path fill="#435770" d="m67.012 14.878-2.274 1.996 1.19.604-2.053 4.068 2.85-2.514 7.52 8.683-12.24 10.61-5.124-2.974-.537 1.065-4.548-.633 10.544 6.13 16.05-13.9-11.378-13.135Z"/><path fill="#f19c38" d="M52.264 29.338a3.958 3.958 0 0 0-5.86-.02L32.44 44.498c-2.368 2.575-.571 6.768 2.906 6.78l7.263.027-.039 11.092c-.008 2.228 1.772 4.04 3.974 4.047l5.318.02c2.202.007 3.994-1.792 4.002-4.02l.039-11.092 7.268.026c3.477.013 5.303-4.168 2.953-6.76l-13.86-15.28Z"/><path fill="#f19c38" d="m31.602 45.842 1.477-3.667 2.908.838-.446 3.377-1.626 1.173-2.313-1.721zm35.238 3.103 1.463-3.652-2.138-1.023-2.536 2.65.158 1.794 3.054.23zM55.623 63.82l1.463-3.652-2.14-1.023-2.535 2.65.158 1.794 3.054.23z"/><path fill="#ffc400" fill-rule="evenodd" d="M53.647 25.9a3.958 3.958 0 0 0-5.86-.02L33.824 41.06c-2.369 2.575-.572 6.769 2.905 6.781l7.263.026-.038 11.092c-.008 2.228 1.771 4.04 3.974 4.048l5.317.019c2.203.007 3.995-1.792 4.002-4.02l.039-11.092 7.268.026c3.477.013 5.303-4.168 2.953-6.76L53.647 25.9Z"/><path fill="#ffc400" d="M17.352 54.333c-1.633 3.018-5.683 3.953-5.683 3.953s-1.41-3.955.222-6.976c1.629-3.016 5.68-3.95 5.68-3.95s1.409 3.954-.219 6.973Z"/><path fill="#f19c38" d="M7.684 52.532c3.016 1.67 3.985 5.754 3.985 5.754s-3.92 1.378-6.938-.29C1.715 56.326.748 52.242.748 52.242s3.92-1.38 6.936.29Z"/><path fill="#ffc400" d="M15.579 46.598c-2.358 2.482-6.519 2.33-6.519 2.33s-.348-4.179 2.008-6.664c2.353-2.482 6.52-2.328 6.52-2.328s.345 4.179-2.01 6.662Z"/><path fill="#f19c38" d="M6.68 42.344c2.493 2.394 2.38 6.583 2.38 6.583s-4.151.305-6.644-2.088C-.074 44.445.038 40.26.038 40.26s4.151-.308 6.642 2.085Z"/><path fill="#ffc400" d="M13.262 36.072c-.747 3.36-4.382 5.374-4.382 5.374s-2.423-3.433-1.678-6.792c.747-3.357 4.382-5.37 4.382-5.37s2.423 3.43 1.678 6.788Z"/><path fill="#90291a" d="M2.467 62.009a155.228 155.228 0 0 1 13.99-2.262v14.239c-4.484.567-8.947 1.35-13.374 2.35-.816.184-1.445-.723-.997-1.437l4.136-6.597-4.258-4.723c-.49-.544-.21-1.422.503-1.57Zm95.125 1.571-4.258 4.722 4.136 6.597c.448.714-.18 1.62-.997 1.437-4.427-1-8.89-1.783-13.373-2.35V59.747c4.686.54 9.354 1.293 13.99 2.262.712.148.993 1.026.502 1.57Z"/><path fill="#d54831" d="M88.238 78.606c-1.245-6.57-3.905-12.302-5.15-18.873-10.375 6.734-21.855 10.27-33.333 10.255-11.48.014-22.959-3.52-33.335-10.255-1.244 6.57-3.953 12.303-5.198 18.873 11.63 7.065 25.813 11.595 38.533 11.581 12.719.014 26.854-4.516 38.483-11.58Z"/><path fill="#fff" d="m42.806 31.588 4.264 2.331-4.264 2.333-2.333 4.264-2.333-4.264-4.263-2.333 4.263-2.331 2.333-4.264 2.333 4.264zm.658 44.912c0 .626-.141 1.156-.424 1.59a4.025 4.025 0 0 1-1.14 1.135c-.478.32-1.171.695-2.079 1.106-1.477.685-2.29 1.42-2.45 2.273 1.488.271 2.235.388 3.732.582v-1.592a62.13 62.13 0 0 0 2.51.283l-.149 3.683c-3.62-.353-5.426-.64-8.993-1.438 0-1.093.13-1.964.39-2.615a4.28 4.28 0 0 1 1.232-1.689c.564-.478 1.392-1.019 2.49-1.648.58-.329 1.02-.675 1.323-1.027.303-.352.457-.74.457-1.158 0-.414-.122-.744-.361-.99-.242-.248-.586-.405-1.033-.476-.581-.093-1.012.033-1.292.381-.28.35-.446.971-.502 1.865a62.929 62.929 0 0 1-2.55-.616c.033-1.51.42-2.556 1.163-3.148.744-.593 1.86-.747 3.352-.512 1.34.21 2.397.648 3.167 1.347.769.698 1.157 1.58 1.157 2.664Zm9.108.089-.225-.892c-1.363.03-2.045.03-3.408-.002l-.248 2.598a4.968 4.968 0 0 1 2.184-.504c.884-.003 1.659.155 2.328.482.67.33 1.187.791 1.554 1.393s.55 1.27.55 2.004c0 .849-.196 1.613-.59 2.287s-.955 1.2-1.682 1.567c-.728.366-1.579.554-2.548.552-1.314-.004-2.384-.354-3.206-1.02-.822-.665-1.315-1.578-1.473-2.715a62.369 62.369 0 0 0 2.661-.191c.192 1.197.801 1.814 1.827 1.819.612.003 1.077-.17 1.399-.512.319-.342.48-.827.48-1.453 0-1.382-.605-2.054-1.813-2.059-.711-.003-1.31.314-1.794.959-.88-.453-1.32-.686-2.199-1.164l.437-6.229c3.151.164 4.731.163 7.882-.008v3.003c-.846.046-1.27.063-2.116.085Zm14.293 1.346c0 2.073-.391 3.74-1.178 4.983-.788 1.244-1.923 2.007-3.415 2.243-1.499.238-2.646-.165-3.439-1.158-.793-.992-1.191-2.535-1.191-4.608 0-2.024.396-3.621 1.182-4.806.786-1.187 1.94-1.874 3.448-2.112 1.524-.241 2.669.07 3.439.984.772.915 1.154 2.4 1.154 4.474Zm-6.103 1.099c0 1.426.122 2.465.369 3.116.246.65.633.937 1.157.854.525-.083.907-.492 1.147-1.22.239-.725.36-1.804.36-3.23 0-2.808-.502-4.117-1.507-3.958-.524.084-.911.49-1.157 1.228-.247.737-.369 1.806-.369 3.21Z"/><path fill="#ffc400" d="M82.648 54.333c1.633 3.018 5.683 3.953 5.683 3.953s1.41-3.955-.222-6.976c-1.629-3.016-5.68-3.95-5.68-3.95s-1.409 3.954.219 6.973Z"/><path fill="#f19c38" d="M92.316 52.532c-3.016 1.67-3.985 5.754-3.985 5.754s3.92 1.378 6.938-.29c3.016-1.67 3.983-5.754 3.983-5.754s-3.92-1.38-6.936.29Z"/><path fill="#ffc400" d="M84.421 46.598c2.358 2.482 6.519 2.33 6.519 2.33s.348-4.179-2.008-6.664c-2.353-2.482-6.52-2.328-6.52-2.328s-.345 4.179 2.01 6.662Z"/><path fill="#f19c38" d="M93.32 42.344c-2.493 2.394-2.38 6.583-2.38 6.583s4.151.305 6.644-2.088c2.49-2.394 2.378-6.58 2.378-6.58s-4.151-.308-6.642 2.085Z"/><path fill="#ffc400" d="M86.738 36.072c.747 3.36 4.382 5.374 4.382 5.374s2.423-3.433 1.678-6.792c-.747-3.357-4.382-5.37-4.382-5.37s-2.423 3.43-1.678 6.788Z"/></svg>
