<svg data-name="Layer 1" data-tags="amazon, achievement" viewBox="0 0 100 100" xmlns="http://www.w3.org/2000/svg"><path fill="#d54831" stroke-width="0" d="M69.077 58.392v41.095L50 88.891 30.923 99.487V58.392c.04.03.08.05.121.081l.151.12c5.47 4.09 11.966 6.246 18.805 6.246 6.85 0 13.346-2.156 18.815-6.245l.151-.121a.47.47 0 00.111-.08z"/><path fill="#90291a" stroke-width="0" d="M69.077 58.392v12.4L62.5 72.946l-.464 4.17-14.262-1.712-2.186 3.575-12.197-7.574-2.468 1.632V58.392c.04.03.08.05.121.081l.151.12c5.47 4.09 11.966 6.246 18.805 6.246 6.85 0 13.346-2.156 18.815-6.245l.151-.121a.47.47 0 00.111-.08z"/><path fill="#232f3e" d="M66.162 9.373l-1.32 2.61-.01.01-1.86 3.67-5.52 10.89-.11.23-3.33-.46-.01-.01-4.02-.56-8.2-1.14 10.95-22.04 13.01 6.59.42.21z"/><path fill="#435770" d="M67.3 8.243l-.33-.17L52.05.513l-12.58 25.33 14.01 1.94 3.13.44.05.01.81.11h.01l.74.1.08-.15-1.53-3.77-.3.59-1.18-.16-11.19-1.56 9.31-18.75 10.69 5.4-5.38 10.63-.01.01-.8 1.57 3.55-.22.8-1.58h.01l3.8-7.51 1.86-3.68.28-.56-.91-.46z"/><path fill="#232f3e" d="M50.818 25.04L35.8 29.653l.608-24.6 15.04.485-.63 19.502z"/><path fill="#435770" d="M34.217 31.741l.698-28.267 18.113.585-.717 22.122-18.094 5.56zM37.9 6.632l-.517 20.935 11.942-3.669.546-16.88L37.9 6.632z"/><path fill="#232f3e" d="M45.675 25.737l-11.662 10.53-9.846-22.554 13.838-5.916 7.67 17.94z"/><path fill="#435770" d="M33.462 38.826L22.147 12.912l16.664-7.124 8.701 20.352-14.05 12.686zm-7.277-24.312l8.38 19.192 9.272-8.372-6.638-15.528-11.014 4.708z"/><path fill="#232f3e" d="M41.308 28.543l-6.12 14.47-18.455-16.278 10.041-11.21 14.534 13.018z"/><path fill="#435770" d="M35.771 45.567L14.566 26.863l12.09-13.5 16.487 14.77-7.372 17.434zM18.902 26.608L34.608 40.46l4.864-11.507-12.579-11.268-7.99 8.923z"/><path fill="#232f3e" d="M38.537 32.93l.568 15.702-23.604-6.954 4.362-14.403 18.674 5.656z"/><path fill="#435770" d="M40.712 50.702L13.59 42.71l5.254-17.343 21.183 6.416.686 18.919zm-23.3-10.057l20.088 5.92-.454-12.487-16.16-4.895-3.474 11.462z"/><path fill="#232f3e" d="M37.878 38.079l7.153 13.99-24.332 3.673-2.134-14.897 19.313-2.766z"/><path fill="#435770" d="M19.402 57.486l-2.568-17.939 21.91-3.138 8.618 16.856-27.96 4.22zm.895-15.343l1.698 11.855L42.7 50.873 37.014 39.75l-16.717 2.394z"/><path fill="#232f3e" d="M39.458 43.023l12.396 9.657-20.502 13.613-8.23-12.601 16.336-10.669z"/><path fill="#435770" d="M30.916 68.42l-9.91-15.173 18.53-12.102 14.935 11.634L30.916 68.42zM25.24 54.138l6.55 10.028L49.236 52.58l-9.858-7.677-14.138 9.234z"/><path fill="#232f3e" d="M42.978 46.836l15.318 3.513-12.829 21.002-12.783-7.941 10.294-16.574z"/><path fill="#435770" d="M45.971 73.465l-15.396-9.563L42.255 45.1l18.454 4.234L45.97 73.465zm-11.18-10.548l10.175 6.322L55.88 51.365l-12.179-2.793-8.91 14.345z"/><path fill="#232f3e" d="M47.782 48.805l15.365-3.289-2.75 24.456-14.941-1.796 2.326-19.371z"/><path fill="#435770" d="M61.747 71.675l-17.993-2.161 2.64-21.977 18.511-3.962-3.158 28.1zm-14.589-4.836l11.892 1.429 2.34-20.811-12.22 2.615-2.012 16.767z"/><path fill="#232f3e" d="M52.968 48.559l12.534-9.475 7.845 23.326-14.302 4.688-6.077-18.539z"/><path fill="#435770" d="M58.067 69.03l-6.893-21.034 15.102-11.414 9.011 26.802-17.22 5.645zm-3.304-19.91l5.26 16.047 11.381-3.73-6.675-19.85-9.966 7.534z"/><path fill="#232f3e" d="M57.562 46.144L64.92 32.26l16.966 17.825-10.98 10.293-13.344-14.234z"/><path fill="#435770" d="M70.837 62.54l-15.14-16.147 8.865-16.728 19.495 20.482-13.22 12.394zM59.426 45.896l11.548 12.32 8.74-8.191-14.438-15.17-5.85 11.04z"/><path fill="#232f3e" d="M60.706 42.014l.8-15.693 22.91 8.987-5.6 13.967-18.11-7.26z"/><path fill="#435770" d="M79.665 51.265l-20.543-8.237.963-18.908L86.41 34.445l-6.746 16.82zM62.291 41.001l15.672 6.284 4.459-11.116-19.497-7.647L62.291 41z"/><path fill="#232f3e" d="M61.46 22.033l-.8 1.58-1.45 2.86-.43.86-.48.96-1.53-3.77 1.14-2.27 3.55-.22zm-5.56.35l2.01-.13-1.14 2.27-.87-2.14z"/><path fill="#232f3e" d="M81.29 35.873l-19.48 1.07-3.51-8.65.48-.96.43-.86 1.45-2.86.8-1.58 19-1.19.83 15.03z"/><path fill="#435770" d="M81.91 19.223l-19.64 1.23h-.01l-1.72.11-1.82.11-.01.01-2.24 4.43-1.18-.16 1.32 3.27.01.02 4.18 10.29 22.1-1.22-.99-18.09zm-21.25 4.39l12.79-.8 5.57-.35.66 11.96-16.86.93-1.7-4.19-1.91-4.68v-.01l1.45-2.86z"/><path fill="#232f3e" d="M77.47 19.333l-14.74 12.77-6.82-3.96.74.1.01-.01.81.11h.01l.74.1.56-1.11 7.29-14.39 1.86-3.68.28-.56-.91-.46.32-.29 9.85 11.38z"/><path fill="#435770" d="M67.77 5.792l-2.37 2.08 1.24.63-2.14 4.24 2.97-2.62 7.84 9.05-12.76 11.06-5.34-3.1-.56 1.11-4.74-.66 10.99 6.39 16.73-14.49-11.86-13.69z"/><path fill="#f19c38" fill-rule="evenodd" d="M52.106 24.57a3.848 3.848 0 00-5.696-.02L32.834 39.307c-2.303 2.504-.556 6.58 2.825 6.592l7.06.026-.037 10.783c-.008 2.166 1.722 3.927 3.863 3.935l5.17.018c2.14.008 3.883-1.741 3.89-3.907l.038-10.783 7.065.025c3.381.012 5.156-4.052 2.871-6.572L52.106 24.57z"/><path fill="#f19c38" fill-rule="evenodd" d="M32.02 40.614l1.435-3.565 2.828.815-.434 3.283-1.58 1.14-2.25-1.673zm34.257 3.016l1.422-3.55-2.079-.994-2.465 2.577.153 1.743 2.97.224zM55.372 58.091l1.422-3.55-2.08-.994-2.464 2.577.153 1.743 2.969.224z"/><path fill="#ffc400" fill-rule="evenodd" stroke-width="0" d="M53.45 21.228a3.848 3.848 0 00-5.695-.02L34.178 35.965c-2.302 2.503-.555 6.58 2.825 6.592l7.061.025-.038 10.784c-.007 2.165 1.723 3.927 3.864 3.935l5.17.018c2.14.008 3.883-1.741 3.89-3.907l.038-10.783 7.065.025c3.38.012 5.156-4.052 2.871-6.572L53.451 21.228z"/></svg>
