<svg data-name="Layer 1" data-tags="amazon, achievement" viewBox="0 0 100 100" xmlns="http://www.w3.org/2000/svg"><path fill="#90291a" d="M37.177 93.562l-4.655-15.11-15.317 3.922 24.28-43.344 19.973 11.187-24.28 43.345z"/><path fill="#d54831" d="M36.47 100.21l-5.726-18.586-18.84 4.827 28.57-51.004 24.565 13.76L36.47 100.21zm-2.172-24.93l3.587 11.634 19.988-35.687-15.378-8.614L22.505 78.3l11.793-3.02z"/><path fill="#d54831" d="M62.823 93.562l4.656-15.11 15.316 3.922L58.516 39.03 38.543 50.217l24.28 43.345z"/><path fill="#90291a" d="M63.53 100.21L34.96 49.207l24.566-13.76 28.57 51.004-18.84-4.827-5.726 18.586zM42.127 51.227l19.99 35.687 3.585-11.635L77.496 78.3 57.505 42.613l-15.378 8.614z"/><path fill="#232f3e" d="M67.1 8.65l-1.32 2.61-.01.01-1.86 3.67-5.52 10.89-.11.23-3.33-.46-.01-.01-4.02-.56-8.2-1.14L53.67 1.85l13.01 6.59.42.21z"/><path fill="#435770" d="M68.238 7.52l-.33-.17-14.92-7.56-12.58 25.33 14.01 1.94 3.13.44.05.01.81.11h.01l.74.1.08-.15-1.53-3.77-.3.59-1.18-.16-11.19-1.56 9.31-18.75 10.69 5.4-5.38 10.63-.01.01-.8 1.57 3.55-.22.8-1.58h.01l3.8-7.51 1.86-3.68.28-.56-.91-.46z"/><path fill="#232f3e" d="M51.755 24.317l-15.018 4.614.609-24.6 15.04.485-.63 19.501z"/><path fill="#435770" d="M35.155 31.018l.697-28.267 18.113.585-.716 22.122-18.094 5.56zM38.836 5.91l-.516 20.934 11.942-3.669.545-16.879-11.97-.386z"/><path fill="#232f3e" d="M46.613 25.014L34.95 35.544 25.105 12.99l13.837-5.917 7.67 17.94z"/><path fill="#435770" d="M34.4 38.103L23.084 12.19l16.663-7.125 8.702 20.352L34.4 38.103zM27.122 13.79l8.38 19.192 9.272-8.372-6.639-15.528-11.013 4.708z"/><path fill="#232f3e" d="M42.245 27.82l-6.12 14.47L17.67 26.014l10.04-11.21L42.246 27.82z"/><path fill="#435770" d="M36.709 44.845L15.503 26.14l12.09-13.499L44.08 27.41l-7.372 17.435zm-16.87-18.96l15.706 13.853L40.41 28.23 27.83 16.963l-7.99 8.923z"/><path fill="#232f3e" d="M39.475 32.208l.568 15.701-23.604-6.954L20.8 26.552l18.674 5.656z"/><path fill="#435770" d="M41.65 49.98l-27.123-7.993 5.254-17.343 21.183 6.416.686 18.92zm-23.3-10.058l20.087 5.92-.453-12.486-16.161-4.895-3.474 11.461z"/><path fill="#232f3e" d="M38.816 37.356l7.152 13.99-24.331 3.674-2.134-14.898 19.313-2.766z"/><path fill="#435770" d="M20.34 56.763l-2.568-17.939 21.91-3.137L48.3 52.543l-27.96 4.22zm.895-15.343l1.697 11.856 20.706-3.126-5.686-11.124-16.717 2.394z"/><path fill="#232f3e" d="M40.396 42.3l12.395 9.657L32.29 65.57l-8.23-12.6L40.396 42.3z"/><path fill="#435770" d="M31.853 67.698l-9.91-15.173 18.531-12.103 14.934 11.634-23.555 15.642zm-5.675-14.284l6.55 10.029 17.446-11.585-9.857-7.678-14.139 9.234z"/><path fill="#232f3e" d="M43.916 46.114l15.317 3.513-12.828 21.002-12.783-7.942 10.294-16.573z"/><path fill="#435770" d="M46.909 72.743l-15.397-9.564 11.68-18.801 18.454 4.233L46.91 72.743zm-11.18-10.549l10.175 6.322 10.914-17.873-12.179-2.794-8.91 14.345z"/><path fill="#232f3e" d="M48.72 48.082l15.365-3.288-2.75 24.455-14.942-1.796 2.327-19.37z"/><path fill="#435770" d="M62.685 70.952l-17.993-2.161 2.639-21.976 18.512-3.963-3.158 28.1zm-14.59-4.836l11.893 1.43 2.339-20.812-12.219 2.616-2.012 16.766z"/><path fill="#232f3e" d="M53.906 47.836l12.534-9.475 7.845 23.327-14.303 4.688-6.076-18.54z"/><path fill="#435770" d="M59.005 68.307l-6.893-21.033 15.102-11.415 9.011 26.802-17.22 5.646zM55.7 48.398l5.26 16.046 11.382-3.73-6.676-19.85-9.966 7.534z"/><path fill="#232f3e" d="M58.5 45.421l7.357-13.883 16.966 17.824-10.98 10.293L58.5 45.421z"/><path fill="#435770" d="M71.775 61.818l-15.14-16.147L65.5 28.942l19.495 20.483-13.22 12.393zM60.363 45.172l11.549 12.32 8.74-8.19-14.438-15.17-5.85 11.04z"/><path fill="#232f3e" d="M61.644 41.292l.8-15.694 22.91 8.987-5.601 13.967-18.11-7.26z"/><path fill="#435770" d="M80.603 50.543L60.06 42.305l.962-18.907 26.326 10.325-6.745 16.82zM63.229 40.278L78.9 46.563l4.46-11.117L63.862 27.8l-.634 12.48z"/><path fill="#232f3e" d="M62.398 21.31l-.8 1.58-1.45 2.86-.43.86-.48.96-1.53-3.77 1.14-2.27 3.55-.22zm-5.56.35l2.01-.13-1.14 2.27-.87-2.14z"/><path fill="#232f3e" d="M82.228 35.15l-19.48 1.07-3.51-8.65.48-.96.43-.86 1.45-2.86.8-1.58 19-1.19.83 15.03z"/><path fill="#435770" d="M82.848 18.5l-19.64 1.23h-.01l-1.72.11-1.82.11-.01.01-2.24 4.43-1.18-.16 1.32 3.27.01.02 4.18 10.29 22.1-1.22-.99-18.09zm-21.25 4.39l12.79-.8 5.57-.35.66 11.96-16.86.93-1.7-4.19-1.91-4.68v-.01l1.45-2.86z"/><path fill="#232f3e" d="M78.408 18.61l-14.74 12.77-6.82-3.96.74.1.01-.01.81.11h.01l.74.1.56-1.11 7.29-14.39 1.86-3.68.28-.56-.91-.46.32-.29 9.85 11.38z"/><path fill="#435770" d="M68.708 5.07l-2.37 2.08 1.24.63-2.14 4.24 2.97-2.62 7.84 9.05-12.76 11.06-5.34-3.1-.56 1.11-4.74-.66 10.99 6.39 16.73-14.49-11.86-13.69z"/><path fill="#f19c38" fill-rule="evenodd" d="M53.044 23.847a3.848 3.848 0 00-5.696-.02L33.77 38.586c-2.302 2.503-.555 6.58 2.825 6.592l7.06.025-.037 10.783c-.007 2.166 1.722 3.927 3.864 3.935l5.17.019c2.14.007 3.882-1.742 3.89-3.908l.038-10.783 7.065.025c3.38.012 5.156-4.052 2.87-6.571l-13.47-14.856z"/><path fill="#f19c38" fill-rule="evenodd" d="M32.957 39.89l1.436-3.563 2.827.814-.434 3.283-1.58 1.14-2.25-1.673zm34.258 3.018l1.422-3.55-2.08-.995-2.464 2.577.153 1.743 2.969.225zM56.31 57.369l1.421-3.55-2.079-.995-2.465 2.577.153 1.743 2.97.225z"/><path fill="#ffc400" fill-rule="evenodd" stroke-width="0" d="M54.388 20.505a3.848 3.848 0 00-5.695-.02L35.116 35.244c-2.303 2.503-.556 6.58 2.825 6.592l7.06.025-.037 10.783c-.008 2.166 1.722 3.927 3.863 3.935l5.17.018c2.141.008 3.883-1.741 3.89-3.907l.038-10.783 7.066.025c3.38.012 5.156-4.052 2.87-6.572L54.389 20.505z"/></svg>
