<svg data-name="Layer 1" data-tags="amazon, achievement" viewBox="0 0 100 100" xmlns="http://www.w3.org/2000/svg"><path fill="#ffc400" d="M50.055 53.194l45.544-14.8-31.47-4.572-14.074 19.372z"/><path fill="#f19c38" d="M72.827 60.592l22.772-22.197-45.544 14.799 22.772 7.398z"/><path fill="#f19c38" d="M64.129 33.822L50.055 5.306v47.888l14.074-19.372zM76.81 90.019c-.42.18-.83.36-1.25.53l-6.87-3.61-3.2-1.68v-.01l-1.46-.76-1.22-.64v-.01l-2.07-1.08-2.92-1.54-7.76-4.08v-23.95l.91 1.25v.01l3.5 4.82h.01l1.63 2.25 1.99 2.74.83 1.15 6.65 9.15 3.93 5.41v.01l1.21 1.66 1.58 2.17v.01l1.52 2.09 2.99 4.11z"/><path fill="#ffc400" d="M77.8 89.579c-.33.15-.66.3-.99.44l-2.99-4.11-1.52-2.09v-.01l-1.58-2.17-1.21-1.66v-.01l-3.93-5.41-6.65-9.15-.83-1.15-1.99-2.74-1.63-2.25h-.01l-3.5-4.82v-.01l-.91-1.25.81.26 3.51 1.14 2.94.96 2.88.94.13.04 3.09 1 1.35.44 8.06 2.62 1.79 10.46 3.18 18.53z"/><path fill="#f19c38" d="M50.06 53.189v23.95l-7.77 4.09-1.74.91-1.89.99-1.39.74-.75.39-1.13.59-2.64 1.39-2.2 1.16-6.08 3.19c-.41-.17-.81-.33-1.21-.51l3.73-5.14 1.33-1.82 2.29-3.15.92-1.27 2.98-4.11 6.68-9.18.83-1.15 1.98-2.73 1.68-2.31 1.69-2.32 2.69-3.71zm-.005.005l-45.544-14.8 22.772 22.198 22.772-7.398z"/><path fill="#ffc400" d="M35.981 33.822l-31.47 4.573 45.544 14.799-14.074-19.372z"/><path fill="#ffc400" d="M50.06 53.189l-2.69 3.71-1.69 2.32-1.68 2.31-1.98 2.73-.83 1.15-6.68 9.18-2.98 4.11-.92 1.27-2.29 3.15-1.33 1.82-3.73 5.14c-.32-.13-.64-.27-.96-.42l.92-5.37.38-2.2.68-4v-.01l.31-1.77.89-5.19 1.8-10.53 8.07-2.62 1.34-.44 3.22-1.04 2.81-.92 3.32-1.08 4.02-1.3z"/><path fill="#ffc400" d="M50.055 53.194V5.306L35.981 33.822l14.074 19.372z"/><path fill="#ffc400" d="M42.329 60.152c-4.267-4.267-4.267-11.185 0-15.453a10.89 10.89 0 017.729-3.2v-4.797a15.68 15.68 0 00-11.121 4.605c-6.143 6.14-6.143 16.097 0 22.237a15.671 15.671 0 0011.12 4.61v-4.798c-2.8 0-5.597-1.07-7.728-3.204z"/><path fill="#f19c38" d="M50.058 36.702V41.5a10.88 10.88 0 017.723 3.2c4.267 4.267 4.267 11.185 0 15.452a10.89 10.89 0 01-7.723 3.204v4.799a15.67 15.67 0 0011.117-4.61c6.14-6.141 6.14-16.098 0-22.238a15.679 15.679 0 00-11.117-4.605z"/><path fill="#e7e7e7" stroke-width="0" d="M60.172 42.308a14.252 14.252 0 00-10.113-4.19c-3.666 0-7.33 1.397-10.12 4.19-5.588 5.588-5.588 14.647 0 20.234a14.265 14.265 0 0010.12 4.195 14.26 14.26 0 0010.113-4.195c5.587-5.587 5.587-14.646 0-20.234z"/><path fill="#90291a" stroke-width="0" d="M5.12 69.279a147.263 147.263 0 0113.272-2.146v13.509a134.14 134.14 0 00-12.688 2.23c-.774.174-1.37-.686-.946-1.364l3.924-6.259-4.04-4.48c-.465-.516-.199-1.349.478-1.49zm90.246 1.49l-4.04 4.48 3.924 6.26c.425.677-.172 1.537-.946 1.362a134.67 134.67 0 00-12.688-2.23V67.134c4.446.512 8.875 1.227 13.272 2.146.677.141.943.974.478 1.49z"/><path fill="#d54831" stroke-width="0" d="M86.49 85.029a77.807 77.807 0 01-8.69 4.55c-.33.15-.66.3-.99.44-.42.18-.83.36-1.25.53-8.35 3.45-17.28 5.47-25.58 5.46-8.26.01-17.17-2-25.51-5.42-.41-.17-.81-.33-1.21-.51-.32-.13-.64-.27-.96-.42a77.606 77.606 0 01-8.87-4.63c.25-1.3.55-2.56.89-3.8 1.3-4.73 3.1-9.16 4.04-14.1v-.01c.01 0 .01.01.02.01 0 .01.01.01.01.01 2.31 1.5 4.68 2.83 7.09 3.98 2.95 1.42 5.97 2.59 9.03 3.47a54.54 54.54 0 0015.47 2.26h.08c5.21 0 10.42-.78 15.52-2.29 3.06-.9 6.09-2.07 9.04-3.51 2.38-1.14 4.71-2.45 6.99-3.93 0 .02.01.03.01.05.94 4.92 2.7 9.33 3.98 14.04.34 1.25.64 2.52.89 3.82z"/><path fill="#232f3e" stroke-width="0" d="M47.37 56.899l-1.34-.01.01-2.39v-.01l.02-2.6.03-4.16v-.01l.01-2.13-1.57-.01-2.97-.02-.78-.01-.01 1.12-.01 1.22 2.01.01-.02 2.92-.03 4.75-.01 1.3-1.87-.01-.01 1.42-.01.91h.66l4.2.03 2.1.01.01-2.33h-.42zm6.91-4.49c0-.2 0-.4.01-.59l-3.44 1.11c0 .18.01.35.02.52l3.51 1.14c-.07-.61-.11-1.34-.1-2.18zm6.51-2.7c-.2-1.01-.54-1.85-1.01-2.51-.13-.18-.27-.35-.42-.5l-.01-.01c-.83-.85-1.96-1.28-3.37-1.29-.09 0-.18 0-.27.01-1.53.05-2.71.65-3.54 1.79-.83 1.17-1.27 2.8-1.32 4.9-.01.09-.01.19-.01.29 0 .18 0 .36.01.54 0 .18.01.35.02.52.02.35.05.67.1.99v.01c.18 1.31.56 2.38 1.15 3.19.59.84 1.37 1.38 2.35 1.63h.01c.43.13.91.19 1.42.19 1.54.01 2.76-.51 3.62-1.57.06-.07.12-.14.17-.21.25-.34.47-.72.64-1.15.46-1.08.69-2.43.7-4.08.01-1.02-.07-1.94-.24-2.74zm-3.59 6.23c-.27.76-.69 1.14-1.27 1.13-.58 0-1-.38-1.27-1.15-.13-.35-.22-.8-.28-1.33-.07-.61-.11-1.34-.1-2.18 0-.2 0-.4.01-.59.03-1.26.17-2.23.41-2.91.28-.78.7-1.16 1.28-1.16.89.01 1.42 1.01 1.58 3 .05.5.06 1.06.06 1.68-.01 1.33-.11 2.37-.3 3.12-.04.14-.08.27-.12.39zm-2.92-3.53c0-.2 0-.4.01-.59l-3.44 1.11c0 .18.01.35.02.52l3.51 1.14c-.07-.61-.11-1.34-.1-2.18z"/><path fill="#fff" stroke-width="0" d="M24.5 79.249c.41.19.62.28 1.04.46l.6-2.97c-.4-.18-.61-.26-1.01-.45-.06.26-.09.39-.14.65-.12-.23-.25-.44-.4-.63a3.38 3.38 0 00-1.22-.99c-.59-.28-1.17-.37-1.73-.24-.57.12-1.08.43-1.51.93-.44.5-.77 1.15-.98 1.95-.22.85-.28 1.67-.17 2.46.11.79.38 1.49.81 2.11.44.62 1 1.1 1.71 1.44.63.3 1.2.41 1.72.32.83-.14 1.51-.75 2.04-1.83-.44-.53-.65-.79-1.07-1.33-.16.39-.36.72-.59.96a1.9 1.9 0 01-.38.32c-.41.25-.82.28-1.25.07-.35-.17-.63-.44-.84-.82s-.34-.81-.38-1.29c-.05-.49-.01-.97.11-1.47.13-.52.32-.96.57-1.32.26-.35.55-.59.88-.7.33-.12.67-.09 1.02.07.44.21.75.59.95 1.13v.01c.12.33.19.71.22 1.16zm9 2.18a4.61 4.61 0 00-.98-1.92 3.46 3.46 0 00-.99-.81c-.22-.13-.45-.23-.69-.31-.66-.23-1.28-.25-1.85-.07-.58.17-1.07.53-1.48 1.08-.4.54-.69 1.24-.86 2.1-.16.87-.16 1.69.02 2.47.07.34.18.67.32.97.17.39.4.74.67 1.06.48.57 1.07.97 1.76 1.21.39.13.77.2 1.13.19a2.714 2.714 0 002.2-1.16c.05-.05.09-.11.13-.17.38-.58.63-1.32.75-2.2.11-.87.07-1.68-.13-2.44zm-3.84 4.22c-.35-.12-.63-.35-.86-.7-.22-.34-.37-.75-.44-1.24-.03-.19-.04-.39-.04-.59 0-.31.03-.62.09-.95.09-.52.24-.96.45-1.34.21-.37.47-.64.77-.8.3-.16.62-.18.96-.07q.01 0 .02.01c.34.12.61.35.82.67.22.34.37.74.44 1.21.08.47.08.97 0 1.49-.08.55-.22 1.02-.43 1.42-.2.39-.46.67-.77.83-.31.16-.64.18-1.01.06zm14.37-2.72c.03-.6.04-.9.07-1.49-.73-.08-1.25-.13-1.81-.21-.4-.05-.81-.12-1.34-.2a190.257 190.257 0 01-1.81 4.88c-.2-1.11-.34-1.94-.48-2.78-.13-.78-.26-1.55-.42-2.59-1.24-.25-1.85-.4-3.08-.71-.08.58-.11.88-.19 1.47.33.08.49.12.81.2-.15 1.36-.27 2.32-.39 3.35-.08.71-.17 1.45-.28 2.39l-.84-.22c-.08.59-.11.89-.19 1.48 1.11.28 1.67.41 2.78.65l.15-1.48c-.33-.07-.5-.11-.84-.18.14-1.31.25-2.24.35-3.23.09-.75.18-1.53.28-2.52.05.01.08.02.14.03.12.78.23 1.47.33 2.1.29 1.85.54 3.28.96 5.56.28.05.43.08.71.13 1.06-2.76 1.57-4.15 2.55-6.95.06.01.08.02.14.02-.16 2.32-.23 3.48-.39 5.79-.32-.04-.48-.07-.79-.11-.05.59-.07.89-.11 1.48 1.33.21 2 .3 3.33.43.03-.6.05-.89.08-1.49-.34-.03-.51-.05-.85-.09.13-2.32.19-3.48.32-5.8.32.04.48.05.81.09zm10.3 5.97l-.85.05c-.06-2.33-.1-3.49-.16-5.81l.81-.05-.05-1.5c-1.26.09-1.89.12-3.16.14-.53 2.07-.81 3.1-1.39 5.16-.56-2.07-.82-3.1-1.33-5.18a53.5 53.5 0 01-3.11-.18c-.03.59-.04.89-.06 1.49.32.03.49.04.81.06-.07 2.33-.11 3.49-.19 5.81-.34-.02-.52-.03-.86-.06-.02.59-.03.89-.06 1.49 1.12.09 1.68.13 2.8.17.01-.59.02-.89.03-1.49-.34-.01-.5-.02-.84-.04l.15-5.81c.05 0 .08 0 .14.01.72 2.96 1.1 4.43 1.91 7.37.28.01.42.01.7.01.83-2.92 1.23-4.39 1.97-7.33h.14c.03 2.32.05 3.48.08 5.81-.31.01-.47.01-.79.02.01.6.01.9.01 1.49 1.34-.02 2.01-.05 3.35-.14l-.05-1.49zm6.76-2.17c-.5.09-.74.14-1.24.22l.1 1.29c-.81.13-1.21.19-2.02.3-.06-.92-.09-1.38-.14-2.3.64-.09.96-.13 1.6-.23-.04-.59-.07-.89-.11-1.48a40 40 0 01-1.59.23c-.05-.81-.07-1.21-.12-2.02.77-.1 1.16-.15 1.93-.28l.1 1.29c.49-.08.73-.12 1.21-.21-.03-.29-.05-.55-.07-.78-.06-.66-.1-1.17-.17-1.99-1.1.2-1.92.34-2.75.45-.8.11-1.61.2-2.69.29.03.6.04.89.06 1.49.31-.02.46-.04.76-.07.11 2.32.17 3.48.28 5.8-.32.03-.47.05-.79.08.02.59.04.89.06 1.49 2.34-.21 3.51-.36 5.83-.79-.1-1.11-.14-1.67-.24-2.78zm7.6.21c-.35-2.38-.56-3.81-.94-6.41.34-.11.51-.16.85-.27-.09-.59-.13-.88-.22-1.46-1.09.35-1.63.51-2.72.81.08.59.11.88.19 1.47.32-.09.48-.13.8-.22.21 1.57.32 2.36.54 3.93a98.728 98.728 0 01-2.99-4.8c-1.03.26-1.55.37-2.58.58.06.59.09.89.14 1.48.34-.07.5-.1.84-.17.08.75.14 1.38.21 1.96v.01c.12 1.21.22 2.23.38 3.78-.35.07-.52.11-.87.18.05.59.08.89.14 1.48 1.15-.23 1.73-.36 2.88-.65-.07-.59-.11-.88-.18-1.47l-.81.2c-.13-1.17-.22-1.99-.32-2.88-.07-.6-.14-1.24-.23-2.04a81.1 81.1 0 001.69 2.8v.01c.54.89 1.1 1.75 1.87 2.91.58-.17.87-.25 1.45-.43-.04-.28-.08-.55-.12-.8zm5.46-2.71c-.44-2.24-.66-3.36-1.09-5.6.38-.15.57-.23.94-.39.16.78.24 1.17.4 1.96.42-.18.63-.27 1.04-.45-.29-1.36-.43-2.03-.72-3.39-2.16.97-3.25 1.39-5.45 2.14.1.58.17 1.03.24 1.47v.01c.1.6.19 1.17.32 1.97a121.094 121.094 0 011.06-.37c-.14-.8-.2-1.19-.34-1.99.37-.13.56-.2.93-.34.33 1.86.53 2.96.82 4.56v.01l.19 1.06c-.39.14-.58.22-.97.36l.25 1.45c.83-.3 1.42-.52 2.05-.78.47-.18.95-.38 1.57-.64-.12-.57-.18-.86-.29-1.44-.38.17-.57.24-.95.4zm7.17-4.49c-.17-.63-.44-1.08-.82-1.36-.39-.28-.89-.43-1.5-.47-.11 0-.17-.01-.28-.02a4.72 4.72 0 01-.61-.07.851.851 0 01-.37-.18.673.673 0 01-.22-.39.892.892 0 01.44-.98c.23-.11.45-.11.65.02.19.13.36.38.51.76.41-.21.61-.32 1.02-.54-.26-1-.39-1.5-.64-2.5-.4.22-.6.32-1.01.53.07.28.11.42.17.69-.18-.19-.39-.31-.61-.34-.22-.04-.44 0-.67.12-.29.14-.54.37-.74.69s-.33.69-.39 1.11c-.06.42-.05.84.05 1.27.12.54.36.96.73 1.25.37.29.9.47 1.59.53.41.03.71.11.92.24.19.13.33.32.39.57.06.24.04.48-.04.72-.09.24-.23.41-.43.51-.28.15-.54.13-.77-.04-.23-.18-.41-.5-.54-.98-.43.2-.64.3-1.06.5.25 1.14.38 1.71.63 2.85.43-.2.65-.31 1.08-.52-.06-.28-.1-.43-.16-.71.43.39.92.45 1.48.17.56-.29.95-.75 1.17-1.37.22-.62.23-1.3.03-2.06z"/></svg>
