<svg xmlns="http://www.w3.org/2000/svg" data-name="Layer 1" data-tags="amazon, achievement" viewBox="0 0 100 100"><path fill="#252f3d" d="m23.326 63.387-.087-.408c-.017-.096-2.163-10.074-4.143-20.078-4.15-20.93-3.682-21.503-3.039-22.302l.469-.582.799-.034c6.244 0 11.324-5.08 11.324-11.325V7.104h42.336v1.563c0 6.244 5.072 11.324 11.307 11.324h.747l.538.617c.643.79 1.147 1.415-2.909 22.319a1364.733 1364.733 0 0 1-4.055 20.052l-.087.417-26.6 29.5-26.6-29.5v-.01Z"/><path fill="#47566e" d="M75.084 62.65 49.926 90.551 24.759 62.65s-8.806-41.102-7.434-41.102c7.121 0 12.879-5.767 12.879-12.88h39.21c0 7.113 5.766 12.88 12.87 12.88 1.458 0-7.217 41.102-7.217 41.102h.017Z"/><path fill="#f19c38" d="M27.208 61.396c-2.797-13.087-6.444-31.28-7.226-37.43 6.444-1.11 11.542-6.209 12.662-12.652h34.364c1.111 6.46 6.226 11.567 12.688 12.661-.721 6.114-4.3 24.334-7.052 37.43l-22.71 25.193-22.718-25.193-.008-.009Z"/><path fill="#ffc400" d="M77.724 25.351c-.946 6.574-3.83 21.485-6.713 35.224L49.926 83.962l-18.55-20.574-2.536-2.822c-2.935-13.747-5.88-28.623-6.878-35.232A17.378 17.378 0 0 0 34.068 13.08h31.524c1.572 5.94 6.227 10.647 12.14 12.271h-.008Z"/><path fill="#fff" d="M77.72 25.356c-.94 6.57-3.83 21.48-6.71 35.22l-21.08 23.39-18.55-20.58 13.53-20.45 11.5-17.39 8.25-12.47h.92c1.58 5.94 6.23 10.65 12.14 12.28Z" opacity=".6"/><path fill="#232f3e" d="m56.41 25.546-11.5 17.39-1.47-16.43a3.229 3.229 0 0 1 3.22-3.51h6.58c1.57 0 2.86 1.1 3.17 2.55Z"/><path fill="#47566e" d="m56.46 26.566-2.97 27.97a3.246 3.246 0 0 1-3.22 2.89h-1.12a3.22 3.22 0 0 1-3.21-2.94l-1.03-11.55 11.5-17.39c.07.32.09.67.05 1.02Zm-6.505 34.276c-2.288 0-4.137 1.85-4.137 4.137s1.85 4.137 4.137 4.137 4.137-1.85 4.137-4.137-1.85-4.137-4.137-4.137Z"/><path fill="#ffc400" d="M28.892 76.977c.72 3.125-1.493 6.292-1.493 6.292s-3.39-1.896-4.11-5.02c-.72-3.125 1.493-6.282 1.493-6.282s3.39 1.896 4.11 5.01Z"/><path fill="#f19c38" d="M21.139 81.71c3.093-.698 6.26 1.558 6.26 1.558s-1.854 3.389-4.947 4.099c-3.093.699-6.26-1.557-6.26-1.557s1.854-3.39 4.947-4.1Z"/><path fill="#ffc400" d="M22.94 72.666c-.106 3.2-3.062 5.667-3.062 5.667s-2.796-2.712-2.69-5.91 3.061-5.667 3.061-5.667 2.796 2.712 2.69 5.9v.01Z"/><path fill="#f19c38" d="M14.223 75.209c3.177.138 5.655 3.135 5.655 3.135s-2.669 2.786-5.846 2.659c-3.178-.127-5.656-3.135-5.656-3.135s2.67-2.786 5.847-2.659Z"/><path fill="#ffc400" d="M18.3 66.958c-.921 3.05-4.427 4.66-4.427 4.66s-2.002-3.336-1.09-6.397c.92-3.05 4.416-4.66 4.416-4.66s2.002 3.336 1.09 6.397h.011Z"/><path fill="#f19c38" d="M9.202 67.139c3.04.953 4.671 4.49 4.671 4.49s-3.294 1.992-6.334 1.039c-3.04-.954-4.67-4.491-4.67-4.491s3.304-1.992 6.344-1.038h-.01Z"/><path fill="#ffc400" d="M15.26 60.254c-1.673 2.701-5.475 3.347-5.475 3.347s-1.08-3.738.593-6.44c1.673-2.7 5.476-3.346 5.476-3.346s1.08 3.739-.593 6.44Z"/><path fill="#f19c38" d="M6.417 58.05c2.7 1.717 3.368 5.55 3.368 5.55s-3.707 1.06-6.408-.656C.676 61.228.009 57.394.009 57.394s3.707-1.06 6.408.657Z"/><path fill="#ffc400" d="M14.053 52.987c-2.32 2.172-6.164 1.79-6.164 1.79s-.096-3.887 2.224-6.058c2.32-2.171 6.164-1.79 6.164-1.79s.085 3.887-2.224 6.058Z"/><path fill="#f19c38" d="M6.046 48.56c2.171 2.352 1.843 6.228 1.843 6.228s-3.856.053-6.037-2.298C-.32 50.139.019 46.262.019 46.262s3.856-.053 6.037 2.298h-.01Z"/><path fill="#ffc400" d="M12.486 43.126c-.88 3.072-4.354 4.734-4.354 4.734s-2.054-3.315-1.175-6.376 4.353-4.724 4.353-4.724 2.055 3.305 1.176 6.377v-.011Zm58.622 33.851c-.72 3.125 1.493 6.292 1.493 6.292s3.39-1.896 4.11-5.02c.72-3.125-1.493-6.282-1.493-6.282s-3.39 1.896-4.11 5.01Z"/><path fill="#f19c38" d="M78.861 81.71c-3.093-.698-6.26 1.558-6.26 1.558s1.854 3.389 4.947 4.099c3.093.699 6.26-1.557 6.26-1.557s-1.854-3.39-4.947-4.1Z"/><path fill="#ffc400" d="M77.06 72.666c.106 3.2 3.062 5.667 3.062 5.667s2.796-2.712 2.69-5.91c-.106-3.199-3.061-5.667-3.061-5.667s-2.796 2.712-2.69 5.9v.01Z"/><path fill="#f19c38" d="M85.777 75.209c-3.177.138-5.655 3.135-5.655 3.135s2.669 2.786 5.846 2.659c3.178-.127 5.656-3.135 5.656-3.135s-2.67-2.786-5.847-2.659Z"/><path fill="#ffc400" d="M81.7 66.958c.921 3.05 4.427 4.66 4.427 4.66s2.002-3.336 1.09-6.397c-.92-3.05-4.416-4.66-4.416-4.66s-2.002 3.336-1.09 6.397H81.7Z"/><path fill="#f19c38" d="M90.798 67.139c-3.04.953-4.671 4.49-4.671 4.49s3.294 1.992 6.334 1.039c3.04-.954 4.67-4.491 4.67-4.491s-3.304-1.992-6.344-1.038h.01Z"/><path fill="#ffc400" d="M84.74 60.252c1.673 2.701 5.475 3.347 5.475 3.347s1.08-3.739-.593-6.44c-1.673-2.7-5.476-3.346-5.476-3.346s-1.08 3.738.593 6.44Z"/><path fill="#f19c38" d="M93.583 58.049c-2.7 1.716-3.368 5.55-3.368 5.55s3.707 1.059 6.408-.657c2.701-1.716 3.368-5.55 3.368-5.55s-3.707-1.06-6.408.657Z"/><path fill="#ffc400" d="M85.947 52.987c2.32 2.172 6.164 1.79 6.164 1.79s.095-3.887-2.224-6.058c-2.32-2.171-6.164-1.79-6.164-1.79s-.085 3.887 2.224 6.058Z"/><path fill="#f19c38" d="M93.954 48.56c-2.171 2.352-1.843 6.228-1.843 6.228s3.856.053 6.037-2.298c2.172-2.352 1.833-6.218 1.833-6.218s-3.856-.053-6.037 2.299l.01-.01Z"/><path fill="#ffc400" d="M87.514 43.126c.88 3.072 4.354 4.734 4.354 4.734s2.054-3.315 1.175-6.376-4.353-4.724-4.353-4.724-2.055 3.305-1.176 6.377v-.011Z"/></svg>
