<svg data-name="Layer 1" data-tags="amazon, achievement" viewBox="0 0 100 100" xmlns="http://www.w3.org/2000/svg"><path fill="#232f3e" d="M67.442 16.236l-1.376 2.72-.01.01-1.94 3.827-5.753 11.352-.115.24-3.471-.48-.01-.01-4.191-.584-8.548-1.188L53.442 9.147l13.562 6.87.438.219z"/><path fill="#435770" d="M68.629 15.058l-.344-.177L52.732 7 39.618 33.404l14.605 2.022 3.262.459.052.01.845.115h.01l.772.104.083-.156-1.595-3.93-.313.615-1.23-.167-11.664-1.626 9.705-19.546 11.143 5.63-5.608 11.08-.01.01-.835 1.637 3.701-.229.834-1.647h.01l3.962-7.829 1.939-3.836.292-.583-.95-.48z"/><path fill="#232f3e" d="M51.446 32.568l-15.655 4.81.634-25.645 15.679.506-.658 20.33z"/><path fill="#435770" d="M34.142 39.554l.727-29.467 18.881.61-.747 23.06-18.861 5.797zm3.837-26.175l-.538 21.823 12.449-3.824.568-17.596-12.479-.402z"/><path fill="#232f3e" d="M46.086 33.295L33.929 44.27 23.665 20.76l14.425-6.167 7.996 18.7z"/><path fill="#435770" d="M33.354 46.939L21.56 19.926l17.371-7.427L48 33.715 33.355 46.939zM25.77 21.596l8.735 20.006 9.666-8.728-6.92-16.186-11.481 4.908z"/><path fill="#232f3e" d="M41.533 36.22l-6.38 15.084-19.237-16.969L26.383 22.65l15.15 13.571z"/><path fill="#435770" d="M35.762 53.966L13.656 34.468 26.26 20.397l17.187 15.395-7.684 18.174zM18.177 34.203l16.371 14.44 5.072-11.996L26.507 24.9l-8.33 9.302z"/><path fill="#232f3e" d="M38.645 40.794l.592 16.367-24.606-7.25 4.548-15.013 19.466 5.896z"/><path fill="#435770" d="M40.912 59.319l-28.274-8.331 5.477-18.08 22.082 6.69.715 19.721zM16.623 48.835l20.94 6.17-.472-13.015-16.847-5.103-3.621 11.948z"/><path fill="#232f3e" d="M37.958 46.16l7.456 14.584-25.364 3.83-2.225-15.53 20.133-2.884z"/><path fill="#435770" d="M18.698 66.39l-2.677-18.7 22.84-3.27 8.983 17.571-29.146 4.4zm.933-15.993l1.77 12.358 21.584-3.258-5.928-11.596-17.426 2.496z"/><path fill="#232f3e" d="M39.605 51.314l12.921 10.067-21.371 14.19-8.579-13.135 17.029-11.122z"/><path fill="#435770" d="M30.7 77.79L20.369 61.972l19.318-12.616 15.568 12.128L30.7 77.79zM24.784 62.9l6.828 10.454 18.186-12.077-10.275-8.003L24.784 62.9z"/><path fill="#232f3e" d="M43.274 55.29l15.968 3.661-13.373 21.894-13.326-8.28L43.274 55.29z"/><path fill="#435770" d="M46.394 83.048l-16.05-9.97L42.52 53.48l19.237 4.413-15.363 25.155zM34.74 72.052l10.606 6.59 11.378-18.631-12.696-2.912-9.288 14.953z"/><path fill="#232f3e" d="M48.282 57.342l16.017-3.429-2.866 25.493-15.576-1.872 2.425-20.192z"/><path fill="#435770" d="M62.84 81.182l-18.757-2.253 2.751-22.909 19.298-4.13-3.292 29.292zM47.632 76.14l12.396 1.49 2.439-21.695-12.738 2.727-2.097 17.478z"/><path fill="#232f3e" d="M53.688 57.085l13.066-9.877 8.178 24.316-14.91 4.887-6.334-19.326z"/><path fill="#435770" d="M59.003 78.424L51.818 56.5l15.743-11.9 9.393 27.94-17.95 5.885zM55.56 57.671l5.483 16.727 11.865-3.889-6.96-20.692-10.388 7.854z"/><path fill="#232f3e" d="M58.477 54.568l7.67-14.473 17.686 18.581-11.446 10.73-13.91-14.838z"/><path fill="#435770" d="M72.315 71.66L56.534 54.827l9.24-17.438 20.322 21.352-13.78 12.92zM60.42 54.308L72.458 67.15l9.111-8.539L66.52 42.8l-6.1 11.508z"/><path fill="#232f3e" d="M61.754 50.263l.834-16.36 23.883 9.368-5.839 14.56-18.878-7.568z"/><path fill="#435770" d="M81.518 59.906L60.104 51.32l1.003-19.71L88.55 42.372l-7.032 17.534zm-18.111-10.7l16.336 6.551 4.648-11.588-20.323-7.971-.661 13.008z"/><path fill="#232f3e" d="M62.541 29.433l-.834 1.647-1.511 2.982-.449.896-.5 1-1.595-3.93 1.188-2.366 3.701-.229z"/><path fill="#232f3e" d="M56.745 29.798l2.095-.136-1.188 2.367-.907-2.231zM83.213 43.86l-20.307 1.116-3.659-9.017.5-1.001.449-.896 1.511-2.982.834-1.647 19.806-1.24.866 15.667z"/><path fill="#435770" d="M83.859 26.504l-20.473 1.282h-.01l-1.794.115-1.897.114-.01.01-2.336 4.619-1.23-.167 1.376 3.409.01.02 4.358 10.727 23.038-1.272-1.032-18.857zM61.707 31.08l13.333-.834 5.806-.365.688 12.468-17.575.97-1.772-4.368-1.991-4.879v-.01l1.511-2.982z"/><path fill="#232f3e" d="M79.23 26.618L63.865 39.93l-7.11-4.128.772.105.01-.01.845.114h.01l.772.104.583-1.157 7.6-15 1.939-3.837.292-.583-.95-.48.334-.302L79.23 26.618z"/><path fill="#435770" d="M69.119 12.504l-2.47 2.168 1.292.657-2.23 4.42 3.095-2.731 8.173 9.434-13.302 11.53-5.566-3.232-.584 1.157-4.941-.688 11.456 6.66 17.44-15.104-12.363-14.271z"/><path fill="#f19c38" fill-rule="evenodd" d="M52.345 29.656a4.035 4.035 0 00-5.972-.021L32.136 45.11c-2.414 2.624-.582 6.9 2.963 6.912l7.403.026-.04 11.307c-.007 2.271 1.807 4.118 4.052 4.126l5.42.02c2.246.008 4.072-1.826 4.08-4.097l.04-11.307 7.408.026c3.545.013 5.407-4.249 3.01-6.89L52.346 29.655z"/><path fill="#f19c38" fill-rule="evenodd" d="M31.283 46.48l1.505-3.738 2.965.854-.455 3.442-1.657 1.196-2.358-1.755zm35.922 3.162l1.49-3.722-2.18-1.043-2.584 2.702.16 1.828 3.114.235zM55.77 64.806l1.49-3.723-2.18-1.042-2.584 2.702.16 1.827 3.113.236z"/><path fill="#ffc400" fill-rule="evenodd" stroke-width="0" d="M53.755 26.151a4.035 4.035 0 00-5.972-.02L33.547 41.605c-2.415 2.625-.583 6.9 2.962 6.912l7.403.027-.04 11.307c-.007 2.27 1.807 4.118 4.052 4.126l5.42.02c2.246.007 4.072-1.827 4.08-4.098l.04-11.307 7.409.027c3.544.012 5.406-4.25 3.01-6.891L53.755 26.15z"/><path fill="#90291a" d="M1.477 64.1a159.2 159.2 0 0114.348-2.32v14.603a145.018 145.018 0 00-13.716 2.41c-.837.19-1.482-.74-1.023-1.473l4.242-6.766L.961 65.71c-.503-.558-.215-1.458.516-1.61zm97.563 1.61l-4.368 4.844 4.242 6.766c.46.732-.186 1.662-1.023 1.473a145.011 145.011 0 00-13.716-2.41V61.78c4.806.553 9.594 1.326 14.348 2.32.731.152 1.02 1.052.516 1.61z"/><path fill="#d54831" stroke-width="0" d="M89.445 81.122c-1.276-6.739-4.004-12.618-5.28-19.356-10.643 6.906-22.416 10.532-34.19 10.517-11.772.015-23.545-3.61-34.188-10.517-1.276 6.738-4.054 12.617-5.33 19.356C22.384 88.368 36.93 93.014 49.976 93c13.045.014 27.542-4.632 39.47-11.878z"/><path fill="#fff" d="M41.932 86.67v2.413c-2.601-.39-3.898-.654-6.47-1.316v-2.413c.694.178 1.04.263 1.737.421v-9.27a53.61 53.61 0 01-1.854-.451V73.64c1.969.511 2.959.727 4.946 1.079v11.683c.656.116.984.17 1.641.268zm13.449-4.105c0 2.376-.41 4.213-1.235 5.487-.823 1.276-2.01 1.935-3.56 1.917-1.557-.019-2.744-.707-3.564-2-.82-1.294-1.23-3.14-1.23-5.517 0-2.32.407-4.069 1.22-5.273.815-1.204 2.006-1.765 3.573-1.746 1.585.018 2.78.592 3.587 1.787.807 1.195 1.21 2.97 1.21 5.345zm-6.363.088c0 1.635.128 2.849.383 3.643.256.793.656 1.197 1.201 1.203.546.007.944-.388 1.193-1.176s.375-1.999.375-3.633c0-3.218-.522-4.813-1.568-4.825-.545-.006-.945.385-1.2 1.181-.256.797-.384 1.999-.384 3.607zm18.29-2.007c0 2.376-.404 4.292-1.215 5.723-.811 1.433-1.982 2.318-3.519 2.595-1.543.279-2.725-.184-3.542-1.32-.817-1.137-1.228-2.906-1.228-5.282 0-2.32.407-4.147 1.218-5.506.812-1.36 1.998-2.147 3.552-2.428 1.57-.283 2.75.063 3.544 1.103.794 1.042 1.19 2.74 1.19 5.115zm-6.29 1.302c0 1.634.128 2.824.381 3.569.254.745.652 1.072 1.192.975.54-.098.934-.569 1.181-1.404s.37-2.07.37-3.704c0-3.218-.515-4.714-1.551-4.527-.54.098-.938.565-1.192 1.41-.253.846-.38 2.072-.38 3.68zm-19.56-48.461l4.118 2.251-4.118 2.253-2.252 4.117-2.253-4.117-4.117-2.253 4.117-2.251 2.253-4.118 2.252 4.118z"/></svg>
