<svg data-name="Layer 1" data-tags="amazon, achievement" viewBox="0 0 100 100" xmlns="http://www.w3.org/2000/svg"><path fill="#435770" d="M45.37 53.75v17.015h9.224v-7.789L45.37 53.75z"/><path fill="#232f3e" d="M54.594 42.27H45.37v11.48l9.224 9.226V42.27zM12.95 13.007v-1.93h25.134v25.15h-1.915c-12.803 0-23.219-10.416-23.219-23.22zm3.925 1.902c.895 9.17 8.21 16.488 17.378 17.393V14.909H16.875z"/><path fill="#232f3e" d="M69.406 11.076H49.982V54.07h1.242c10.041 0 18.182-8.14 18.182-18.182v-.364C79.52 33.016 87.05 23.887 87.05 13.007v-1.93H69.406zm0 20.49V14.91h13.72c-.774 7.91-6.326 14.43-13.72 16.657z"/><path fill="#435770" d="M49.982 5.88H30.594v30.007c0 10.042 8.14 18.182 18.182 18.182h1.206V11.076h19.424V5.88H49.982z"/><path fill="#232f3e" d="M39.231 68.906H60.72v4.343H39.231z"/><path fill="#435770" d="M39.23 73.249h-4.42v12.018h30.38V73.25H39.231z"/><path fill="c13e28" d="M.952 85.68l8.442-8.44-8.442-8.443h19.432l-.502 16.883H.952z"/><path fill="#435770" d="M20.384 68.797L13.62 77.24l.017 8.44h6.244l.502-16.883z"/><path fill="c13e28" d="M99.048 85.678l-8.44-8.441 8.44-8.44h-19.43l.503 16.881h18.927z"/><path fill="#435770" d="M79.617 68.797l6.763 8.44-.016 8.443-6.243-.002-.504-16.881z"/><path fill="#d54831" stroke-width="0" d="M13.621 77.24h72.726v16.88H13.621z"/><path fill="#fff" d="M36.137 84.773v-2.29h-1.532v6.511h1.47v1.675h-5.527v-1.675h1.496v-6.512h-1.496v2.29h-1.675v-3.965h8.926v3.966h-1.662zm2.43.936c0-1 .227-1.88.685-2.644s1.104-1.357 1.933-1.785c.833-.423 1.789-.637 2.87-.637s2.038.214 2.863.637c.829.428 1.47 1.024 1.924 1.791.458.768.685 1.647.685 2.638 0 1.003-.227 1.889-.685 2.657-.454.768-1.1 1.363-1.929 1.786-.833.424-1.784.635-2.857.635-1.052 0-1.994-.211-2.832-.635a4.753 4.753 0 01-1.955-1.786c-.47-.768-.702-1.654-.702-2.657zm8.211-.013c0-.598-.11-1.143-.327-1.632a2.77 2.77 0 00-.947-1.174c-.41-.288-.894-.434-1.448-.434s-1.039.146-1.449.434c-.41.293-.724.681-.942 1.174a3.896 3.896 0 00-.332 1.632c0 .628.114 1.193.336 1.693.227.5.541.892.955 1.178.406.285.882.427 1.418.427.555 0 1.039-.142 1.458-.427.414-.286.733-.679.95-1.178s.328-1.065.328-1.693zm12.543-1.754c0 1.073-.336 1.865-1.003 2.373-.672.509-1.71.762-3.124.762h-1.038v1.917h1.383v1.675h-5.197v-1.675h1.244v-6.512h-1.244v-1.675h4.8c1.405 0 2.456.257 3.145.77s1.034 1.3 1.034 2.365zm-2.709 0c0-.41-.083-.724-.249-.938-.165-.218-.405-.358-.715-.423a5.352 5.352 0 00-1.082-.099h-.41v2.958h.41c.54 0 .964-.054 1.265-.167.297-.11.502-.273.615-.487.11-.214.166-.495.166-.844zm14.14-.668c0 .99-.493 1.717-1.483 2.18 1.239.423 1.858 1.206 1.858 2.349a2.66 2.66 0 01-.475 1.566c-.314.458-.755.81-1.318 1.058s-1.2.373-1.906.373c-2.36 0-3.622-1.075-3.796-3.226l2.146-.177c.01 1.152.485 1.728 1.423 1.728.432 0 .78-.135 1.056-.406.266-.27.401-.604.401-1.001 0-.41-.14-.744-.428-.997-.283-.257-.689-.384-1.212-.384-.083 0-.267.01-.55.033v-1.8c.606-.009 1.082-.116 1.422-.32s.506-.5.506-.884a.932.932 0 00-.34-.746c-.231-.192-.52-.288-.868-.288-.786 0-1.178.438-1.178 1.315l-2.073-.176c.066-.895.402-1.59 1.004-2.09s1.396-.75 2.382-.75c1.043 0 1.876.237 2.5.71.62.474.93 1.117.93 1.933z"/><path fill="#ffc400" d="M50.342 32.51l13.516-4.391-9.34-1.357-4.176 5.748z"/><path fill="#f19c38" d="M57.1 34.706l6.758-6.587-13.516 4.391 6.758 2.196zm-2.581-7.944l-4.177-8.463V32.51l4.177-5.748zm-4.177 12.854l8.353 4.391-8.353-11.497v7.106z"/><path fill="#ffc400" d="M50.342 32.51l8.353 11.497-1.595-9.301-6.758-2.196z"/><path fill="#f19c38" d="M50.342 32.51L41.99 44.007l8.353-4.391V32.51z"/><path fill="#f19c38" d="M50.342 32.51l-13.515-4.39 6.758 6.587 6.757-2.196z"/><path fill="#ffc400" d="M46.166 26.762l-9.34 1.357 13.516 4.391-4.176-5.748zm-2.581 7.944l-1.596 9.301 8.353-11.497-6.757 2.196zm6.757-2.196V18.3l-4.176 8.462 4.176 5.748z"/></svg>
