<svg xmlns="http://www.w3.org/2000/svg" xmlns:xlink="http://www.w3.org/1999/xlink" data-name="Layer 1" data-tags="amazon, achievement" viewBox="0 0 100 100"><defs><linearGradient id="a" x1="9.191" x2="13.962" y1="-4205.41" y2="-4205.41" gradientTransform="matrix(1 0 0 -1 0 -4143.035)" gradientUnits="userSpaceOnUse"><stop offset="0" stop-color="#90291a"/><stop offset="1" stop-color="#90291a"/></linearGradient><linearGradient xlink:href="#a" id="b" x1="86.207" x2="94.165" y1="-4205.688" y2="-4205.688"/></defs><path fill="#232f3e" d="m67.047 15.68-1.378 2.787-.01.01-1.943 3.92-5.765 11.63-.114.246-3.478-.491-.01-.011-4.198-.598-8.563-1.218L53.023 8.417l13.585 7.038.439.225z"/><path fill="#435770" d="m68.239 14.475-.35-.18-1.19-.62-14.39-7.46-1.79 3.7-.79 1.61-.78 1.6-5.33 11-.94 1.93-.93 1.92-.74 1.51-1.47 3.05-.36.73 1.01.14.36.05 1.17.17.14.02.76.11 1.43.2.63.09.78.11 1.29.19 2.46.35 4.6.65 3.26.47.06.01.84.11h.01l.66.09.11.02.09-.16v-.01l-.29-.73-.52-1.29-.79-2-.31.63-1.23-.17-.49-.07-2.57-.37-1.6-.22-2.09-.3-2.46-.35-1.85-.26-.1-.01-.53-.08.32-.66.94-1.93.18-.37 4.41-9.09 1.71-3.53 1.71-3.52.45-.93 11.16 5.77-5.61 11.35-.01.01-.84 1.68h.01l1.84-.11 1.86-.12.83-1.69h.01l3.97-8.02 1.48-2.99.46-.94.3-.6-.95-.49Z"/><path fill="#232f3e" d="m51.023 32.412-15.682 4.927.635-26.272 15.705.518-.658 20.827z"/><path fill="#435770" d="m43.28 33.135-1.34.43-.221.06-.74.23-1.7.54-.08.03-1.78.56.72.65.66.61.93-.29.76-.24.09-.02.81-.26.02-.03.79-.43-.45-.42.87-.8.66-.62Zm8.99-23.17-1.751-.05-16.1-.54-.1 4.3-.05 1.79-.04 1.8-.25 10.18-.05 2.15-.04 1.9-.01.24-.06 2.35-.09 3.66-.04 1.69v.13l.2-.06.98-.31 1.75-.55.89-.28.17-.05.12-.04.79-.25 1.67-.52.31-.1.73-.23 1.27-.4 2.34-.73 4.3-1.35 3.37-1.06v-.11l.06-1.65.07-2.39.15-4.83.42-13.1.05-1.55-1.06-.04Zm-2.59 14.18-.11 3.54-.11 3.51-.51.16-2.04.64-1.421.45-.12.04h-.03l-2.06.65-1.34.43-.22.06-.74.23-1.7.54-.08.03-1.78.56-.43.13.01-.52.05-2.14.06-2.15.04-1.78.26-10.91.09-3.56.03-1.3 1.35.04 10.07.33 1.08.04-.05 1.51-.12 3.93-.18 5.54Z"/><path fill="#232f3e" d="M45.653 33.156 33.475 44.401 23.194 20.315l14.45-6.318 8.01 19.16z"/><path fill="#435770" d="m41.75 34.555-1.2 1.11-.061.05-1.53 1.42-1.19 1.09-.09.09-.53.49-.26.24-1.12 1.04-1.39 1.28.29.09 1.5.46.47.15.02.62.82-1.98.08-.07-.04-.01.62-1.51.14.04-.09-.17.4-.96 1.67-.52.77-1.41-.45-.4.81-.26.02-.03.79-.43-.45-.42Zm5.79-1.05-.321-.75-.31-.76-.42-.99-.69-1.65-.53-1.29-.06-.12-.77-1.86-.82-1.96-4.74-11.33-.39-.94-2.56 1.12-1.61.7-13.24 5.79 1.68 3.94.71 1.65.7 1.64 3.98 9.33.84 1.96.84 1.97 1.67 3.91.15.34.15.36.39.9.66 1.55.05.12.16-.15 1.77-1.63.35-.33.83-.76.69-.64 1.55-1.43.55-.51 1-.92 1.82-1.68 3.29-3.04 1.84-1.7.82-.76-.03-.08Zm-15.37 3.76-4.97-11.65-1.39-3.24-.51-1.2 1.24-.54 7.69-3.37 1.62-.7.95-.42.61 1.47 4.34 10.36.82 1.97.25.6.24.57.35.84.109.28.21.49-.45.41-.66.62-.87.8-1.2 1.11-.06.05-1.53 1.42-1.19 1.09-.09.09-.53.49-.26.24-1.12 1.04-1.39 1.28-.33.3-.2-.46-.26-.62-.58-1.36-.84-1.96Z"/><path fill="#232f3e" d="M41.093 36.153 34.7 51.607 15.43 34.222 25.916 22.25l15.177 13.903z"/><path fill="#435770" d="m40.58 35.695-.091.02-.76.24-.93.29.36.33.02.02-.22.54-.37.89 1.67-.52.77-1.41-.45-.4Zm-2.44 3.42.14.04-.09-.17-.05.13Zm-.66 1.59.08-.07-.041-.01-.04.08Zm-.741 4.1-1.01.14-.73 1.76-.68 1.65-.05.11.25-.03 1.59-.24.69-1.67.04-.09h-.04l-.06-1.63Zm-.08-2.12-.65 1.58.69-.64-.04-.94Zm6.29-7.03-.58-.53-.17-.15-.45-.42-.4-.36-.37-.34-.43-.4-.22-.2-.79-.72-2.43-2.23-.63-.57-.93-.86-1.57-1.43-7.44-6.81-.75-.69-1.85 2.12-1.18 1.34-2.05 2.34-6.23 7.11-1.31 1.5.26.24 2.89 2.6 1.32 1.19.36.33.96.86 7.46 6.74 1.57 1.42 1.58 1.42 1.26 1.13 1.78 1.62 1.37 1.23 1.24 1.12.09.08.08-.2.76-1.84.36-.86.43-1.04.36-.88.36-.86.46-1.11.29-.71.52-1.26.96-2.31 1.73-4.18.95-2.31.44-1.06-.06-.06Zm-9.72 12.45-1.08-.98-1.4-1.26-.04-.04-.14-.12-9.31-8.41-2.44-2.19s.01 0 0-.01l-.16-.15-.96-.86.72-.83.17-.19 5.58-6.37 1.17-1.34.7-.8 1.16 1.06 6.51 5.97.17.15 3.12 2.86.42.39.72.65.66.61.36.33.02.02-.22.54-.37.89-.4.96-.05.13-.62 1.51-.04.08-.82 1.98-.65 1.58-.28.68-.73 1.76-.68 1.65-.05.11-.17.42-.38-.34-.49-.44Z"/><path fill="#232f3e" d="m38.2 40.839.593 16.768-24.65-7.427L18.7 34.798l19.5 6.04z"/><path fill="#435770" d="M40.21 52.455v-.14l-.18-.01-.87-.69-.57.38-.06-1.9-.05-1.44h-.82l.46-1.11-.611-1.21-.67.1h-.04v.09l.08 2.12v.01l.06 1.74.03.74.04 1.17.03.73.06 1.91.02.45-.48-.14-2.01-.61-2.01-.61-11.92-3.59-2.13-.64c-.27.45-.61.86-.97 1.23.53.04 1.07.1 1.63.2.03 0 .06.01.09.02.31.05.63.11.96.18.21.05.41.09.62.15.42.1.85.22 1.28.36.1.03.2.06.3.1.97.32 1.97.73 2.98 1.24v2.01l3.63 1.09 4.04 1.22 1.75-1.18 3.91 1.18-.13-3.7.42-.28.47.37.74.59-.08-2.13Zm.25 7.14-.1-2.93-.04-1.12-.03-.96-.08-2.13v-.14l-.03-.63-.04-1.36-.06-1.66-.03-.85-.16-4.55-.09-2.5-.041-1.15-.09-.03-.47-.14-.26-.08-.66-.21-.14-.04-.99-.31-.03-.01-.5-.15-.97-.3-1.92-.6-1.56-.48-2-.62-2.02-.62-9.56-2.96-.96-.3-.17.58-.63 2.14-.51 1.71-1.48 5-.56 1.89-2.11 7.13-.02.07 3.72 1.12.31.09 1.68.51 1.69.51 2.77.83 2.24.68.9.27 3.63 1.09 4.04 1.22 5.63 1.7 1.59.47.12.04-.01-.22Zm-19.76-9.15-2.13-.64-1.21-.36-1.22-.37.39-1.31 1.79-6.03.64-2.16.5-1.71.31-1.03 1.489.46 8.57 2.66 2.02.62 1.36.43.64.2.53.16.29.09 1.5.46.47.15.02.62.04.94.04 1.18.06 1.63v.09l.08 2.12v.01l.06 1.74.03.74.04 1.17.03.73.06 1.91.02.45-.48-.14-2.01-.61-2.01-.61-11.92-3.59Z"/><path fill="#232f3e" d="m44.98 61.275-1.34.21-1.59.24-1.1.17-2.08.32-2.08.33-11.33 1.75-.57.09-1.74.27-1.32.2-.42.06-1.84.29-.061-.4-.07-.51-.95-6.82-.63-4.47-.25-1.78-.02-.18-.01-.02-.22-1.58-.02-.15 1.65-.24 9-1.32 2.08-.31.16-.02 1.14-.17.78-.11.43-.07.27-.04.21-.03 1.59-.23.35-.05 1.8-.27h.04l.67-.1.61 1.21.34.69.21.42.5 1.01 1.01 2.02.32.63.3.61.83 1.65.45.89.4.81.05.1.8 1.6.19.37 1.46 2.93z"/><path fill="#435770" d="m41.63 54.575-.83-1.65-.59-.47v-.14l-.18-.01-.87-.69-.57.38-.06-1.9-.05-1.44h-.82l.46-1.11-.611-1.21-.67.1-.04.09-.69 1.67.5-.07.26.52.01.01.42.86.53 1.04.73 1.46.04.08.1.21.85 1.69.77 1.55.33.65.85 1.7.56 1.13.01-2.07v-.94l.01-.55-.45-.89Zm5.69 7.77-1.311-2.6-.49-.99-.43-.86-.95-1.9-.34-.69-.27-.53-.34-.68-1.11-2.22-1.61-3.21-.42-.85-1.63-3.26-.09.01-.77.12-.82.12-1.01.14-.55.08-.31.05-2.68.39-.39.06-.92.13-.1.02-.21.03-2.08.3-2.07.31-6.89 1.01-3 .44-.99.14.39 2.82.04.22v.01l.18 1.28.03.26.69 4.89.93 6.68c.53.06 1.08.13 1.64.23l.07.51-.51.99-.33 1.2.08-.01 1.74-.27 1.88-.29 1.74-.27.78-.12.57-.09.39-.06 9.84-1.52 2.07-.32 2.08-.32 2.2-.34 2.34-.36 1.27-.2 1.64-.25.13-.02-.1-.21Zm-5.27-2.26-2.07.32-2.08.32-12.27 1.89-.17.02-3.28.51-1.25.19-.14-1-.051-.37-.69-4.9-.5-3.55-.25-1.78-.07-.5-.08-.56 1.55-.23 8.87-1.29.75-.11 1.33-.19 2.07-.31.55-.08.25-.03 1.59-.24.5-.07.26.52.01.01.42.86.53 1.04.73 1.46.04.08.1.21.85 1.69.77 1.55.33.65.85 1.7.56 1.13.29.57.2.41-.49.07v.01h-.01Z"/><path fill="#232f3e" d="M39.161 51.617 52.105 61.93 30.696 76.468l-8.593-13.457L39.16 51.617z"/><path fill="#435770" d="m47.87 58.545-.111-.02-.21 1.85 1.47 1.17.22-1.9-1.37-1.1Zm-3.7-.86 1.349 1.07-.43-.86-.92-.21Zm-1.71-1.37.07.06-.05-.1-.02.04Zm12.21 5.59-.42-.34-1.83-1.46-.88-.7-.74-.59-1.65-1.31-.6-.48-1.05-.83-1.93-1.54-2.03-1.62-1.46-1.16-1.94-1.55-.901-.71-.07.05-.64.43-.7.46-.86.58-.46.3-1.29.86-1.24.84-1.36.9-1.77 1.18-1.76 1.17-3.63 2.43-4.36 2.91-.36.24-.85.57.44.69.94 1.47.14.22.96 1.51 1.31 2.05.04.05 6.52 10.22 3.5-2.38 1.47-1 1.46-.99.92-.62 7.37-5.01.66-.44 1.08-.74 1.75-1.19 2.43-1.65 1.61-1.09.87-.59 1.38-.94.1-.07-.17-.13Zm-5.72.2-1.75 1.19-1.39.95-.35.24-2.76 1.87-7.58 5.15-1.651 1.11-1.25.85-1.07.73-.73-1.15-1.27-1.98-3.3-5.18-.39-.61-.57-.89-.57-.9 1.14-.76.17-.11 7.5-5.01 1.75-1.18 1.76-1.17.46-.31 1.56-1.04.42-.28.47.37.74.59.9.72.88.71.39.3.07.06.99.79.65.52 1.35 1.07.56.45 1.47 1.17 1.47 1.17.35.28-.42.28Z"/><path fill="#232f3e" d="m42.837 55.69 15.995 3.751-13.396 22.43-13.349-8.482 10.75-17.7z"/><path fill="#435770" d="m50.8 58.815-.92.2 1.66.39-.74-.59Zm-8.27-2.44-.05-.1-.02.04-.39-.3v.94l-.01 2.07.29.57.98-1.62.189-.31.07-.12.58.14-.65-.52-.99-.79Zm18.61 1.93-2.79-.65-.75-.18-.32-.07-.92-.22-.21-.05-1.82-.43-.74-.17-1.29-.3-2.4-.57-4.33-1.01-2.04-.48-.34-.08-1.11-.26-.04.07-.41.67-.44.73-.54.89-.29.47-1.601 2.64-.86 1.42-1.11 1.82-1.1 1.82-4.53 7.46-.74 1.22-.53.87 2.36 1.5 1.49.95 1.72 1.09 3.68 2.34 1.43.9.2.13 4.36 2.77.83.53 2.19-3.67.92-1.53.27-.47.64-1.06 1.33-2.23 3.86-6.46 1.1-1.84 1.09-1.83 3.06-5.13.87-1.44.06-.11-.21-.05Zm-9.52 10.07-4.04 6.76-.19.33-1.81 3.03-.67 1.12-1.141-.73-7.1-4.51-1.5-.95-.85-.54-.03-.02.83-1.36 4.72-7.78 1.11-1.83 1.1-1.81.01-.01.29-.48.98-1.62.19-.31.07-.12.58.14.92.21 1.11.26 1.56.37.11.02 2.01.47 1.66.39.71.17 1.81.42 1.82.43.26.06.17.04-.17.28-.09.16-.04.07-1.05 1.75-1.1 1.84-.05.09h-.01l-.39.67-1.79 2.99Z"/><path fill="#232f3e" d="M47.853 57.792 63.9 54.28l-2.872 26.117-15.603-1.918 2.43-20.687z"/><path fill="#435770" d="m60.35 55.055-1.72.38-.1.02-.92.2-.01.57-.32.25-.92.71-.21-.05v.21l-.55.42.55-.12 1.13-.24.32-.07.38-.09 1.82-.4 1.83-.4-1.28-1.39Zm-11.111 4.59.06-.5.58-.13-2.01-.47 1.37 1.1Zm16.29-7.39-2.81.61-1.07.24-.92.2-2.03.44-.75.16-.34.08-.96.21-.49.1-1.9.42-4.36.95-2.4.53-1.1.24-.01.08-.09.78-.1.86-.12 1.05-.07.54-.36 3.08-.14 1.24-.05.42-.25 2.13-.18 1.55-.07.58-.72 6.14-.47 4-.12 1.02 2.32.29.44.05 1.74.21.63.08 1.19.15 3.07.37 2.79.35 2.63.32 2.59.32 1.39.17.4-3.63.07-.64.2-1.79.19-1.78.1-.91 1.01-9.2.24-2.13.23-2.13.66-5.99.19-1.68.01-.13-.21.05ZM62 56.865l-.23 2.13-.23 2.13-1.39 12.62-.05.46-.34 3.07-.04.35-.1.95-1.35-.16-.47-.06-7.82-.96-1.74-.21-1.04-.13.19-1.59.04-.33.79-6.77.23-1.99.2-1.66.05-.48.25-2.13.07-.56.22-1.9.06-.5.58-.13.92-.2 1.13-.24 1.57-.35.08-.02 2.02-.44.55-.12 1.13-.24.32-.07.38-.09 1.82-.4 1.83-.4.43-.09-.06.51Z"/><path fill="#232f3e" d="m53.27 57.53 13.088-10.12 8.192 24.912-14.935 5.006-6.346-19.799z"/><path fill="#435770" d="m61.56 52.385-.301-.12-.06.12-1.27-.01-.88.68-.35.69-.75.16-.34.27v1.48l-.01.57.96-.74.07-.05 1.66-1.29 1.36-1.04.57-.45.35-.27h-1.01Zm-5.41 4.96.21-.16-.21-.05v.21Zm-1.01.78.46-.36-2.02.44-.08.02.56 1.77 1.82.43-.58-1.81-.16-.49Zm20.099 11.16-.09-.27-.47-1.43-.56-1.7-3.17-9.65-.67-2.04-.67-2.03-1.26-3.84-.21-.63-.09-.29-.31-.94-.09-.26-.41-1.24-.03-.1-.04-.13-.18.14-.19.15-2.09 1.62-.88.67-.74.58-1.1.85-.57.44-.6.46-1.06.82-1.96 1.51-.18.14-.33.25-1.12.88-1.91 1.47-1.96 1.52-.9.69.03.09.24.75.26.81.32 1 .17.53.81 2.53.13.41.5 1.58.03.08.23.73.4 1.23.2.62.45 1.42 1.92 6 1.09 3.42.09.29.32.98 2.65-.89 1.14-.38.53-.18 13.67-4.58-1.34-4.08Zm-14.6 5.98-.35-1.1-.14-.42-2.79-8.71-.57-1.76-.07-.23-.01-.04-.57-1.76-.06-.18-.03-.1-.17-.54-.58-1.81-.16-.49.46-.36.55-.42.21-.16.92-.71.32-.25.96-.74.07-.05 1.66-1.29 1.36-1.04.57-.45.35-.27 1.14-.88 1.49-1.15.35-.27.16.48.39 1.2.28.83.67 2.04 3.96 12.05 1.1 3.36.12.35.29.89-1.28.43-7.94 2.66-1.67.56-.99.33Z"/><path fill="#232f3e" d="m58.066 54.95 7.683-14.827 17.717 19.036L72 70.151 58.066 54.95z"/><path fill="#435770" d="m63.09 47.895-.04.85h-1.061l-.57.44-.07 1.35.63.26-1.49 1.15.77.32.76-1.46.03-.06.99-1.91.05-.09.74-1.43-.74.58Zm-4.04 5.16-.35.69-.75.16-.34.27v1.48l.92-.2.1-.02 1.72-.38-.341-.37.28-.54.44-.84.47-.92-1.27-.01-.88.68Zm26.63 6.12-2.4-2.59-.44-.47-1.21-1.3-1.22-1.3-1.74-1.87v-.01l-5.12-5.5-1.44-1.55-1.45-1.56-3.72-3.99-.75-.81-.35-.38-.46-.49-.28.54-.58 1.12-1.1 2.12-.05.1-.22.43-.09.17-.08.14-.98 1.89-.35.69-.63 1.2-1.14 2.21-.4.77-1.68 3.24-.18.35-.03.05-.94 1.82-.49.94-.04.08.04.04.02.02.52.58.58.62.32.36.38.41.37.41 2.07 2.25 1.12 1.22 1.429 1.57 1.44 1.57 6.23 6.8.6.65.69.75 2.03-1.94 1.28-1.24.74-.7.12-.12 4.06-3.9.31-.29 5.21-5 .05-.05-.05-.05Zm-11.56 6.71-1.28 1.23-.77.73-1.061-1.16-6.13-6.68-2.88-3.14-.37-.42-1.28-1.39-.34-.37.28-.54.44-.84.47-.92.06-.12.76-1.46.03-.06.99-1.91.05-.09.74-1.43.33-.64.88-1.69.62-1.21.25-.48.21-.4.34.37 1.45 1.56.78.83.51.55.16.17 5.99 6.43v.01l2.57 2.75 1.71 1.84.69.74.88.95-.98.94-1.6 1.53-4.28 4.1-.22.22Z"/><path fill="#232f3e" d="m61.35 50.54.834-16.76 23.924 9.597-5.848 14.917-18.91-7.754z"/><path fill="#435770" d="m63.469 49.645-.46-.19.03-.62.01-.09h-1.06l-.57.44-.07 1.35.63.26-1.49 1.15.77.32.3.12h1.01l1.14-.88 1.49-1.15-1.73-.71Zm-.32-2.92.08-1.64v-.1l.11-2.12.05-1.06v-.09l.02-.42.01-.16.06-1.2.11-2.26-.31.28-1.27-.75-.09 1.83-.01.24-.02.34v.08l-.06 1.18-.11 2.27.28.72-.35.69-.12 2.27.78-.05.84-.05Zm21.13-5.84-1.63-.65-1.64-.66-.87-.35-9.24-3.71-1.67-.67-1.68-.67-4.27-1.71-.15-.06-2.14-.87h-.01l-.28-.11-.04.75v.02l-.04.76-.13 2.75-.02.29-.01.29-.08 1.66-.01.17-.01.2-.06 1.25-.02.39-.17 3.49-.23 4.52-.04.77-.08 1.73-.06 1.16.08.03.71.29.77.32.3.12.66.27.5.21 2.82 1.15 1.51.62 3.9 1.6 3.39 1.39 1.93.79.91.37 3.04 1.25.93.38 1.03-2.64.36-.9.3-.76 1.06-2.72.96-2.44v-.01l1.02-2.58c-.01 0 0-.01 0-.01l1.91-4.88.4-1.02-3.91-1.57Zm-3.18 10.87-.69 1.76-.65 1.66-.39.99-1.45-.6-3.04-1.24-.54-.22-4.73-1.94-1.95-.8-.71-.3-1.24-.5-.51-.21-1.73-.71-.46-.19.03-.62.01-.09.04-.85.06-1.17.08-1.64v-.1l.11-2.12.05-1.06v-.09l.02-.42.01-.16.06-1.2.11-2.26.07-1.37.01-.17 1.15.46 1.67.67.84.34.84.33 10.57 4.24.87.35 3.23 1.29.86.35.33.13-.05.14-.45 1.14-2.18 5.54v.01l-.25.63Z"/><path fill="#232f3e" d="m62.137 29.2-.835 1.687-1.514 3.055-.45.918-.5 1.025-1.598-4.026 1.19-2.424 3.707-.235z"/><path fill="#232f3e" d="m56.331 29.574 2.1-.14-1.191 2.425-.909-2.285zM82.845 43.98l-20.342 1.143-3.666-9.238.502-1.025.449-.918 1.514-3.055.835-1.687 19.841-1.27.867 16.05z"/><path fill="#435770" d="M78.38 28.895a5.88 5.88 0 0 1-.34-.72l-1.39.09-1.99 1.77 2.63-.17 1.62-.11c-.2-.28-.37-.57-.53-.86Zm-14.32 14.5-.5.03-.22-.56-.36-.89-.211-.54-.19-.46-.42-1.07-.25-.63-.13-.32-.98-2.47-.22-.55-.09-.23-.02.29-.01.29-.08 1.66-.01.17-.01.2.7.38.7.78.13.22-.06 1.18-.11 2.27.28.72-.35.69-.12 2.27.78-.05.84-.05 1.01-.05.88-1.69.62-1.21.25-.48-.65.03-1.2.07Zm20.44 1.65-.12-2.26v-.11l-.1-1.79-.35-6.57-.08-1.38-.361-6.74-2.48.16-2.37.15-1.21.08-1.43.09-13.02.84h-.01l-1.79.12h-.06l-1.84.11-.01.01-.83 1.68-.36.72-.84 1.7-.31.63-1.23-.17.32.82.37.94.68 1.74.01.01v.01l.17.43.98 2.47 1.88 4.71.91 2.31.43 1.07h.08l.78-.05.84-.05 1.01-.05.55-.03.67-.04 2.36-.14h.03l1.35-.08h.01l.23-.01 2.1-.12 2.09-.12 4.68-.26 5.3-.3 1-.06-.03-.47Zm-15.15-1.95-.79.05-2.1.12-.55.03-.651.03-1.2.07-.5.03-.22-.56-.36-.89-.21-.54-.19-.46-.42-1.07-.25-.63-.13-.32-.98-2.47-.22-.55-.09-.23-.7-1.75v-.01l.61-1.24.26-.51v-.02l.32-.64.32-.65h.01l10.71-.68 2.64-.17 2.63-.17 1.62-.11 1.57-.1.1 1.92.1 1.8.33 6.2.05 1.03.04.76.06 1.03v.04l-1.55.09-.98.05-7.97.45-1.31.07Z"/><path fill="#232f3e" d="M78.856 26.317 63.463 39.954l-7.121-4.229.772.107.01-.01.847.117h.01l.773.107.585-1.186 7.612-15.368 1.943-3.93.292-.598-.95-.491.334-.31 10.286 12.154z"/><path fill="#435770" d="m81.009 26.355-1.28-1.51-11-12.99-2.03 1.82-.45.4 1.3.68-2.24 4.52 3.1-2.79.02.02 8.17 9.64-.6.53-1.99 1.76-1.99 1.77-4.47 3.97-1.37 1.21-.53.47-.83.74-.5.44-.73.64-.31.28-1.27-.75-1.21-.72-.34-.2-.25-.15-1.16-.69-.5-.3-.85-.5-.11.22-.46.96-.01.01-.04-.01-.74-.1-4.17-.6 6.06 3.61 2.05 1.22.22.13 1.33.79.94.56.1.06.28.17.2.12.04.02.25.15.21-.18 2.64-2.35.45-.39 1.23-1.1 1.37-1.21 1.36-1.21 6.39-5.65 1.09-.97.9-.8 1.83-1.62-.1-.12Z"/><path fill="#f19c38" d="M52.606 28.72a4.192 4.192 0 0 0-6.206-.023l-14.792 16.08c-2.51 2.728-.606 7.17 3.078 7.183l7.692.028-.04 11.749c-.009 2.36 1.876 4.279 4.209 4.287l5.632.02c2.333.008 4.231-1.898 4.24-4.257l.04-11.75 7.699.028c3.683.013 5.617-4.415 3.128-7.16L52.606 28.72Z"/><path fill="#f19c38" d="m30.72 46.2 1.565-3.884 3.08.888-.472 3.577-1.722 1.242-2.45-1.823zm37.326 3.287 1.55-3.868-2.266-1.084-2.685 2.808.166 1.899 3.235.245zM56.164 65.243l1.55-3.868-2.266-1.083-2.686 2.807.167 1.9 3.235.244z"/><path fill="#ffc400" fill-rule="evenodd" d="M54.071 25.078a4.192 4.192 0 0 0-6.206-.022l-14.792 16.08c-2.51 2.728-.606 7.17 3.078 7.183l7.693.027-.041 11.75c-.009 2.359 1.876 4.278 4.21 4.287l5.632.02c2.333.008 4.23-1.898 4.239-4.257l.04-11.75 7.699.028c3.683.013 5.618-4.415 3.128-7.16L54.07 25.078Z"/><path fill="#ffc400" d="M19.529 48.979c-1.75 3.408-6.232 4.554-6.232 4.554s-1.646-4.376.098-7.785c1.75-3.408 6.23-4.555 6.23-4.555s1.649 4.377-.096 7.786Z"/><path fill="#f19c38" d="M8.753 47.218c3.384 1.786 4.544 6.315 4.544 6.315s-4.324 1.638-7.71-.144c-3.384-1.786-4.549-6.317-4.549-6.317s4.327-1.638 7.715.146Z"/><path fill="#ffc400" d="M17.397 40.396c-2.567 2.83-7.194 2.765-7.194 2.765s-.474-4.65 2.091-7.482c2.562-2.83 7.191-2.764 7.191-2.764s.473 4.65-2.088 7.481Z"/><path fill="#f19c38" d="M7.422 35.883c2.818 2.606 2.781 7.278 2.781 7.278s-4.605.45-7.424-2.154C-.038 38.4 0 33.729 0 33.729s4.604-.452 7.422 2.154Z"/><path fill="#ffc400" d="M17.532 31.562c-3.207 2.058-7.665.789-7.665.789s.732-4.61 3.939-6.671c3.203-2.06 7.666-.787 7.666-.787s-.735 4.61-3.94 6.67Z"/><path fill="#f19c38" d="M9.04 24.602c2.06 3.25.827 7.749.827 7.749s-4.57-.772-6.63-4.021c-2.056-3.25-.825-7.746-.825-7.746s4.57.77 6.628 4.018Z"/><path fill="#ffc400" d="M17.821 19.567c-1.699 3.434-6.164 4.647-6.164 4.647s-1.709-4.354-.012-7.788c1.7-3.432 6.164-4.643 6.164-4.643s1.708 4.351.012 7.784Zm61.868 29.412c1.75 3.408 6.231 4.554 6.231 4.554s1.647-4.376-.098-7.785c-1.75-3.408-6.23-4.555-6.23-4.555s-1.648 4.377.097 7.786Z"/><path fill="#f19c38" d="M90.465 47.218c-3.384 1.786-4.545 6.315-4.545 6.315s4.325 1.638 7.71-.144c3.384-1.786 4.55-6.317 4.55-6.317s-4.328-1.638-7.715.146Z"/><path fill="#ffc400" d="M81.821 40.396c2.566 2.83 7.194 2.765 7.194 2.765s.474-4.65-2.091-7.482c-2.562-2.83-7.191-2.764-7.191-2.764s-.473 4.65 2.088 7.481Z"/><path fill="#f19c38" d="M91.796 35.883c-2.818 2.606-2.781 7.278-2.781 7.278s4.604.45 7.423-2.154c2.818-2.607 2.78-7.278 2.78-7.278s-4.605-.452-7.422 2.154Z"/><path fill="#ffc400" d="M81.685 31.562c3.208 2.058 7.666.789 7.666.789s-.733-4.61-3.94-6.671c-3.202-2.06-7.666-.787-7.666-.787s.736 4.61 3.94 6.67Z"/><path fill="#f19c38" d="M90.178 24.602c-2.06 3.25-.827 7.749-.827 7.749s4.57-.772 6.63-4.021c2.056-3.25.825-7.746.825-7.746s-4.57.77-6.628 4.018Z"/><path fill="#ffc400" d="M81.396 19.567c1.7 3.434 6.164 4.647 6.164 4.647s1.71-4.354.012-7.788c-1.699-3.432-6.163-4.643-6.163-4.643s-1.709 4.351-.013 7.784Z"/><path fill="#fff" d="m42.065 29.889 4.737 2.59-4.737 2.593-2.593 4.737-2.592-4.737-4.737-2.593 4.737-2.59 2.592-4.738 2.593 4.738zm23.513 5.237 3.165 1.73-3.165 1.733-1.732 3.164-1.732-3.164-3.164-1.732 3.164-1.73 1.732-3.166 1.732 3.165z"/><path fill="#90291a" d="m84.773 78.372-10.015-12.25V52.976l6.522 12.63 3.493 12.766Zm-59.36-25.395V66.12l-.707.868-1.09 1.322-.01.03-8.208 10.035 1.363-4.977c.01-.04.03-.08.04-.13l1.757-6.452.334-1.211.514-1 .243-.454.585-1.14.464-.899.313-.616 3.493-6.764.768-1.484.141-.272Z"/><path fill="#c13e28" d="M.87 57.538a146.787 146.787 0 0 1 13.092-2.092V68.62c-4.195.525-8.372 1.25-12.515 2.174-.764.17-1.352-.669-.933-1.33l3.87-6.104L.4 58.991a.88.88 0 0 1 .47-1.453Z"/><path fill="url(#a)" d="M13.962 55.446c-1.48.168-2.956.36-4.43.574L9.19 69.306c1.587-.257 3.178-.486 4.771-.685V55.446Z" opacity=".5"/><path fill="#d54831" d="M86.098 83.069c-1.164-6.08-3.654-11.384-4.818-17.463-9.71 6.23-20.453 9.502-31.195 9.488-10.743.014-21.485-3.257-31.195-9.488-1.165 6.08-3.7 11.383-4.864 17.463 10.883 6.537 24.156 10.729 36.059 10.716 11.903.013 25.13-4.179 36.013-10.716Z"/><path fill="#90291a" d="M8.587 64.892s2.073 3.091 5.375 3.729v-6.03l-5.375 2.301Z"/><path fill="#d54831" d="M25.413 52.977V66.12a7.54 7.54 0 0 0-.575-.273 15.955 15.955 0 0 0-1.212-.535 21.952 21.952 0 0 0-1.878-.656c-.191-.06-.383-.111-.565-.162a18.338 18.338 0 0 0-1.534-.343 1.693 1.693 0 0 0-.313-.06 25.836 25.836 0 0 0-1.656-.232 20.928 20.928 0 0 0-3.715-.04c-2.13.14-3.776.554-4.654.827-.273.08-.475.151-.596.192-.09.03-.13.05-.13.05V51.745s1.07-.424 2.846-.757a5.7 5.7 0 0 1 .434-.07c.04-.01.08-.02.131-.03 1-.152 2.191-.274 3.524-.274.1 0 .212 0 .312.01a.833.833 0 0 1 .223 0c.181 0 .373.01.555.02h.03l.535.031c.091.01.192.01.283.02q.01 0 .02.01c.535.04 1.08.101 1.646.202.03 0 .06.01.09.02.313.05.637.111.97.182.211.05.414.091.626.152.423.1.858.222 1.292.363.1.03.202.06.303.101.979.323 1.988.737 3.008 1.252Z"/><path fill="#c13e28" d="M99.299 57.538a146.781 146.781 0 0 0-13.092-2.092V68.62c4.195.525 8.372 1.25 12.515 2.174.764.17 1.352-.669.934-1.33l-3.871-6.104 3.985-4.37a.88.88 0 0 0-.471-1.453Z"/><path fill="url(#b)" d="M93.22 56.417c-2.33-.38-4.67-.705-7.013-.971V68.62c2.662.333 5.316.747 7.958 1.24l-.944-13.444Z" opacity=".5"/><path fill="#90291a" d="M91.582 64.892s-2.073 3.091-5.375 3.729v-6.03l5.375 2.301Z"/><path fill="#d54831" d="M74.758 66.122c8.795-4.476 16.824-1.23 16.824-1.23V51.748s-8.03-3.247-16.824 1.23v13.145ZM22.403 51.718c-7.535-2.51-13.816.029-13.816.029v6.479s3.834-1.55 9.104-1.03c2.528.248 4.712-1.761 4.712-4.301v-1.177Z"/><path fill="#d54831" d="M87.128 50.747c-3.156-.35-7.652-.172-12.37 2.23v6.052a21.598 21.598 0 0 1 7.26-2.21 5.791 5.791 0 0 0 5.11-5.748v-.324Z"/><path fill="#fff" d="M43.196 83.554a4.15 4.15 0 0 0-1.39-1.47c-.59-.39-1.28-.64-2.07-.76-.68-.1-1.32-.05-1.93.15.09-.92.13-1.38.22-2.31.71.13 1.22.22 1.77.3.37.06.76.11 1.25.18.07.29.11.46.18.72 0 .03.01.07.02.11.06.01.12.02.18.02.64.09 1.01.13 1.71.2v-2.71c-1.29-.13-2.28-.24-3.25-.39-1.14-.17-2.24-.38-3.75-.69 0 .07-.01.15-.02.22-.14 2.08-.22 3.18-.36 5.34.77.55 1.16.82 1.94 1.35.43-.52.96-.72 1.59-.62 1.07.17 1.61.86 1.61 2.11 0 .57-.14.98-.43 1.24-.28.27-.7.36-1.24.27-.91-.14-1.45-.78-1.62-1.89-.94-.06-1.41-.1-2.35-.19.14 1.04.57 1.93 1.3 2.65.73.71 1.67 1.18 2.84 1.36.86.14 1.62.08 2.26-.14a2.86 2.86 0 0 0 1.5-1.18c.36-.56.53-1.22.53-1.99 0-.66-.16-1.29-.49-1.88Zm10.5-2.83a4.25 4.25 0 0 0-.63-1.22c-.16-.22-.34-.41-.54-.57-.65-.54-1.49-.8-2.53-.81h-.05c-.62 0-1.17.09-1.65.29-.17.06-.33.14-.47.23-.38.22-.71.52-.99.9-.07.1-.14.21-.21.32-.27.46-.48 1-.62 1.62-.13.53-.2 1.12-.22 1.78-.01.15-.01.3-.01.45 0 1.87.36 3.32 1.07 4.32.72 1.01 1.75 1.54 3.1 1.53 1.35 0 2.38-.52 3.1-1.53.71-1.01 1.07-2.46 1.07-4.33 0-1.18-.14-2.17-.42-2.98Zm-2.7 5.96c-.21.63-.56.94-1.03.94-.48 0-.83-.31-1.05-.93-.22-.63-.33-1.58-.33-2.87 0-1.26.11-2.21.33-2.84.13-.37.3-.63.52-.78.16-.11.33-.16.53-.16.26 0 .49.1.66.31.47.52.7 1.67.7 3.47 0 1.29-.11 2.24-.33 2.86Zm12.5-8.429a.176.176 0 0 0-.05-.07 2.14 2.14 0 0 0-.41-.39c-.3-.24-.65-.4-1.05-.48-.47-.11-1.01-.11-1.61-.02h-.01c-.57.09-1.08.26-1.53.5-.13.06-.26.14-.38.23-.46.29-.85.69-1.17 1.18-.06.1-.12.19-.18.3-.27.46-.47.99-.62 1.57-.17.73-.26 1.55-.26 2.46 0 1.87.35 3.27 1.06 4.16.71.9 1.74 1.26 3.08 1.05 1.34-.22 2.36-.9 3.06-2.02.71-1.12 1.06-2.63 1.06-4.5 0-1.82-.33-3.14-.99-3.97Zm-2.09 7.44c-.21.66-.55 1.03-1.02 1.1-.47.07-.82-.18-1.04-.77-.22-.59-.33-1.53-.33-2.81 0-.7.03-1.31.1-1.82.05-.42.13-.78.23-1.08.07-.2.14-.37.23-.51.21-.34.48-.54.81-.59.46-.08.8.19 1.03.82.15.41.24.97.29 1.68.02.32.03.68.03 1.07 0 1.28-.11 2.26-.33 2.91Z"/></svg>
