<svg data-tags="amazon, achievement" xmlns="http://www.w3.org/2000/svg" data-name="Layer 1" viewBox="0 0 100 100"><path fill="#435770" d="M45.299 53.949V70.89h9.185v-7.756l-9.185-9.186z"/><path fill="#232f3e" d="M54.484 42.516h-9.185V53.95l9.185 9.186v-20.62zM13.017 13.38v-1.923h25.027V36.5h-1.907c-12.749 0-23.12-10.372-23.12-23.122Zm3.908 1.893c.892 9.13 8.175 16.417 17.304 17.319v-17.32H16.925Z"/><path fill="#232f3e" d="M69.232 11.457H49.891v42.809h1.237c9.998 0 18.104-8.105 18.104-18.104v-.363c10.07-2.496 17.57-11.587 17.57-22.42v-1.922h-17.57Zm0 20.402V15.273h13.66c-.768 7.876-6.297 14.369-13.66 16.586Z"/><path fill="#435770" d="M49.89 6.282H30.587v29.88c0 9.999 8.105 18.104 18.104 18.104h1.2v-42.81h19.342V6.283H49.891Z"/><path fill="#232f3e" d="M39.186 69.039h21.398v4.324H39.186z"/><path fill="#435770" d="M39.186 73.364h-4.403V85.33h30.252V73.364H39.186z"/><path fill="#ffc400" d="M19.55 62.671c-2.917 3.135-8.12 3.036-8.12 3.036s-.473-5.179 2.44-8.316c2.917-3.135 8.118-3.036 8.118-3.036s.475 5.18-2.438 8.316Z"/><path fill="#f19c38" d="M8.396 57.592c3.134 2.917 3.035 8.115 3.035 8.115s-5.179.474-8.314-2.44C-.017 60.351.077 55.15.077 55.15s5.182-.473 8.32 2.443Z"/><path fill="#ffc400" d="M19.81 52.841c-3.629 2.272-8.626.832-8.626.832s.88-5.124 4.51-7.4c3.624-2.274 8.623-.832 8.623-.832s-.881 5.124-4.506 7.4Z"/><path fill="#f19c38" d="M10.35 45.047c2.274 3.629.834 8.626.834 8.626s-5.126-.882-7.401-4.509c-2.274-3.629-.832-8.624-.832-8.624s5.126.88 7.4 4.508Z"/><path fill="#ffc400" d="M22.605 43.413c-4.093 1.255-8.546-1.427-8.546-1.427s2.176-4.723 6.27-5.982c4.089-1.259 8.546 1.427 8.546 1.427s-2.18 4.723-6.27 5.982Z"/><path fill="#f19c38" d="M15.485 33.436c1.26 4.094-1.426 8.55-1.426 8.55s-4.722-2.18-5.982-6.274c-1.255-4.091 1.427-8.547 1.427-8.547s4.724 2.18 5.98 6.27Z"/><path fill="#ffc400" d="M26.513 30.642c-2.87 3.176-8.074 3.154-8.074 3.154s-.548-5.173 2.32-8.352c2.87-3.174 8.073-3.15 8.073-3.15s.548 5.17-2.32 8.348ZM80.45 62.671c2.917 3.135 8.12 3.036 8.12 3.036s.473-5.179-2.44-8.316c-2.917-3.135-8.118-3.036-8.118-3.036s-.475 5.18 2.438 8.316Z"/><path fill="#f19c38" d="M91.604 57.592c-3.134 2.917-3.035 8.115-3.035 8.115s5.179.474 8.314-2.44c3.134-2.916 3.04-8.118 3.04-8.118s-5.182-.473-8.32 2.443Z"/><path fill="#ffc400" d="M80.19 52.841c3.629 2.272 8.626.832 8.626.832s-.88-5.124-4.51-7.4c-3.624-2.274-8.623-.832-8.623-.832s.881 5.124 4.506 7.4Z"/><path fill="#f19c38" d="M89.65 45.047c-2.274 3.629-.834 8.626-.834 8.626s5.126-.882 7.401-4.509c2.274-3.629.832-8.624.832-8.624s-5.126.88-7.4 4.508Z"/><path fill="#ffc400" d="M77.395 43.413c4.093 1.255 8.546-1.427 8.546-1.427s-2.176-4.723-6.27-5.982c-4.089-1.259-8.546 1.427-8.546 1.427s2.18 4.723 6.27 5.982Z"/><path fill="#f19c38" d="M84.515 33.436c-1.26 4.094 1.426 8.55 1.426 8.55s4.722-2.18 5.982-6.274c1.255-4.091-1.427-8.547-1.427-8.547s-4.724 2.18-5.98 6.27Z"/><path fill="#ffc400" d="M73.487 30.642c2.87 3.176 8.074 3.154 8.074 3.154s.548-5.173-2.32-8.352c-2.87-3.174-8.073-3.15-8.073-3.15s-.548 5.17 2.32 8.348Z"/><path fill="#c13e28" d="m.65 85.292 8.427-8.425-8.428-8.429h19.399l-.5 16.854H.648z"/><path fill="#90291a" d="m20.048 68.438-6.751 8.429.017 8.425h6.233l.5-16.854z"/><path fill="#c13e28" d="m98.576 85.29-8.425-8.426 8.425-8.426H79.18l.503 16.852h18.894z"/><path fill="#90291a" d="m79.179 68.438 6.751 8.426-.016 8.428-6.232-.002-.503-16.852z"/><path fill="#d54831" d="M13.297 76.867h72.601v16.851H13.297z"/><path fill="#fff" d="m44.675 82.137.671-3.108h1.809l-.651 3.108h1.302v1.829h-1.68l-.51 2.302h2.19v1.821h-2.553l-.671 3.116h-1.788l.65-3.116h-2.78l-.65 3.116h-1.809l.651-3.116h-1.302v-1.821h1.685l.485-2.302h-2.17v-1.83h2.574l.65-3.107h1.81l-.673 3.108h2.76Zm-.848 4.13.47-2.301h-2.759l-.496 2.302h2.785Zm16.954 2.713v2h-5.953v-2h1.607V81.3H54.72v-2h4.557v9.68h1.504Z"/><path fill="#ffc400" d="m50 32.697 13.516-4.391-9.34-1.357L50 32.697z"/><path fill="#f19c38" d="m56.758 34.893 6.758-6.587L50 32.697l6.758 2.196zm-2.582-7.944L50 18.486v14.211l4.176-5.748zM50 39.803l8.353 4.392L50 32.697v7.106z"/><path fill="#ffc400" d="m50 32.697 8.353 11.498-1.595-9.302L50 32.697z"/><path fill="#f19c38" d="m50 32.697-8.353 11.498L50 39.803v-7.106z"/><path fill="#f19c38" d="m50 32.697-13.516-4.391 6.758 6.587L50 32.697z"/><path fill="#ffc400" d="m45.823 26.949-9.339 1.357L50 32.697l-4.177-5.748zm-2.581 7.944-1.595 9.302L50 32.697l-6.758 2.196z"/><path fill="#ffc400" d="M50 32.697v-14.21l-4.177 8.462L50 32.697z"/></svg>
