<svg data-name="Layer 1" data-tags="amazon, achievement" viewBox="0 0 100 100" xmlns="http://www.w3.org/2000/svg"><path fill="#435770" d="M45.462 53.222v16.675h9.04v-7.634l-9.04-9.041z"/><path fill="#232f3e" d="M54.503 41.969h-9.04v11.253l9.04 9.041V41.97zM13.688 13.29v-1.892h24.633v24.65h-1.876c-12.549 0-22.757-10.209-22.757-22.757zm3.847 1.864c.878 8.987 8.046 16.16 17.032 17.046V15.154H17.535z"/><path fill="#232f3e" d="M69.019 11.398H49.982v42.135h1.217c9.842 0 17.82-7.977 17.82-17.818v-.358C78.93 32.9 86.312 23.953 86.312 13.291v-1.893H69.019zm0 20.081V15.154h13.446c-.757 7.753-6.199 14.143-13.446 16.325z"/><path fill="#435770" d="M49.982 6.305H30.98v29.41c0 9.841 7.977 17.818 17.82 17.818h1.18V11.398h19.04V6.305H49.982z"/><path fill="#232f3e" d="M39.446 68.075h21.061v4.256H39.446z"/><path fill="#435770" d="M38.578 72.138h-4.69v12.747h32.224V72.138H38.578z"/><path fill="#d54831" stroke-width="0" d="M87.4 76.885H31.95v-.001H12.6l8.407 8.407-8.406 8.404h18.85v-.001h55.947l-8.403-8.405 8.403-8.404z"/><path fill="#fff" d="M32.507 84.378v-2.215h-1.481v6.298h1.422v1.62H27.1v-1.62h1.448v-6.298H27.1v2.215h-1.62v-3.836h8.634v3.836h-1.608zm2.35.905c0-.966.22-1.819.663-2.557.443-.738 1.067-1.312 1.87-1.726.805-.41 1.73-.616 2.776-.616s1.97.207 2.768.616c.802.414 1.422.99 1.86 1.732.444.743.663 1.593.663 2.551 0 .97-.219 1.827-.662 2.57a4.474 4.474 0 01-1.865 1.728c-.806.41-1.726.614-2.764.614-1.017 0-1.929-.205-2.739-.614a4.597 4.597 0 01-1.89-1.728c-.456-.743-.68-1.6-.68-2.57zm7.942-.012c0-.579-.106-1.106-.317-1.579a2.679 2.679 0 00-.915-1.135c-.397-.278-.865-.42-1.401-.42s-1.005.142-1.401.42c-.397.283-.7.658-.912 1.135-.215.473-.32 1-.32 1.579 0 .607.11 1.154.325 1.637.219.483.523.863.924 1.14.392.276.852.413 1.371.413.536 0 1.004-.137 1.41-.414.4-.276.708-.656.92-1.14s.316-1.029.316-1.636zm12.131-1.697c0 1.038-.324 1.804-.97 2.296-.65.491-1.654.736-3.021.736h-1.004v1.855h1.337v1.62h-5.026v-1.62h1.203v-6.298h-1.203v-1.62h4.642c1.359 0 2.376.248 3.043.744s1 1.258 1 2.287zm-2.62 0c0-.396-.08-.7-.24-.907-.16-.211-.393-.346-.692-.41a5.176 5.176 0 00-1.047-.094h-.396v2.86h.396c.523 0 .933-.052 1.224-.162.287-.105.485-.264.595-.47.105-.207.16-.48.16-.817zm12.964 4.874v1.633h-4.862v-1.633h1.313v-6.273h-1.401v-1.633h3.722v7.906h1.228zm9.246-3.165c0 1.608-.309 2.832-.92 3.667-.613.84-1.495 1.258-2.642 1.258-1.16 0-2.043-.418-2.65-1.258-.612-.835-.916-2.06-.916-3.667 0-1.57.304-2.78.907-3.633.608-.852 1.494-1.279 2.659-1.279 1.173 0 2.063.418 2.662 1.25.6.835.9 2.054.9 3.662zm-4.727 0c0 1.106.093 1.924.283 2.456s.485.798.89.798.7-.266.886-.798.279-1.35.279-2.456c0-2.177-.389-3.266-1.165-3.266-.405 0-.7.272-.89.817s-.283 1.36-.283 2.45zM50 31.388l11.244-3.653-7.77-1.129L50 31.388z"/><path fill="#e8e8e8" d="M55.622 33.215l5.622-5.48L50 31.388l5.622 1.827zm-2.148-6.609L50 19.566v11.822l3.474-4.782zM50 37.3l6.949 3.653-6.95-9.565V37.3z"/><path fill="#fff" d="M50 31.388l6.949 9.565-1.327-7.738L50 31.388z"/><path fill="#e8e8e8" d="M50 31.388l-6.95 9.565L50 37.3v-5.912z"/><path fill="#e8e8e8" d="M50 31.388l-11.244-3.653 5.622 5.48L50 31.388z"/><path fill="#fff" d="M46.525 26.606l-7.769 1.129L50 31.388l-3.475-4.782zm-2.147 6.609l-1.327 7.738L50 31.388l-5.622 1.827zM50 31.388V19.566l-3.475 7.04L50 31.388z"/></svg>
