<svg xmlns="http://www.w3.org/2000/svg" xmlns:xlink="http://www.w3.org/1999/xlink" id="brand_ciscoWebex_clr__a" data-name="Layer 1" data-tags="cisco,webex" viewBox="0 0 14 14"><defs><radialGradient id="brand_ciscoWebex_clr__c" cx="-1296.488" cy="-320.158" r=".2" fx="-1296.488" fy="-320.158" gradientTransform="matrix(7.08 25.23 -19.17014 5.3795 3049.562 34438.935)" gradientUnits="userSpaceOnUse"><stop offset="0" stop-color="#3e7962"/><stop offset=".14" stop-color="#3e7962" stop-opacity=".81"/><stop offset=".58" stop-color="#3e7962" stop-opacity=".23"/><stop offset=".78" stop-color="#3e7962" stop-opacity="0"/></radialGradient><radialGradient id="brand_ciscoWebex_clr__d" cx="-1284.224" cy="-375.575" r=".2" fx="-1284.224" fy="-375.575" gradientTransform="matrix(-.35 17.71 -13.46 -.27 -5496.19 22648.11)" gradientUnits="userSpaceOnUse"><stop offset="0" stop-color="#3e7962"/><stop offset=".25" stop-color="#3e7962" stop-opacity=".7"/><stop offset=".71" stop-color="#3e7962" stop-opacity=".2"/><stop offset=".92" stop-color="#3e7962" stop-opacity="0"/></radialGradient><radialGradient id="brand_ciscoWebex_clr__e" cx="-1275" cy="-385.344" r=".2" fx="-1275" fy="-385.344" gradientTransform="matrix(.4 16.51 -11.72 .29 -3997.785 21167.768)" gradientUnits="userSpaceOnUse"><stop offset="0" stop-color="#3e7962"/><stop offset=".07" stop-color="#3e7962" stop-opacity=".9"/><stop offset=".34" stop-color="#3e7962" stop-opacity=".51"/><stop offset=".59" stop-color="#3e7962" stop-opacity=".23"/><stop offset=".79" stop-color="#3e7962" stop-opacity=".06"/><stop offset=".92" stop-color="#3e7962" stop-opacity="0"/></radialGradient><radialGradient id="brand_ciscoWebex_clr__f" cx="-1254.385" cy="-411.582" r=".2" fx="-1254.385" fy="-411.582" gradientTransform="matrix(.33 13.33 -9.47 .23 -3475.057 16821.5)" gradientUnits="userSpaceOnUse"><stop offset="0" stop-color="#3e7962"/><stop offset=".36" stop-color="#3e7962" stop-opacity=".63"/><stop offset=".92" stop-color="#3e7962" stop-opacity="0"/></radialGradient><radialGradient id="brand_ciscoWebex_clr__g" cx="-1227.099" cy="-465.494" r=".2" fx="-1227.099" fy="-465.494" gradientTransform="matrix(.26 10.63 -6.8 .17 -2837.895 13128.992)" gradientUnits="userSpaceOnUse"><stop offset="0" stop-color="#3a715b"/><stop offset=".15" stop-color="#3a725c" stop-opacity=".93"/><stop offset=".38" stop-color="#3b735d" stop-opacity=".74"/><stop offset=".67" stop-color="#3c765f" stop-opacity=".43"/><stop offset="1" stop-color="#3e7962" stop-opacity="0"/></radialGradient><radialGradient id="brand_ciscoWebex_clr__h" cx="-1257.436" cy="-216.905" r=".2" fx="-1257.436" fy="-216.905" gradientTransform="matrix(15.66 6.91 -5.18025 11.73989 18576.8 11241.672)" gradientUnits="userSpaceOnUse"><stop offset="0" stop-color="#3e7862"/><stop offset=".36" stop-color="#3e7862" stop-opacity=".56"/><stop offset=".72" stop-color="#3e7862" stop-opacity=".16"/><stop offset=".9" stop-color="#3e7862" stop-opacity="0"/></radialGradient><radialGradient id="brand_ciscoWebex_clr__i" cx="-1277.855" cy="-255.999" r=".2" fx="-1277.855" fy="-255.999" gradientTransform="matrix(18.63 13.18 -12.05 17.04 20729.517 21205.023)" gradientUnits="userSpaceOnUse"><stop offset="0" stop-color="#6fd5c2"/><stop offset=".07" stop-color="#6ed3c0" stop-opacity=".9"/><stop offset=".41" stop-color="#69cab8" stop-opacity=".42"/><stop offset=".65" stop-color="#66c4b3" stop-opacity=".12"/><stop offset=".76" stop-color="#65c2b1" stop-opacity="0"/></radialGradient><radialGradient id="brand_ciscoWebex_clr__j" cx="-1349.244" cy="-268.725" r=".2" fx="-1349.244" fy="-268.725" gradientTransform="rotate(35.272 -3926040.66 8205673.283) scale(4054.98206 2845.58199)"/><radialGradient id="brand_ciscoWebex_clr__k" cx="-1306.227" cy="-337.598" r=".2" fx="-1306.227" fy="-337.598" gradientTransform="matrix(-3.83 19.76 -24.4194 -4.73311 -13237.486 24221.166)" gradientUnits="userSpaceOnUse"><stop offset="0" stop-color="#407d67" stop-opacity=".8"/><stop offset=".06" stop-color="#498972" stop-opacity=".65"/><stop offset=".21" stop-color="#5ca486" stop-opacity=".37"/><stop offset=".35" stop-color="#6ab794" stop-opacity=".17"/><stop offset=".47" stop-color="#72c19e" stop-opacity=".04"/><stop offset=".56" stop-color="#75c5a1" stop-opacity="0"/></radialGradient><radialGradient id="brand_ciscoWebex_clr__l" cx="-1370.403" cy="-206.986" r=".2" fx="-1370.403" fy="-206.986" gradientTransform="matrix(16.62 -20.39 22.02068 17.94918 27341.266 -24219.852)" gradientUnits="userSpaceOnUse"><stop offset="0" stop-color="#3a7a87"/><stop offset=".04" stop-color="#3a7a87" stop-opacity=".93"/><stop offset=".33" stop-color="#3c7d8a" stop-opacity=".43"/><stop offset=".54" stop-color="#3d7f8c" stop-opacity=".12"/><stop offset=".65" stop-color="#3d808d" stop-opacity="0"/></radialGradient><radialGradient id="brand_ciscoWebex_clr__m" cx="-1345.524" cy="-181.445" r=".2" fx="-1345.524" fy="-181.445" gradientTransform="matrix(21.84 -13.47 10.6438 17.25766 31323.971 -14984.76)" gradientUnits="userSpaceOnUse"><stop offset=".05" stop-color="#3b7b84"/><stop offset=".11" stop-color="#3b7c86" stop-opacity=".8"/><stop offset=".21" stop-color="#3c7d88" stop-opacity=".52"/><stop offset=".32" stop-color="#3d7f8a" stop-opacity=".29"/><stop offset=".42" stop-color="#3d7f8c" stop-opacity=".13"/><stop offset=".51" stop-color="#3d808d" stop-opacity=".03"/><stop offset=".6" stop-color="#3d808d" stop-opacity="0"/></radialGradient><radialGradient id="brand_ciscoWebex_clr__n" cx="-1487.758" cy="-264.631" r=".2" fx="-1487.758" fy="-264.631" gradientTransform="matrix(-9.94 -11.62 9.15 -7.82 -12360.863 -19349.532)" gradientUnits="userSpaceOnUse"><stop offset=".26" stop-color="#3c7d87"/><stop offset=".27" stop-color="#3c7d87" stop-opacity=".98"/><stop offset=".38" stop-color="#3c7e89" stop-opacity=".68"/><stop offset=".5" stop-color="#3d7f8a" stop-opacity=".43"/><stop offset=".62" stop-color="#3d7f8c" stop-opacity=".24"/><stop offset=".74" stop-color="#3d808c" stop-opacity=".11"/><stop offset=".86" stop-color="#3d808d" stop-opacity=".03"/><stop offset="1" stop-color="#3d808d" stop-opacity="0"/></radialGradient><radialGradient id="brand_ciscoWebex_clr__o" cx="-1466.439" cy="-359.121" r=".2" fx="-1466.439" fy="-359.121" gradientTransform="rotate(-173.11 -10356.462 -3203.684) scale(14.33996)" gradientUnits="userSpaceOnUse"><stop offset="0" stop-color="#2f636d"/><stop offset=".11" stop-color="#2f626c" stop-opacity=".73"/><stop offset=".27" stop-color="#2e626c" stop-opacity=".41"/><stop offset=".42" stop-color="#2e626c" stop-opacity=".18"/><stop offset=".55" stop-color="#2e626c" stop-opacity=".05"/><stop offset=".66" stop-color="#2e626c" stop-opacity="0"/></radialGradient><radialGradient id="brand_ciscoWebex_clr__p" cx="-1547.771" cy="-215.431" r=".2" fx="-1547.771" fy="-215.431" gradientTransform="matrix(-4.91 -8.74 7.35038 -4.12933 -6011.232 -14408.107)" gradientUnits="userSpaceOnUse"><stop offset=".13" stop-color="#326871"/><stop offset=".24" stop-color="#346d77" stop-opacity=".79"/><stop offset=".45" stop-color="#387580" stop-opacity=".45"/><stop offset=".65" stop-color="#3a7b87" stop-opacity=".2"/><stop offset=".82" stop-color="#3d7f8b" stop-opacity=".05"/><stop offset=".95" stop-color="#3d808d" stop-opacity="0"/></radialGradient><radialGradient id="brand_ciscoWebex_clr__q" cx="-1403.51" cy="-20.984" r=".2" fx="-1403.51" fy="-20.984" gradientTransform="matrix(5.28 -7.82 6.2 4.18 7545.085 -10879.53)" gradientUnits="userSpaceOnUse"><stop offset="0" stop-color="#438b99"/><stop offset=".1" stop-color="#438b99" stop-opacity=".87"/><stop offset=".41" stop-color="#438b99" stop-opacity=".5"/><stop offset=".67" stop-color="#438b99" stop-opacity=".23"/><stop offset=".88" stop-color="#438b99" stop-opacity=".06"/><stop offset="1" stop-color="#438b99" stop-opacity="0"/></radialGradient><radialGradient id="brand_ciscoWebex_clr__x" cx="-1324.198" cy="-347.58" r=".2" fx="-1324.198" fy="-347.58" gradientTransform="matrix(-4.76 31.17 -20.56981 -3.14123 -13442.513 40190.204)" gradientUnits="userSpaceOnUse"><stop offset="0" stop-color="#233c95"/><stop offset=".4" stop-color="#233c95" stop-opacity=".42"/><stop offset=".7" stop-color="#233c95" stop-opacity="0"/></radialGradient><radialGradient id="brand_ciscoWebex_clr__y" cx="-1350.548" cy="-270.804" r=".2" fx="-1350.548" fy="-270.804" gradientTransform="rotate(98.69 -2856295.986 1962860.983) scale(3878.78753 2091.4091)"/><radialGradient id="brand_ciscoWebex_clr__z" cx="-1352.244" cy="-271.444" r=".2" fx="-1352.244" fy="-271.444" gradientTransform="rotate(98.616 -3340047.543 2423149.485) scale(4619.42695 1908.39558)"/><radialGradient id="brand_ciscoWebex_clr__aa" cx="-1305.54" cy="-334.35" r=".2" fx="-1305.54" fy="-334.35" gradientTransform="matrix(3.32 27.36 -19.09 2.31 -2038.676 36498.499)" gradientUnits="userSpaceOnUse"><stop offset="0" stop-color="#233c95"/><stop offset=".16" stop-color="#233c95" stop-opacity=".69"/><stop offset=".33" stop-color="#233c95" stop-opacity=".4"/><stop offset=".49" stop-color="#233c95" stop-opacity=".18"/><stop offset=".61" stop-color="#233c95" stop-opacity=".05"/><stop offset=".7" stop-color="#233c95" stop-opacity="0"/></radialGradient><radialGradient id="brand_ciscoWebex_clr__ab" cx="-1297.66" cy="-324.922" r=".2" fx="-1297.66" fy="-324.922" gradientTransform="matrix(7.02 25.54 -17.36889 4.77406 3476.443 34699.4)" gradientUnits="userSpaceOnUse"><stop offset="0" stop-color="#203789"/><stop offset=".37" stop-color="#223a90" stop-opacity=".45"/><stop offset=".7" stop-color="#233c95" stop-opacity="0"/></radialGradient><radialGradient id="brand_ciscoWebex_clr__ac" cx="-1224.464" cy="-352.494" r=".2" fx="-1224.464" fy="-352.494" gradientTransform="matrix(3.26 11.87 -11.28052 3.0981 25.842 15635.858)" gradientUnits="userSpaceOnUse"><stop offset="0" stop-color="#203789"/><stop offset=".09" stop-color="#20388c" stop-opacity=".78"/><stop offset=".22" stop-color="#223a90" stop-opacity=".5"/><stop offset=".35" stop-color="#223b91" stop-opacity=".28"/><stop offset=".47" stop-color="#233b93" stop-opacity=".13"/><stop offset=".59" stop-color="#233c95" stop-opacity=".03"/><stop offset=".7" stop-color="#233c95" stop-opacity="0"/></radialGradient><radialGradient id="brand_ciscoWebex_clr__ad" cx="-1224.602" cy="-352.513" r=".2" fx="-1224.602" fy="-352.513" gradientTransform="matrix(3.26 11.87 -11.28052 3.0981 26.142 15637.958)" gradientUnits="userSpaceOnUse"><stop offset="0" stop-color="#233c95" stop-opacity=".8"/><stop offset=".01" stop-color="#233c95" stop-opacity=".78"/><stop offset=".24" stop-color="#233c95" stop-opacity=".45"/><stop offset=".44" stop-color="#233c95" stop-opacity=".2"/><stop offset=".6" stop-color="#233c95" stop-opacity=".05"/><stop offset=".7" stop-color="#233c95" stop-opacity="0"/></radialGradient><radialGradient id="brand_ciscoWebex_clr__ae" cx="-1300.08" cy="-310.416" r=".2" fx="-1300.08" fy="-310.416" gradientTransform="matrix(11.47 27.06 -17.959 7.61233 9341.267 37550.026)" gradientUnits="userSpaceOnUse"><stop offset="0" stop-color="#233c95"/><stop offset=".4" stop-color="#233c95" stop-opacity=".56"/><stop offset=".48" stop-color="#233c95" stop-opacity=".43"/><stop offset=".69" stop-color="#233c95" stop-opacity=".12"/><stop offset=".79" stop-color="#233c95" stop-opacity="0"/></radialGradient><radialGradient id="brand_ciscoWebex_clr__af" cx="-1284.491" cy="-342.417" r=".2" fx="-1284.491" fy="-342.417" gradientTransform="matrix(5.24 21.16 -13.97012 3.45952 1950.888 28370.732)" gradientUnits="userSpaceOnUse"><stop offset="0" stop-color="#233c95"/><stop offset=".06" stop-color="#233c95" stop-opacity=".88"/><stop offset=".21" stop-color="#233c95" stop-opacity=".61"/><stop offset=".36" stop-color="#233c95" stop-opacity=".39"/><stop offset=".51" stop-color="#233c95" stop-opacity=".22"/><stop offset=".67" stop-color="#233c95" stop-opacity=".1"/><stop offset=".83" stop-color="#233c95" stop-opacity=".02"/><stop offset="1" stop-color="#233c95" stop-opacity="0"/></radialGradient><radialGradient id="brand_ciscoWebex_clr__ag" cx="-1284.491" cy="-342.417" r=".2" fx="-1284.491" fy="-342.417" gradientTransform="matrix(5.24 21.16 -13.97012 3.45952 1950.888 28370.732)" gradientUnits="userSpaceOnUse"><stop offset="0" stop-color="#243d97"/><stop offset=".06" stop-color="#243d97" stop-opacity=".87"/><stop offset=".21" stop-color="#243d96" stop-opacity=".61"/><stop offset=".36" stop-color="#233c96" stop-opacity=".39"/><stop offset=".52" stop-color="#233c95" stop-opacity=".22"/><stop offset=".67" stop-color="#233c95" stop-opacity=".1"/><stop offset=".83" stop-color="#233c95" stop-opacity=".02"/><stop offset="1" stop-color="#233c95" stop-opacity="0"/></radialGradient><radialGradient id="brand_ciscoWebex_clr__ah" cx="-1260.821" cy="-363.178" r=".2" fx="-1260.821" fy="-363.178" gradientTransform="matrix(4.01 16.19 -10.69 2.64 1177.52 21377.483)" gradientUnits="userSpaceOnUse"><stop offset="0" stop-color="#20388b"/><stop offset=".03" stop-color="#20388c" stop-opacity=".95"/><stop offset=".18" stop-color="#21398f" stop-opacity=".66"/><stop offset=".34" stop-color="#223a90" stop-opacity=".42"/><stop offset=".5" stop-color="#233b92" stop-opacity=".24"/><stop offset=".66" stop-color="#233c94" stop-opacity=".1"/><stop offset=".82" stop-color="#233c95" stop-opacity=".03"/><stop offset="1" stop-color="#233c95" stop-opacity="0"/></radialGradient><radialGradient id="brand_ciscoWebex_clr__ai" cx="-1250.652" cy="-384.596" r=".2" fx="-1250.652" fy="-384.596" gradientTransform="matrix(.66 13.16 -11.58993 .58126 -3627.295 16687.857)" gradientUnits="userSpaceOnUse"><stop offset=".04" stop-color="#3052cd" stop-opacity=".6"/><stop offset=".2" stop-color="#3052cd" stop-opacity=".49"/><stop offset=".52" stop-color="#3052cd" stop-opacity=".2"/><stop offset=".73" stop-color="#3052cd" stop-opacity="0"/></radialGradient><linearGradient id="brand_ciscoWebex_clr__b" x1="7.606" x2="18.508" y1="1144.96" y2="1140.553" gradientTransform="translate(-7 -1136.22)" gradientUnits="userSpaceOnUse"><stop offset=".13" stop-color="#58b7ed"/><stop offset=".34" stop-color="#4a96a2"/><stop offset=".45" stop-color="#4b99a3"/><stop offset=".51" stop-color="#50a1a7"/><stop offset=".57" stop-color="#59afae"/><stop offset=".6" stop-color="#5fb9b2"/><stop offset=".79" stop-color="#61b692"/><stop offset="1" stop-color="#88ec6f"/></linearGradient><linearGradient id="brand_ciscoWebex_clr__r" x1="8.321" x2="13.131" y1="1137.966" y2="1142.418" gradientTransform="translate(-7 -1136.22)" gradientUnits="userSpaceOnUse"><stop offset=".13" stop-color="#78f4fc"/><stop offset=".27" stop-color="#78f4fc" stop-opacity=".64"/><stop offset=".4" stop-color="#78f5fc" stop-opacity=".3"/><stop offset=".49" stop-color="#77f5fc" stop-opacity=".08"/><stop offset=".54" stop-color="#77f5fc" stop-opacity="0"/></linearGradient><linearGradient id="brand_ciscoWebex_clr__s" x1="5.587" x2="11.205" y1="1145.218" y2="1143.626" gradientTransform="translate(-7 -1136.22)" gradientUnits="userSpaceOnUse"><stop offset="0" stop-color="#77f5fc"/><stop offset=".06" stop-color="#77f5fc" stop-opacity=".88"/><stop offset=".24" stop-color="#77f5fc" stop-opacity=".51"/><stop offset=".39" stop-color="#77f5fc" stop-opacity=".23"/><stop offset=".5" stop-color="#77f5fc" stop-opacity=".06"/><stop offset=".55" stop-color="#77f5fc" stop-opacity="0"/></linearGradient><linearGradient id="brand_ciscoWebex_clr__t" x1="7.074" x2="13.405" y1="1145.026" y2="1142.766" gradientTransform="translate(-7 -1136.22)" gradientUnits="userSpaceOnUse"><stop offset="0" stop-color="#69dafa"/><stop offset=".04" stop-color="#69dafa" stop-opacity=".88"/><stop offset=".17" stop-color="#69dafa" stop-opacity=".51"/><stop offset=".27" stop-color="#69dafa" stop-opacity=".23"/><stop offset=".34" stop-color="#69dafa" stop-opacity=".06"/><stop offset=".38" stop-color="#69dafa" stop-opacity="0"/></linearGradient><linearGradient id="brand_ciscoWebex_clr__u" x1="13.109" x2="16.651" y1="1141.767" y2="1147.542" gradientTransform="translate(-7 -1136.22)" gradientUnits="userSpaceOnUse"><stop offset=".62" stop-color="#69dafa" stop-opacity="0"/><stop offset=".66" stop-color="#69dafa" stop-opacity=".06"/><stop offset=".73" stop-color="#69dafa" stop-opacity=".23"/><stop offset=".83" stop-color="#69dafa" stop-opacity=".51"/><stop offset=".96" stop-color="#69dafa" stop-opacity=".88"/><stop offset="1" stop-color="#69dafa"/></linearGradient><linearGradient id="brand_ciscoWebex_clr__v" x1="17.069" x2="16.514" y1="1143.927" y2="1141.209" gradientTransform="translate(-7 -1136.22)" gradientUnits="userSpaceOnUse"><stop offset="0" stop-color="#63ad52"/><stop offset=".11" stop-color="#63ad52" stop-opacity=".8"/><stop offset=".27" stop-color="#63ad52" stop-opacity=".52"/><stop offset=".43" stop-color="#63ad52" stop-opacity=".29"/><stop offset=".58" stop-color="#63ad52" stop-opacity=".13"/><stop offset=".7" stop-color="#63ad52" stop-opacity=".03"/><stop offset=".8" stop-color="#63ad52" stop-opacity="0"/></linearGradient><linearGradient id="brand_ciscoWebex_clr__w" x1="9.28" x2="21.005" y1="1141.074" y2="1144.954" gradientTransform="translate(-7 -1136.22)" gradientUnits="userSpaceOnUse"><stop offset="0" stop-color="#3e65f1"/><stop offset=".38" stop-color="#3d63ed"/><stop offset=".74" stop-color="#3456d0"/><stop offset="1" stop-color="#4d7cf6"/></linearGradient><linearGradient id="brand_ciscoWebex_clr__aj" x1="16.897" x2="13.933" y1="1136.335" y2="1143.654" gradientTransform="translate(-7 -1136.22)" gradientUnits="userSpaceOnUse"><stop offset="0" stop-color="#4773f5"/><stop offset=".05" stop-color="#4773f5" stop-opacity=".91"/><stop offset=".16" stop-color="#4773f5" stop-opacity=".66"/><stop offset=".32" stop-color="#4773f5" stop-opacity=".28"/><stop offset=".43" stop-color="#4773f5" stop-opacity="0"/></linearGradient></defs><path fill="url(#brand_ciscoWebex_clr__b)" stroke-width="0" d="M3.196 7.048c.161.549.387 1.066.646 1.582.097.226.258.42.452.581l.129.065c.323.064.484-.194.613-.42.162-.387.29-.775.388-1.162.032-.065.032-.13.064-.226.032-.13.065-.29.097-.42l1.42-3.777a3.2 3.2 0 0 1 1.13-.936c.42-.226.904-.355 1.389-.355.71 0 1.388.258 1.937.678.936.71 1.485 2.098 1.485 2.098.064.194.129.387.129.581s-.032.355-.097.549c-.097.161-.194.323-.29.452-.13.13-.291.226-.453.29s-.355.097-.548.097-.388-.032-.581-.129a1.88 1.88 0 0 1-.485-.355s0-.032-.032-.032c-.097-.13-.161-.258-.226-.388a3.528 3.528 0 0 0-.258-.484c-.065-.064-.097-.161-.162-.226-.032-.064-.097-.161-.193-.194-.13-.096-.29-.129-.42-.064l-.032-.032a.992.992 0 0 0-.323.484c-.194.484-.355.968-.484 1.485l-.065.29-.581 1.905-.807 1.808c-.29.387-.678.678-1.13.904-.42.194-.904.323-1.388.323-2.002.032-2.938-1.776-2.938-1.776C.452 8.372.129 5.918.032 5.111 0 5.014 0 4.918 0 4.821c0-.259.065-.485.194-.71s.29-.388.516-.517c.226-.097.484-.162.743-.162.42.033.807.226 1.065.582.162.29.258.58.258.903.065.743.226 1.453.42 2.131Z"/><path fill="url(#brand_ciscoWebex_clr__c)" stroke-width="0" d="M3.196 7.048c.161.549.387 1.066.646 1.582.097.226.258.42.452.581l.129.065c.323.064.484-.194.613-.42.162-.387.29-.775.388-1.162.032-.065.032-.13.064-.226.032-.13.065-.29.097-.42l1.42-3.777a3.2 3.2 0 0 1 1.13-.936c.42-.226.904-.355 1.389-.355.71 0 1.388.258 1.937.678.936.71 1.485 2.098 1.485 2.098.064.194.129.387.129.581s-.032.355-.097.549c-.097.161-.194.323-.29.452-.13.13-.291.226-.453.29s-.355.097-.548.097-.388-.032-.581-.129a1.88 1.88 0 0 1-.485-.355s0-.032-.032-.032c-.097-.13-.161-.258-.226-.388a3.528 3.528 0 0 0-.258-.484c-.065-.064-.097-.161-.162-.226-.032-.064-.097-.161-.193-.194-.13-.096-.29-.129-.42-.064l-.032-.032a.992.992 0 0 0-.323.484c-.194.484-.355.968-.484 1.485l-.065.29-.581 1.905-.807 1.808c-.29.387-.678.678-1.13.904-.42.194-.904.323-1.388.323-2.002.032-2.938-1.776-2.938-1.776C.452 8.372.129 5.918.032 5.111 0 5.014 0 4.918 0 4.821c0-.259.065-.485.194-.71s.29-.388.516-.517c.226-.097.484-.162.743-.162.42.033.807.226 1.065.582.162.29.258.58.258.903.065.743.226 1.453.42 2.131Z"/><path fill="url(#brand_ciscoWebex_clr__d)" stroke-width="0" d="M3.196 7.048c.161.549.387 1.066.646 1.582.097.226.258.42.452.581l.129.065c.323.064.484-.194.613-.42.162-.387.29-.775.388-1.162.032-.065.032-.13.064-.226.032-.13.065-.29.097-.42l1.42-3.777a3.2 3.2 0 0 1 1.13-.936c.42-.226.904-.355 1.389-.355.71 0 1.388.258 1.937.678.936.71 1.485 2.098 1.485 2.098.064.194.129.387.129.581s-.032.355-.097.549c-.097.161-.194.323-.29.452-.13.13-.291.226-.453.29s-.355.097-.548.097-.388-.032-.581-.129a1.88 1.88 0 0 1-.485-.355s0-.032-.032-.032c-.097-.13-.161-.258-.226-.388a3.528 3.528 0 0 0-.258-.484c-.065-.064-.097-.161-.162-.226-.032-.064-.097-.161-.193-.194-.13-.096-.29-.129-.42-.064l-.032-.032a.992.992 0 0 0-.323.484c-.194.484-.355.968-.484 1.485l-.065.29-.581 1.905-.807 1.808c-.29.387-.678.678-1.13.904-.42.194-.904.323-1.388.323-2.002.032-2.938-1.776-2.938-1.776C.452 8.372.129 5.918.032 5.111 0 5.014 0 4.918 0 4.821c0-.259.065-.485.194-.71s.29-.388.516-.517c.226-.097.484-.162.743-.162.42.033.807.226 1.065.582.162.29.258.58.258.903.065.743.226 1.453.42 2.131Z"/><path fill="url(#brand_ciscoWebex_clr__e)" stroke-width="0" d="M3.196 7.048c.161.549.387 1.066.646 1.582.097.226.258.42.452.581l.129.065c.323.064.484-.194.613-.42.162-.387.29-.775.388-1.162.032-.065.032-.13.064-.226.032-.13.065-.29.097-.42l1.42-3.777a3.2 3.2 0 0 1 1.13-.936c.42-.226.904-.355 1.389-.355.71 0 1.388.258 1.937.678.936.71 1.485 2.098 1.485 2.098.064.194.129.387.129.581s-.032.355-.097.549c-.097.161-.194.323-.29.452-.13.13-.291.226-.453.29s-.355.097-.548.097-.388-.032-.581-.129a1.88 1.88 0 0 1-.485-.355s0-.032-.032-.032c-.097-.13-.161-.258-.226-.388a3.528 3.528 0 0 0-.258-.484c-.065-.064-.097-.161-.162-.226-.032-.064-.097-.161-.193-.194-.13-.096-.29-.129-.42-.064l-.032-.032a.992.992 0 0 0-.323.484c-.194.484-.355.968-.484 1.485l-.065.29-.581 1.905-.807 1.808c-.29.387-.678.678-1.13.904-.42.194-.904.323-1.388.323-2.002.032-2.938-1.776-2.938-1.776C.452 8.372.129 5.918.032 5.111 0 5.014 0 4.918 0 4.821c0-.259.065-.485.194-.71s.29-.388.516-.517c.226-.097.484-.162.743-.162.42.033.807.226 1.065.582.162.29.258.58.258.903.065.743.226 1.453.42 2.131Z"/><path fill="url(#brand_ciscoWebex_clr__f)" stroke-width="0" d="M3.196 7.048c.161.549.387 1.066.646 1.582.097.226.258.42.452.581l.129.065c.323.064.484-.194.613-.42.162-.387.29-.775.388-1.162.032-.065.032-.13.064-.226.032-.13.065-.29.097-.42l1.42-3.777a3.2 3.2 0 0 1 1.13-.936c.42-.226.904-.355 1.389-.355.71 0 1.388.258 1.937.678.936.71 1.485 2.098 1.485 2.098.064.194.129.387.129.581s-.032.355-.097.549c-.097.161-.194.323-.29.452-.13.13-.291.226-.453.29s-.355.097-.548.097-.388-.032-.581-.129a1.88 1.88 0 0 1-.485-.355s0-.032-.032-.032c-.097-.13-.161-.258-.226-.388a3.528 3.528 0 0 0-.258-.484c-.065-.064-.097-.161-.162-.226-.032-.064-.097-.161-.193-.194-.13-.096-.29-.129-.42-.064l-.032-.032a.992.992 0 0 0-.323.484c-.194.484-.355.968-.484 1.485l-.065.29-.581 1.905-.807 1.808c-.29.387-.678.678-1.13.904-.42.194-.904.323-1.388.323-2.002.032-2.938-1.776-2.938-1.776C.452 8.372.129 5.918.032 5.111 0 5.014 0 4.918 0 4.821c0-.259.065-.485.194-.71s.29-.388.516-.517c.226-.097.484-.162.743-.162.42.033.807.226 1.065.582.162.29.258.58.258.903.065.743.226 1.453.42 2.131Z"/><path fill="url(#brand_ciscoWebex_clr__g)" stroke-width="0" d="M3.196 7.048c.161.549.387 1.066.646 1.582.097.226.258.42.452.581l.129.065c.323.064.484-.194.613-.42.162-.387.29-.775.388-1.162.032-.065.032-.13.064-.226.032-.13.065-.29.097-.42l1.42-3.777a3.2 3.2 0 0 1 1.13-.936c.42-.226.904-.355 1.389-.355.71 0 1.388.258 1.937.678.936.71 1.485 2.098 1.485 2.098.064.194.129.387.129.581s-.032.355-.097.549c-.097.161-.194.323-.29.452-.13.13-.291.226-.453.29s-.355.097-.548.097-.388-.032-.581-.129a1.88 1.88 0 0 1-.485-.355s0-.032-.032-.032c-.097-.13-.161-.258-.226-.388a3.528 3.528 0 0 0-.258-.484c-.065-.064-.097-.161-.162-.226-.032-.064-.097-.161-.193-.194-.13-.096-.29-.129-.42-.064l-.032-.032a.992.992 0 0 0-.323.484c-.194.484-.355.968-.484 1.485l-.065.29-.581 1.905-.807 1.808c-.29.387-.678.678-1.13.904-.42.194-.904.323-1.388.323-2.002.032-2.938-1.776-2.938-1.776C.452 8.372.129 5.918.032 5.111 0 5.014 0 4.918 0 4.821c0-.259.065-.485.194-.71s.29-.388.516-.517c.226-.097.484-.162.743-.162.42.033.807.226 1.065.582.162.29.258.58.258.903.065.743.226 1.453.42 2.131Z"/><path fill="url(#brand_ciscoWebex_clr__h)" stroke-width="0" d="M3.196 7.048c.161.549.387 1.066.646 1.582.097.226.258.42.452.581l.129.065c.323.064.484-.194.613-.42.162-.387.29-.775.388-1.162.032-.065.032-.13.064-.226.032-.13.065-.29.097-.42l1.42-3.777a3.2 3.2 0 0 1 1.13-.936c.42-.226.904-.355 1.389-.355.71 0 1.388.258 1.937.678.936.71 1.485 2.098 1.485 2.098.064.194.129.387.129.581s-.032.355-.097.549c-.097.161-.194.323-.29.452-.13.13-.291.226-.453.29s-.355.097-.548.097-.388-.032-.581-.129a1.88 1.88 0 0 1-.485-.355s0-.032-.032-.032c-.097-.13-.161-.258-.226-.388a3.528 3.528 0 0 0-.258-.484c-.065-.064-.097-.161-.162-.226-.032-.064-.097-.161-.193-.194-.13-.096-.29-.129-.42-.064l-.032-.032a.992.992 0 0 0-.323.484c-.194.484-.355.968-.484 1.485l-.065.29-.581 1.905-.807 1.808c-.29.387-.678.678-1.13.904-.42.194-.904.323-1.388.323-2.002.032-2.938-1.776-2.938-1.776C.452 8.372.129 5.918.032 5.111 0 5.014 0 4.918 0 4.821c0-.259.065-.485.194-.71s.29-.388.516-.517c.226-.097.484-.162.743-.162.42.033.807.226 1.065.582.162.29.258.58.258.903.065.743.226 1.453.42 2.131Z"/><path fill="url(#brand_ciscoWebex_clr__i)" stroke-width="0" d="M3.196 7.048c.161.549.387 1.066.646 1.582.097.226.258.42.452.581l.129.065c.323.064.484-.194.613-.42.162-.387.29-.775.388-1.162.032-.065.032-.13.064-.226.032-.13.065-.29.097-.42l1.42-3.777a3.2 3.2 0 0 1 1.13-.936c.42-.226.904-.355 1.389-.355.71 0 1.388.258 1.937.678.936.71 1.485 2.098 1.485 2.098.064.194.129.387.129.581s-.032.355-.097.549c-.097.161-.194.323-.29.452-.13.13-.291.226-.453.29s-.355.097-.548.097-.388-.032-.581-.129a1.88 1.88 0 0 1-.485-.355s0-.032-.032-.032c-.097-.13-.161-.258-.226-.388a3.528 3.528 0 0 0-.258-.484c-.065-.064-.097-.161-.162-.226-.032-.064-.097-.161-.193-.194-.13-.096-.29-.129-.42-.064l-.032-.032a.992.992 0 0 0-.323.484c-.194.484-.355.968-.484 1.485l-.065.29-.581 1.905-.807 1.808c-.29.387-.678.678-1.13.904-.42.194-.904.323-1.388.323-2.002.032-2.938-1.776-2.938-1.776C.452 8.372.129 5.918.032 5.111 0 5.014 0 4.918 0 4.821c0-.259.065-.485.194-.71s.29-.388.516-.517c.226-.097.484-.162.743-.162.42.033.807.226 1.065.582.162.29.258.58.258.903.065.743.226 1.453.42 2.131Z"/><path fill="url(#brand_ciscoWebex_clr__j)" stroke-width="0" d="M3.196 7.048c.161.549.387 1.066.646 1.582.097.226.258.42.452.581l.129.065c.323.064.484-.194.613-.42.162-.387.29-.775.388-1.162.032-.065.032-.13.064-.226.032-.13.065-.29.097-.42l1.42-3.777a3.2 3.2 0 0 1 1.13-.936c.42-.226.904-.355 1.389-.355.71 0 1.388.258 1.937.678.936.71 1.485 2.098 1.485 2.098.064.194.129.387.129.581s-.032.355-.097.549c-.097.161-.194.323-.29.452-.13.13-.291.226-.453.29s-.355.097-.548.097-.388-.032-.581-.129a1.88 1.88 0 0 1-.485-.355s0-.032-.032-.032c-.097-.13-.161-.258-.226-.388a3.528 3.528 0 0 0-.258-.484c-.065-.064-.097-.161-.162-.226-.032-.064-.097-.161-.193-.194-.13-.096-.29-.129-.42-.064l-.032-.032a.992.992 0 0 0-.323.484c-.194.484-.355.968-.484 1.485l-.065.29-.581 1.905-.807 1.808c-.29.387-.678.678-1.13.904-.42.194-.904.323-1.388.323-2.002.032-2.938-1.776-2.938-1.776C.452 8.372.129 5.918.032 5.111 0 5.014 0 4.918 0 4.821c0-.259.065-.485.194-.71s.29-.388.516-.517c.226-.097.484-.162.743-.162.42.033.807.226 1.065.582.162.29.258.58.258.903.065.743.226 1.453.42 2.131Z"/><path fill="url(#brand_ciscoWebex_clr__k)" stroke-width="0" d="M3.196 7.048c.161.549.387 1.066.646 1.582.097.226.258.42.452.581l.129.065c.323.064.484-.194.613-.42.162-.387.29-.775.388-1.162.032-.065.032-.13.064-.226.032-.13.065-.29.097-.42l1.42-3.777a3.2 3.2 0 0 1 1.13-.936c.42-.226.904-.355 1.389-.355.71 0 1.388.258 1.937.678.936.71 1.485 2.098 1.485 2.098.064.194.129.387.129.581s-.032.355-.097.549c-.097.161-.194.323-.29.452-.13.13-.291.226-.453.29s-.355.097-.548.097-.388-.032-.581-.129a1.88 1.88 0 0 1-.485-.355s0-.032-.032-.032c-.097-.13-.161-.258-.226-.388a3.528 3.528 0 0 0-.258-.484c-.065-.064-.097-.161-.162-.226-.032-.064-.097-.161-.193-.194-.13-.096-.29-.129-.42-.064l-.032-.032a.992.992 0 0 0-.323.484c-.194.484-.355.968-.484 1.485l-.065.29-.581 1.905-.807 1.808c-.29.387-.678.678-1.13.904-.42.194-.904.323-1.388.323-2.002.032-2.938-1.776-2.938-1.776C.452 8.372.129 5.918.032 5.111 0 5.014 0 4.918 0 4.821c0-.259.065-.485.194-.71s.29-.388.516-.517c.226-.097.484-.162.743-.162.42.033.807.226 1.065.582.162.29.258.58.258.903.065.743.226 1.453.42 2.131Z"/><path fill="url(#brand_ciscoWebex_clr__l)" stroke-width="0" d="M3.196 7.048c.161.549.387 1.066.646 1.582.097.226.258.42.452.581l.129.065c.323.064.484-.194.613-.42.162-.387.29-.775.388-1.162.032-.065.032-.13.064-.226.032-.13.065-.29.097-.42l1.42-3.777a3.2 3.2 0 0 1 1.13-.936c.42-.226.904-.355 1.389-.355.71 0 1.388.258 1.937.678.936.71 1.485 2.098 1.485 2.098.064.194.129.387.129.581s-.032.355-.097.549c-.097.161-.194.323-.29.452-.13.13-.291.226-.453.29s-.355.097-.548.097-.388-.032-.581-.129a1.88 1.88 0 0 1-.485-.355s0-.032-.032-.032c-.097-.13-.161-.258-.226-.388a3.528 3.528 0 0 0-.258-.484c-.065-.064-.097-.161-.162-.226-.032-.064-.097-.161-.193-.194-.13-.096-.29-.129-.42-.064l-.032-.032a.992.992 0 0 0-.323.484c-.194.484-.355.968-.484 1.485l-.065.29-.581 1.905-.807 1.808c-.29.387-.678.678-1.13.904-.42.194-.904.323-1.388.323-2.002.032-2.938-1.776-2.938-1.776C.452 8.372.129 5.918.032 5.111 0 5.014 0 4.918 0 4.821c0-.259.065-.485.194-.71s.29-.388.516-.517c.226-.097.484-.162.743-.162.42.033.807.226 1.065.582.162.29.258.58.258.903.065.743.226 1.453.42 2.131Z"/><path fill="url(#brand_ciscoWebex_clr__m)" stroke-width="0" d="M3.196 7.048c.161.549.387 1.066.646 1.582.097.226.258.42.452.581l.129.065c.323.064.484-.194.613-.42.162-.387.29-.775.388-1.162.032-.065.032-.13.064-.226.032-.13.065-.29.097-.42l1.42-3.777a3.2 3.2 0 0 1 1.13-.936c.42-.226.904-.355 1.389-.355.71 0 1.388.258 1.937.678.936.71 1.485 2.098 1.485 2.098.064.194.129.387.129.581s-.032.355-.097.549c-.097.161-.194.323-.29.452-.13.13-.291.226-.453.29s-.355.097-.548.097-.388-.032-.581-.129a1.88 1.88 0 0 1-.485-.355s0-.032-.032-.032c-.097-.13-.161-.258-.226-.388a3.528 3.528 0 0 0-.258-.484c-.065-.064-.097-.161-.162-.226-.032-.064-.097-.161-.193-.194-.13-.096-.29-.129-.42-.064l-.032-.032a.992.992 0 0 0-.323.484c-.194.484-.355.968-.484 1.485l-.065.29-.581 1.905-.807 1.808c-.29.387-.678.678-1.13.904-.42.194-.904.323-1.388.323-2.002.032-2.938-1.776-2.938-1.776C.452 8.372.129 5.918.032 5.111 0 5.014 0 4.918 0 4.821c0-.259.065-.485.194-.71s.29-.388.516-.517c.226-.097.484-.162.743-.162.42.033.807.226 1.065.582.162.29.258.58.258.903.065.743.226 1.453.42 2.131Z"/><path fill="url(#brand_ciscoWebex_clr__n)" stroke-width="0" d="M3.196 7.048c.161.549.387 1.066.646 1.582.097.226.258.42.452.581l.129.065c.323.064.484-.194.613-.42.162-.387.29-.775.388-1.162.032-.065.032-.13.064-.226.032-.13.065-.29.097-.42l1.42-3.777a3.2 3.2 0 0 1 1.13-.936c.42-.226.904-.355 1.389-.355.71 0 1.388.258 1.937.678.936.71 1.485 2.098 1.485 2.098.064.194.129.387.129.581s-.032.355-.097.549c-.097.161-.194.323-.29.452-.13.13-.291.226-.453.29s-.355.097-.548.097-.388-.032-.581-.129a1.88 1.88 0 0 1-.485-.355s0-.032-.032-.032c-.097-.13-.161-.258-.226-.388a3.528 3.528 0 0 0-.258-.484c-.065-.064-.097-.161-.162-.226-.032-.064-.097-.161-.193-.194-.13-.096-.29-.129-.42-.064l-.032-.032a.992.992 0 0 0-.323.484c-.194.484-.355.968-.484 1.485l-.065.29-.581 1.905-.807 1.808c-.29.387-.678.678-1.13.904-.42.194-.904.323-1.388.323-2.002.032-2.938-1.776-2.938-1.776C.452 8.372.129 5.918.032 5.111 0 5.014 0 4.918 0 4.821c0-.259.065-.485.194-.71s.29-.388.516-.517c.226-.097.484-.162.743-.162.42.033.807.226 1.065.582.162.29.258.58.258.903.065.743.226 1.453.42 2.131Z"/><path fill="url(#brand_ciscoWebex_clr__o)" stroke-width="0" d="M3.196 7.048c.161.549.387 1.066.646 1.582.097.226.258.42.452.581l.129.065c.323.064.484-.194.613-.42.162-.387.29-.775.388-1.162.032-.065.032-.13.064-.226.032-.13.065-.29.097-.42l1.42-3.777a3.2 3.2 0 0 1 1.13-.936c.42-.226.904-.355 1.389-.355.71 0 1.388.258 1.937.678.936.71 1.485 2.098 1.485 2.098.064.194.129.387.129.581s-.032.355-.097.549c-.097.161-.194.323-.29.452-.13.13-.291.226-.453.29s-.355.097-.548.097-.388-.032-.581-.129a1.88 1.88 0 0 1-.485-.355s0-.032-.032-.032c-.097-.13-.161-.258-.226-.388a3.528 3.528 0 0 0-.258-.484c-.065-.064-.097-.161-.162-.226-.032-.064-.097-.161-.193-.194-.13-.096-.29-.129-.42-.064l-.032-.032a.992.992 0 0 0-.323.484c-.194.484-.355.968-.484 1.485l-.065.29-.581 1.905-.807 1.808c-.29.387-.678.678-1.13.904-.42.194-.904.323-1.388.323-2.002.032-2.938-1.776-2.938-1.776C.452 8.372.129 5.918.032 5.111 0 5.014 0 4.918 0 4.821c0-.259.065-.485.194-.71s.29-.388.516-.517c.226-.097.484-.162.743-.162.42.033.807.226 1.065.582.162.29.258.58.258.903.065.743.226 1.453.42 2.131Z"/><path fill="url(#brand_ciscoWebex_clr__p)" stroke-width="0" d="M3.196 7.048c.161.549.387 1.066.646 1.582.097.226.258.42.452.581l.129.065c.323.064.484-.194.613-.42.162-.387.29-.775.388-1.162.032-.065.032-.13.064-.226.032-.13.065-.29.097-.42l1.42-3.777a3.2 3.2 0 0 1 1.13-.936c.42-.226.904-.355 1.389-.355.71 0 1.388.258 1.937.678.936.71 1.485 2.098 1.485 2.098.064.194.129.387.129.581s-.032.355-.097.549c-.097.161-.194.323-.29.452-.13.13-.291.226-.453.29s-.355.097-.548.097-.388-.032-.581-.129a1.88 1.88 0 0 1-.485-.355s0-.032-.032-.032c-.097-.13-.161-.258-.226-.388a3.528 3.528 0 0 0-.258-.484c-.065-.064-.097-.161-.162-.226-.032-.064-.097-.161-.193-.194-.13-.096-.29-.129-.42-.064l-.032-.032a.992.992 0 0 0-.323.484c-.194.484-.355.968-.484 1.485l-.065.29-.581 1.905-.807 1.808c-.29.387-.678.678-1.13.904-.42.194-.904.323-1.388.323-2.002.032-2.938-1.776-2.938-1.776C.452 8.372.129 5.918.032 5.111 0 5.014 0 4.918 0 4.821c0-.259.065-.485.194-.71s.29-.388.516-.517c.226-.097.484-.162.743-.162.42.033.807.226 1.065.582.162.29.258.58.258.903.065.743.226 1.453.42 2.131Z"/><path fill="url(#brand_ciscoWebex_clr__q)" stroke-width="0" d="M3.196 7.048c.161.549.387 1.066.646 1.582.097.226.258.42.452.581l.129.065c.323.064.484-.194.613-.42.162-.387.29-.775.388-1.162.032-.065.032-.13.064-.226.032-.13.065-.29.097-.42l1.42-3.777a3.2 3.2 0 0 1 1.13-.936c.42-.226.904-.355 1.389-.355.71 0 1.388.258 1.937.678.936.71 1.485 2.098 1.485 2.098.064.194.129.387.129.581s-.032.355-.097.549c-.097.161-.194.323-.29.452-.13.13-.291.226-.453.29s-.355.097-.548.097-.388-.032-.581-.129a1.88 1.88 0 0 1-.485-.355s0-.032-.032-.032c-.097-.13-.161-.258-.226-.388a3.528 3.528 0 0 0-.258-.484c-.065-.064-.097-.161-.162-.226-.032-.064-.097-.161-.193-.194-.13-.096-.29-.129-.42-.064l-.032-.032a.992.992 0 0 0-.323.484c-.194.484-.355.968-.484 1.485l-.065.29-.581 1.905-.807 1.808c-.29.387-.678.678-1.13.904-.42.194-.904.323-1.388.323-2.002.032-2.938-1.776-2.938-1.776C.452 8.372.129 5.918.032 5.111 0 5.014 0 4.918 0 4.821c0-.259.065-.485.194-.71s.29-.388.516-.517c.226-.097.484-.162.743-.162.42.033.807.226 1.065.582.162.29.258.58.258.903.065.743.226 1.453.42 2.131Z"/><path fill="url(#brand_ciscoWebex_clr__r)" stroke-width="0" d="M3.196 7.048c.161.549.387 1.066.646 1.582.097.226.258.42.452.581l.129.065c.323.064.484-.194.613-.42.162-.387.29-.775.388-1.162.032-.065.032-.13.064-.226.032-.13.065-.29.097-.42l1.42-3.777a3.2 3.2 0 0 1 1.13-.936c.42-.226.904-.355 1.389-.355.71 0 1.388.258 1.937.678.936.71 1.485 2.098 1.485 2.098.064.194.129.387.129.581s-.032.355-.097.549c-.097.161-.194.323-.29.452-.13.13-.291.226-.453.29s-.355.097-.548.097-.388-.032-.581-.129a1.88 1.88 0 0 1-.485-.355s0-.032-.032-.032c-.097-.13-.161-.258-.226-.388a3.528 3.528 0 0 0-.258-.484c-.065-.064-.097-.161-.162-.226-.032-.064-.097-.161-.193-.194-.13-.096-.29-.129-.42-.064l-.032-.032a.992.992 0 0 0-.323.484c-.194.484-.355.968-.484 1.485l-.065.29-.581 1.905-.807 1.808c-.29.387-.678.678-1.13.904-.42.194-.904.323-1.388.323-2.002.032-2.938-1.776-2.938-1.776C.452 8.372.129 5.918.032 5.111 0 5.014 0 4.918 0 4.821c0-.259.065-.485.194-.71s.29-.388.516-.517c.226-.097.484-.162.743-.162.42.033.807.226 1.065.582.162.29.258.58.258.903.065.743.226 1.453.42 2.131Z"/><path fill="url(#brand_ciscoWebex_clr__s)" stroke-width="0" d="M3.196 7.048c.161.549.387 1.066.646 1.582.097.226.258.42.452.581l.129.065c.323.064.484-.194.613-.42.162-.387.29-.775.388-1.162.032-.065.032-.13.064-.226.032-.13.065-.29.097-.42l1.42-3.777a3.2 3.2 0 0 1 1.13-.936c.42-.226.904-.355 1.389-.355.71 0 1.388.258 1.937.678.936.71 1.485 2.098 1.485 2.098.064.194.129.387.129.581s-.032.355-.097.549c-.097.161-.194.323-.29.452-.13.13-.291.226-.453.29s-.355.097-.548.097-.388-.032-.581-.129a1.88 1.88 0 0 1-.485-.355s0-.032-.032-.032c-.097-.13-.161-.258-.226-.388a3.528 3.528 0 0 0-.258-.484c-.065-.064-.097-.161-.162-.226-.032-.064-.097-.161-.193-.194-.13-.096-.29-.129-.42-.064l-.032-.032a.992.992 0 0 0-.323.484c-.194.484-.355.968-.484 1.485l-.065.29-.581 1.905-.807 1.808c-.29.387-.678.678-1.13.904-.42.194-.904.323-1.388.323-2.002.032-2.938-1.776-2.938-1.776C.452 8.372.129 5.918.032 5.111 0 5.014 0 4.918 0 4.821c0-.259.065-.485.194-.71s.29-.388.516-.517c.226-.097.484-.162.743-.162.42.033.807.226 1.065.582.162.29.258.58.258.903.065.743.226 1.453.42 2.131Z"/><path fill="url(#brand_ciscoWebex_clr__t)" stroke-width="0" d="M3.196 7.048c.161.549.387 1.066.646 1.582.097.226.258.42.452.581l.129.065c.323.064.484-.194.613-.42.162-.387.29-.775.388-1.162.032-.065.032-.13.064-.226.032-.13.065-.29.097-.42l1.42-3.777a3.2 3.2 0 0 1 1.13-.936c.42-.226.904-.355 1.389-.355.71 0 1.388.258 1.937.678.936.71 1.485 2.098 1.485 2.098.064.194.129.387.129.581s-.032.355-.097.549c-.097.161-.194.323-.29.452-.13.13-.291.226-.453.29s-.355.097-.548.097-.388-.032-.581-.129a1.88 1.88 0 0 1-.485-.355s0-.032-.032-.032c-.097-.13-.161-.258-.226-.388a3.528 3.528 0 0 0-.258-.484c-.065-.064-.097-.161-.162-.226-.032-.064-.097-.161-.193-.194-.13-.096-.29-.129-.42-.064l-.032-.032a.992.992 0 0 0-.323.484c-.194.484-.355.968-.484 1.485l-.065.29-.581 1.905-.807 1.808c-.29.387-.678.678-1.13.904-.42.194-.904.323-1.388.323-2.002.032-2.938-1.776-2.938-1.776C.452 8.372.129 5.918.032 5.111 0 5.014 0 4.918 0 4.821c0-.259.065-.485.194-.71s.29-.388.516-.517c.226-.097.484-.162.743-.162.42.033.807.226 1.065.582.162.29.258.58.258.903.065.743.226 1.453.42 2.131Z"/><path fill="url(#brand_ciscoWebex_clr__u)" stroke-width="0" d="M3.196 7.048c.161.549.387 1.066.646 1.582.097.226.258.42.452.581l.129.065c.323.064.484-.194.613-.42.162-.387.29-.775.388-1.162.032-.065.032-.13.064-.226.032-.13.065-.29.097-.42l1.42-3.777a3.2 3.2 0 0 1 1.13-.936c.42-.226.904-.355 1.389-.355.71 0 1.388.258 1.937.678.936.71 1.485 2.098 1.485 2.098.064.194.129.387.129.581s-.032.355-.097.549c-.097.161-.194.323-.29.452-.13.13-.291.226-.453.29s-.355.097-.548.097-.388-.032-.581-.129a1.88 1.88 0 0 1-.485-.355s0-.032-.032-.032c-.097-.13-.161-.258-.226-.388a3.528 3.528 0 0 0-.258-.484c-.065-.064-.097-.161-.162-.226-.032-.064-.097-.161-.193-.194-.13-.096-.29-.129-.42-.064l-.032-.032a.992.992 0 0 0-.323.484c-.194.484-.355.968-.484 1.485l-.065.29-.581 1.905-.807 1.808c-.29.387-.678.678-1.13.904-.42.194-.904.323-1.388.323-2.002.032-2.938-1.776-2.938-1.776C.452 8.372.129 5.918.032 5.111 0 5.014 0 4.918 0 4.821c0-.259.065-.485.194-.71s.29-.388.516-.517c.226-.097.484-.162.743-.162.42.033.807.226 1.065.582.162.29.258.58.258.903.065.743.226 1.453.42 2.131Z"/><path fill="url(#brand_ciscoWebex_clr__v)" stroke-width="0" d="m6.102 5.628.904-2.39a3.2 3.2 0 0 1 1.13-.935c.451-.194.936-.323 1.42-.323.71 0 1.388.258 1.937.678.936.71 1.485 2.098 1.485 2.098.065.194.13.387.13.581s-.033.355-.098.549c-.097.161-.193.323-.29.452-.13.13-.29.226-.452.29s-.355.097-.55.097-.386-.032-.58-.129a1.88 1.88 0 0 1-.484-.355s0-.032-.033-.032c-.097-.13-.161-.258-.226-.388a3.528 3.528 0 0 0-.258-.484c-.065-.064-.097-.161-.161-.226-.033-.064-.097-.161-.194-.194-.13-.096-.29-.129-.42-.064l-.064-.032a.992.992 0 0 0-.323.484c-.194.484-.355.968-.484 1.485l-.065.29-.581 1.905-1.743-3.357Z"/><path fill="url(#brand_ciscoWebex_clr__w)" stroke-width="0" d="M12.623 3.497c-.097 0-.226.032-.323.032.258.388.484.775.646 1.195.064.193.129.387.129.58s-.032.356-.097.55c-.097.161-.194.323-.29.452-.13.129-.291.258-.453.29a1.508 1.508 0 0 1-.548.097c-.259 0-.485-.064-.71-.194l-.13.55c-.097.419-.258.806-.452 1.194-.097.226-.226.452-.355.678a.95.95 0 0 1-.387.322c-.065 0-.13.033-.162.033a.459.459 0 0 1-.193-.065c-.097-.097-.194-.194-.259-.323s-.129-.258-.193-.42c-.13-.29-.323-1.032-.323-1.032l-.194-.775-.194-.775-.129-.517a5.819 5.819 0 0 0-.871-2.001c-.388-.581-.969-1-1.615-1.227-.484-.161-1.033-.194-1.55-.13A3.53 3.53 0 0 0 1.777 3.53c.129.033.258.097.387.162.161.097.29.226.387.355.162.29.259.58.259.904.064.678.193 1.388.387 2.034.194-.743.517-1.42.936-2.067l.194-.193c.032-.033.097-.033.13-.033.096 0 .16.033.225.065.032 0 .032.032.032.032l.194.194.29.581c.162.452.291 1 .291 1l.388 1.583a9.51 9.51 0 0 0 .548 1.614c.614 1.42 1.55 1.808 1.55 1.808.452.226.969.387 1.485.387.484.033 1-.097 1.42-.29a4.21 4.21 0 0 0 1.26-1.001c.193-.29.387-.581.548-.904.388-.743.646-1.517.872-2.324.13-.485.258-1.001.323-1.518.032-.258.064-.484.097-.742a1.76 1.76 0 0 0-.033-.71c-.032-.033-.032-.065-.032-.13-.129-.29-.323-.548-.613-.71a2.298 2.298 0 0 0-.678-.129Z"/><path fill="url(#brand_ciscoWebex_clr__x)" stroke-width="0" d="M12.623 3.497c-.097 0-.226.032-.323.032.258.388.484.775.646 1.195.064.193.129.387.129.58s-.032.356-.097.55c-.097.161-.194.323-.29.452-.13.129-.291.258-.453.29a1.508 1.508 0 0 1-.548.097c-.259 0-.485-.064-.71-.194l-.13.55c-.097.419-.258.806-.452 1.194-.097.226-.226.452-.355.678a.95.95 0 0 1-.387.322c-.065 0-.13.033-.162.033a.459.459 0 0 1-.193-.065c-.097-.097-.194-.194-.259-.323s-.129-.258-.193-.42c-.13-.29-.323-1.032-.323-1.032l-.194-.775-.194-.775-.129-.517a5.819 5.819 0 0 0-.871-2.001c-.388-.581-.969-1-1.615-1.227-.484-.161-1.033-.194-1.55-.13A3.53 3.53 0 0 0 1.777 3.53c.129.033.258.097.387.162.161.097.29.226.387.355.162.29.259.58.259.904.064.678.193 1.388.387 2.034.194-.743.517-1.42.936-2.067l.194-.193c.032-.033.097-.033.13-.033.096 0 .16.033.225.065.032 0 .032.032.032.032l.194.194.29.581c.162.452.291 1 .291 1l.388 1.583a9.51 9.51 0 0 0 .548 1.614c.614 1.42 1.55 1.808 1.55 1.808.452.226.969.387 1.485.387.484.033 1-.097 1.42-.29a4.21 4.21 0 0 0 1.26-1.001c.193-.29.387-.581.548-.904.388-.743.646-1.517.872-2.324.13-.485.258-1.001.323-1.518.032-.258.064-.484.097-.742a1.76 1.76 0 0 0-.033-.71c-.032-.033-.032-.065-.032-.13-.129-.29-.323-.548-.613-.71a2.298 2.298 0 0 0-.678-.129Z"/><path fill="url(#brand_ciscoWebex_clr__y)" stroke-width="0" d="M12.623 3.497c-.097 0-.226.032-.323.032.258.388.484.775.646 1.195.064.193.129.387.129.58s-.032.356-.097.55c-.097.161-.194.323-.29.452-.13.129-.291.258-.453.29a1.508 1.508 0 0 1-.548.097c-.259 0-.485-.064-.71-.194l-.13.55c-.097.419-.258.806-.452 1.194-.097.226-.226.452-.355.678a.95.95 0 0 1-.387.322c-.065 0-.13.033-.162.033a.459.459 0 0 1-.193-.065c-.097-.097-.194-.194-.259-.323s-.129-.258-.193-.42c-.13-.29-.323-1.032-.323-1.032l-.194-.775-.194-.775-.129-.517a5.819 5.819 0 0 0-.871-2.001c-.388-.581-.969-1-1.615-1.227-.484-.161-1.033-.194-1.55-.13A3.53 3.53 0 0 0 1.777 3.53c.129.033.258.097.387.162.161.097.29.226.387.355.162.29.259.58.259.904.064.678.193 1.388.387 2.034.194-.743.517-1.42.936-2.067l.194-.193c.032-.033.097-.033.13-.033.096 0 .16.033.225.065.032 0 .032.032.032.032l.194.194.29.581c.162.452.291 1 .291 1l.388 1.583a9.51 9.51 0 0 0 .548 1.614c.614 1.42 1.55 1.808 1.55 1.808.452.226.969.387 1.485.387.484.033 1-.097 1.42-.29a4.21 4.21 0 0 0 1.26-1.001c.193-.29.387-.581.548-.904.388-.743.646-1.517.872-2.324.13-.485.258-1.001.323-1.518.032-.258.064-.484.097-.742a1.76 1.76 0 0 0-.033-.71c-.032-.033-.032-.065-.032-.13-.129-.29-.323-.548-.613-.71a2.298 2.298 0 0 0-.678-.129Z"/><path fill="url(#brand_ciscoWebex_clr__z)" stroke-width="0" d="M12.623 3.497c-.097 0-.226.032-.323.032.258.388.484.775.646 1.195.064.193.129.387.129.58s-.032.356-.097.55c-.097.161-.194.323-.29.452-.13.129-.291.258-.453.29a1.508 1.508 0 0 1-.548.097c-.259 0-.485-.064-.71-.194l-.13.55c-.097.419-.258.806-.452 1.194-.097.226-.226.452-.355.678a.95.95 0 0 1-.387.322c-.065 0-.13.033-.162.033a.459.459 0 0 1-.193-.065c-.097-.097-.194-.194-.259-.323s-.129-.258-.193-.42c-.13-.29-.323-1.032-.323-1.032l-.194-.775-.194-.775-.129-.517a5.819 5.819 0 0 0-.871-2.001c-.388-.581-.969-1-1.615-1.227-.484-.161-1.033-.194-1.55-.13A3.53 3.53 0 0 0 1.777 3.53c.129.033.258.097.387.162.161.097.29.226.387.355.162.29.259.58.259.904.064.678.193 1.388.387 2.034.194-.743.517-1.42.936-2.067l.194-.193c.032-.033.097-.033.13-.033.096 0 .16.033.225.065.032 0 .032.032.032.032l.194.194.29.581c.162.452.291 1 .291 1l.388 1.583a9.51 9.51 0 0 0 .548 1.614c.614 1.42 1.55 1.808 1.55 1.808.452.226.969.387 1.485.387.484.033 1-.097 1.42-.29a4.21 4.21 0 0 0 1.26-1.001c.193-.29.387-.581.548-.904.388-.743.646-1.517.872-2.324.13-.485.258-1.001.323-1.518.032-.258.064-.484.097-.742a1.76 1.76 0 0 0-.033-.71c-.032-.033-.032-.065-.032-.13-.129-.29-.323-.548-.613-.71a2.298 2.298 0 0 0-.678-.129Z"/><path fill="url(#brand_ciscoWebex_clr__aa)" stroke-width="0" d="M12.623 3.497c-.097 0-.226.032-.323.032.258.388.484.775.646 1.195.064.193.129.387.129.58s-.032.356-.097.55c-.097.161-.194.323-.29.452-.13.129-.291.258-.453.29a1.508 1.508 0 0 1-.548.097c-.259 0-.485-.064-.71-.194l-.13.55c-.097.419-.258.806-.452 1.194-.097.226-.226.452-.355.678a.95.95 0 0 1-.387.322c-.065 0-.13.033-.162.033a.459.459 0 0 1-.193-.065c-.097-.097-.194-.194-.259-.323s-.129-.258-.193-.42c-.13-.29-.323-1.032-.323-1.032l-.194-.775-.194-.775-.129-.517a5.819 5.819 0 0 0-.871-2.001c-.388-.581-.969-1-1.615-1.227-.484-.161-1.033-.194-1.55-.13A3.53 3.53 0 0 0 1.777 3.53c.129.033.258.097.387.162.161.097.29.226.387.355.162.29.259.58.259.904.064.678.193 1.388.387 2.034.194-.743.517-1.42.936-2.067l.194-.193c.032-.033.097-.033.13-.033.096 0 .16.033.225.065.032 0 .032.032.032.032l.194.194.29.581c.162.452.291 1 .291 1l.388 1.583a9.51 9.51 0 0 0 .548 1.614c.614 1.42 1.55 1.808 1.55 1.808.452.226.969.387 1.485.387.484.033 1-.097 1.42-.29a4.21 4.21 0 0 0 1.26-1.001c.193-.29.387-.581.548-.904.388-.743.646-1.517.872-2.324.13-.485.258-1.001.323-1.518.032-.258.064-.484.097-.742a1.76 1.76 0 0 0-.033-.71c-.032-.033-.032-.065-.032-.13-.129-.29-.323-.548-.613-.71a2.298 2.298 0 0 0-.678-.129Z"/><path fill="url(#brand_ciscoWebex_clr__ab)" stroke-width="0" d="M12.623 3.497c-.097 0-.226.032-.323.032.258.388.484.775.646 1.195.064.193.129.387.129.58s-.032.356-.097.55c-.097.161-.194.323-.29.452-.13.129-.291.258-.453.29a1.508 1.508 0 0 1-.548.097c-.259 0-.485-.064-.71-.194l-.13.55c-.097.419-.258.806-.452 1.194-.097.226-.226.452-.355.678a.95.95 0 0 1-.387.322c-.065 0-.13.033-.162.033a.459.459 0 0 1-.193-.065c-.097-.097-.194-.194-.259-.323s-.129-.258-.193-.42c-.13-.29-.323-1.032-.323-1.032l-.194-.775-.194-.775-.129-.517a5.819 5.819 0 0 0-.871-2.001c-.388-.581-.969-1-1.615-1.227-.484-.161-1.033-.194-1.55-.13A3.53 3.53 0 0 0 1.777 3.53c.129.033.258.097.387.162.161.097.29.226.387.355.162.29.259.58.259.904.064.678.193 1.388.387 2.034.194-.743.517-1.42.936-2.067l.194-.193c.032-.033.097-.033.13-.033.096 0 .16.033.225.065.032 0 .032.032.032.032l.194.194.29.581c.162.452.291 1 .291 1l.388 1.583a9.51 9.51 0 0 0 .548 1.614c.614 1.42 1.55 1.808 1.55 1.808.452.226.969.387 1.485.387.484.033 1-.097 1.42-.29a4.21 4.21 0 0 0 1.26-1.001c.193-.29.387-.581.548-.904.388-.743.646-1.517.872-2.324.13-.485.258-1.001.323-1.518.032-.258.064-.484.097-.742a1.76 1.76 0 0 0-.033-.71c-.032-.033-.032-.065-.032-.13-.129-.29-.323-.548-.613-.71a2.298 2.298 0 0 0-.678-.129Z"/><path fill="url(#brand_ciscoWebex_clr__ac)" stroke-width="0" d="M12.623 3.497c-.097 0-.226.032-.323.032.258.388.484.775.646 1.195.064.193.129.387.129.58s-.032.356-.097.55c-.097.161-.194.323-.29.452-.13.129-.291.258-.453.29a1.508 1.508 0 0 1-.548.097c-.259 0-.485-.064-.71-.194l-.13.55c-.097.419-.258.806-.452 1.194-.097.226-.226.452-.355.678a.95.95 0 0 1-.387.322c-.065 0-.13.033-.162.033a.459.459 0 0 1-.193-.065c-.097-.097-.194-.194-.259-.323s-.129-.258-.193-.42c-.13-.29-.323-1.032-.323-1.032l-.194-.775-.194-.775-.129-.517a5.819 5.819 0 0 0-.871-2.001c-.388-.581-.969-1-1.615-1.227-.484-.161-1.033-.194-1.55-.13A3.53 3.53 0 0 0 1.777 3.53c.129.033.258.097.387.162.161.097.29.226.387.355.162.29.259.58.259.904.064.678.193 1.388.387 2.034.194-.743.517-1.42.936-2.067l.194-.193c.032-.033.097-.033.13-.033.096 0 .16.033.225.065.032 0 .032.032.032.032l.194.194.29.581c.162.452.291 1 .291 1l.388 1.583a9.51 9.51 0 0 0 .548 1.614c.614 1.42 1.55 1.808 1.55 1.808.452.226.969.387 1.485.387.484.033 1-.097 1.42-.29a4.21 4.21 0 0 0 1.26-1.001c.193-.29.387-.581.548-.904.388-.743.646-1.517.872-2.324.13-.485.258-1.001.323-1.518.032-.258.064-.484.097-.742a1.76 1.76 0 0 0-.033-.71c-.032-.033-.032-.065-.032-.13-.129-.29-.323-.548-.613-.71a2.298 2.298 0 0 0-.678-.129Z"/><path fill="url(#brand_ciscoWebex_clr__ad)" stroke-width="0" d="M12.623 3.497c-.097 0-.226.032-.323.032.258.388.484.775.646 1.195.064.193.129.387.129.58s-.032.356-.097.55c-.097.161-.194.323-.29.452-.13.129-.291.258-.453.29a1.508 1.508 0 0 1-.548.097c-.259 0-.485-.064-.71-.194l-.13.55c-.097.419-.258.806-.452 1.194-.097.226-.226.452-.355.678a.95.95 0 0 1-.387.322c-.065 0-.13.033-.162.033a.459.459 0 0 1-.193-.065c-.097-.097-.194-.194-.259-.323s-.129-.258-.193-.42c-.13-.29-.323-1.032-.323-1.032l-.194-.775-.194-.775-.129-.517a5.819 5.819 0 0 0-.871-2.001c-.388-.581-.969-1-1.615-1.227-.484-.161-1.033-.194-1.55-.13A3.53 3.53 0 0 0 1.777 3.53c.129.033.258.097.387.162.161.097.29.226.387.355.162.29.259.58.259.904.064.678.193 1.388.387 2.034.194-.743.517-1.42.936-2.067l.194-.193c.032-.033.097-.033.13-.033.096 0 .16.033.225.065.032 0 .032.032.032.032l.194.194.29.581c.162.452.291 1 .291 1l.388 1.583a9.51 9.51 0 0 0 .548 1.614c.614 1.42 1.55 1.808 1.55 1.808.452.226.969.387 1.485.387.484.033 1-.097 1.42-.29a4.21 4.21 0 0 0 1.26-1.001c.193-.29.387-.581.548-.904.388-.743.646-1.517.872-2.324.13-.485.258-1.001.323-1.518.032-.258.064-.484.097-.742a1.76 1.76 0 0 0-.033-.71c-.032-.033-.032-.065-.032-.13-.129-.29-.323-.548-.613-.71a2.298 2.298 0 0 0-.678-.129Z"/><path fill="url(#brand_ciscoWebex_clr__ae)" stroke-width="0" d="M12.623 3.497c-.097 0-.226.032-.323.032.258.388.484.775.646 1.195.064.193.129.387.129.58s-.032.356-.097.55c-.097.161-.194.323-.29.452-.13.129-.291.258-.453.29a1.508 1.508 0 0 1-.548.097c-.259 0-.485-.064-.71-.194l-.13.55c-.097.419-.258.806-.452 1.194-.097.226-.226.452-.355.678a.95.95 0 0 1-.387.322c-.065 0-.13.033-.162.033a.459.459 0 0 1-.193-.065c-.097-.097-.194-.194-.259-.323s-.129-.258-.193-.42c-.13-.29-.323-1.032-.323-1.032l-.194-.775-.194-.775-.129-.517a5.819 5.819 0 0 0-.871-2.001c-.388-.581-.969-1-1.615-1.227-.484-.161-1.033-.194-1.55-.13A3.53 3.53 0 0 0 1.777 3.53c.129.033.258.097.387.162.161.097.29.226.387.355.162.29.259.58.259.904.064.678.193 1.388.387 2.034.194-.743.517-1.42.936-2.067l.194-.193c.032-.033.097-.033.13-.033.096 0 .16.033.225.065.032 0 .032.032.032.032l.194.194.29.581c.162.452.291 1 .291 1l.388 1.583a9.51 9.51 0 0 0 .548 1.614c.614 1.42 1.55 1.808 1.55 1.808.452.226.969.387 1.485.387.484.033 1-.097 1.42-.29a4.21 4.21 0 0 0 1.26-1.001c.193-.29.387-.581.548-.904.388-.743.646-1.517.872-2.324.13-.485.258-1.001.323-1.518.032-.258.064-.484.097-.742a1.76 1.76 0 0 0-.033-.71c-.032-.033-.032-.065-.032-.13-.129-.29-.323-.548-.613-.71a2.298 2.298 0 0 0-.678-.129Z"/><path fill="url(#brand_ciscoWebex_clr__af)" stroke-width="0" d="M12.623 3.497c-.097 0-.226.032-.323.032.258.388.484.775.646 1.195.064.193.129.387.129.58s-.032.356-.097.55c-.097.161-.194.323-.29.452-.13.129-.291.258-.453.29a1.508 1.508 0 0 1-.548.097c-.259 0-.485-.064-.71-.194l-.13.55c-.097.419-.258.806-.452 1.194-.097.226-.226.452-.355.678a.95.95 0 0 1-.387.322c-.065 0-.13.033-.162.033a.459.459 0 0 1-.193-.065c-.097-.097-.194-.194-.259-.323s-.129-.258-.193-.42c-.13-.29-.323-1.032-.323-1.032l-.194-.775-.194-.775-.129-.517a5.819 5.819 0 0 0-.871-2.001c-.388-.581-.969-1-1.615-1.227-.484-.161-1.033-.194-1.55-.13A3.53 3.53 0 0 0 1.777 3.53c.129.033.258.097.387.162.161.097.29.226.387.355.162.29.259.58.259.904.064.678.193 1.388.387 2.034.194-.743.517-1.42.936-2.067l.194-.193c.032-.033.097-.033.13-.033.096 0 .16.033.225.065.032 0 .032.032.032.032l.194.194.29.581c.162.452.291 1 .291 1l.388 1.583a9.51 9.51 0 0 0 .548 1.614c.614 1.42 1.55 1.808 1.55 1.808.452.226.969.387 1.485.387.484.033 1-.097 1.42-.29a4.21 4.21 0 0 0 1.26-1.001c.193-.29.387-.581.548-.904.388-.743.646-1.517.872-2.324.13-.485.258-1.001.323-1.518.032-.258.064-.484.097-.742a1.76 1.76 0 0 0-.033-.71c-.032-.033-.032-.065-.032-.13-.129-.29-.323-.548-.613-.71a2.298 2.298 0 0 0-.678-.129Z"/><path fill="url(#brand_ciscoWebex_clr__ag)" stroke-width="0" d="M12.623 3.497c-.097 0-.226.032-.323.032.258.388.484.775.646 1.195.064.193.129.387.129.58s-.032.356-.097.55c-.097.161-.194.323-.29.452-.13.129-.291.258-.453.29a1.508 1.508 0 0 1-.548.097c-.259 0-.485-.064-.71-.194l-.13.55c-.097.419-.258.806-.452 1.194-.097.226-.226.452-.355.678a.95.95 0 0 1-.387.322c-.065 0-.13.033-.162.033a.459.459 0 0 1-.193-.065c-.097-.097-.194-.194-.259-.323s-.129-.258-.193-.42c-.13-.29-.323-1.032-.323-1.032l-.194-.775-.194-.775-.129-.517a5.819 5.819 0 0 0-.871-2.001c-.388-.581-.969-1-1.615-1.227-.484-.161-1.033-.194-1.55-.13A3.53 3.53 0 0 0 1.777 3.53c.129.033.258.097.387.162.161.097.29.226.387.355.162.29.259.58.259.904.064.678.193 1.388.387 2.034.194-.743.517-1.42.936-2.067l.194-.193c.032-.033.097-.033.13-.033.096 0 .16.033.225.065.032 0 .032.032.032.032l.194.194.29.581c.162.452.291 1 .291 1l.388 1.583a9.51 9.51 0 0 0 .548 1.614c.614 1.42 1.55 1.808 1.55 1.808.452.226.969.387 1.485.387.484.033 1-.097 1.42-.29a4.21 4.21 0 0 0 1.26-1.001c.193-.29.387-.581.548-.904.388-.743.646-1.517.872-2.324.13-.485.258-1.001.323-1.518.032-.258.064-.484.097-.742a1.76 1.76 0 0 0-.033-.71c-.032-.033-.032-.065-.032-.13-.129-.29-.323-.548-.613-.71a2.298 2.298 0 0 0-.678-.129Z"/><path fill="url(#brand_ciscoWebex_clr__ah)" stroke-width="0" d="M12.623 3.497c-.097 0-.226.032-.323.032.258.388.484.775.646 1.195.064.193.129.387.129.58s-.032.356-.097.55c-.097.161-.194.323-.29.452-.13.129-.291.258-.453.29a1.508 1.508 0 0 1-.548.097c-.259 0-.485-.064-.71-.194l-.13.55c-.097.419-.258.806-.452 1.194-.097.226-.226.452-.355.678a.95.95 0 0 1-.387.322c-.065 0-.13.033-.162.033a.459.459 0 0 1-.193-.065c-.097-.097-.194-.194-.259-.323s-.129-.258-.193-.42c-.13-.29-.323-1.032-.323-1.032l-.194-.775-.194-.775-.129-.517a5.819 5.819 0 0 0-.871-2.001c-.388-.581-.969-1-1.615-1.227-.484-.161-1.033-.194-1.55-.13A3.53 3.53 0 0 0 1.777 3.53c.129.033.258.097.387.162.161.097.29.226.387.355.162.29.259.58.259.904.064.678.193 1.388.387 2.034.194-.743.517-1.42.936-2.067l.194-.193c.032-.033.097-.033.13-.033.096 0 .16.033.225.065.032 0 .032.032.032.032l.194.194.29.581c.162.452.291 1 .291 1l.388 1.583a9.51 9.51 0 0 0 .548 1.614c.614 1.42 1.55 1.808 1.55 1.808.452.226.969.387 1.485.387.484.033 1-.097 1.42-.29a4.21 4.21 0 0 0 1.26-1.001c.193-.29.387-.581.548-.904.388-.743.646-1.517.872-2.324.13-.485.258-1.001.323-1.518.032-.258.064-.484.097-.742a1.76 1.76 0 0 0-.033-.71c-.032-.033-.032-.065-.032-.13-.129-.29-.323-.548-.613-.71a2.298 2.298 0 0 0-.678-.129Z"/><path fill="url(#brand_ciscoWebex_clr__ai)" stroke-width="0" d="M12.623 3.497c-.097 0-.226.032-.323.032.258.388.484.775.646 1.195.064.193.129.387.129.58s-.032.356-.097.55c-.097.161-.194.323-.29.452-.13.129-.291.258-.453.29a1.508 1.508 0 0 1-.548.097c-.259 0-.485-.064-.71-.194l-.13.55c-.097.419-.258.806-.452 1.194-.097.226-.226.452-.355.678a.95.95 0 0 1-.387.322c-.065 0-.13.033-.162.033a.459.459 0 0 1-.193-.065c-.097-.097-.194-.194-.259-.323s-.129-.258-.193-.42c-.13-.29-.323-1.032-.323-1.032l-.194-.775-.194-.775-.129-.517a5.819 5.819 0 0 0-.871-2.001c-.388-.581-.969-1-1.615-1.227-.484-.161-1.033-.194-1.55-.13A3.53 3.53 0 0 0 1.777 3.53c.129.033.258.097.387.162.161.097.29.226.387.355.162.29.259.58.259.904.064.678.193 1.388.387 2.034.194-.743.517-1.42.936-2.067l.194-.193c.032-.033.097-.033.13-.033.096 0 .16.033.225.065.032 0 .032.032.032.032l.194.194.29.581c.162.452.291 1 .291 1l.388 1.583a9.51 9.51 0 0 0 .548 1.614c.614 1.42 1.55 1.808 1.55 1.808.452.226.969.387 1.485.387.484.033 1-.097 1.42-.29a4.21 4.21 0 0 0 1.26-1.001c.193-.29.387-.581.548-.904.388-.743.646-1.517.872-2.324.13-.485.258-1.001.323-1.518.032-.258.064-.484.097-.742a1.76 1.76 0 0 0-.033-.71c-.032-.033-.032-.065-.032-.13-.129-.29-.323-.548-.613-.71a2.298 2.298 0 0 0-.678-.129Z"/><path fill="url(#brand_ciscoWebex_clr__aj)" stroke-width="0" d="M12.623 3.497c-.097 0-.226.032-.323.032.258.388.484.775.646 1.195.064.193.129.387.129.58s-.032.356-.097.55c-.097.161-.194.323-.29.452-.13.129-.291.258-.453.29a1.508 1.508 0 0 1-.548.097c-.259 0-.485-.064-.71-.194l-.13.55c-.097.419-.258.806-.452 1.194-.097.226-.226.452-.355.678a.95.95 0 0 1-.387.322c-.065 0-.13.033-.162.033a.459.459 0 0 1-.193-.065c-.097-.097-.194-.194-.259-.323s-.129-.258-.193-.42c-.13-.29-.323-1.032-.323-1.032l-.194-.775-.194-.775-.129-.517a5.819 5.819 0 0 0-.871-2.001c-.388-.581-.969-1-1.615-1.227-.484-.161-1.033-.194-1.55-.13A3.53 3.53 0 0 0 1.777 3.53c.129.033.258.097.387.162.161.097.29.226.387.355.162.29.259.58.259.904.064.678.193 1.388.387 2.034.194-.743.517-1.42.936-2.067l.194-.193c.032-.033.097-.033.13-.033.096 0 .16.033.225.065.032 0 .032.032.032.032l.194.194.29.581c.162.452.291 1 .291 1l.388 1.583a9.51 9.51 0 0 0 .548 1.614c.614 1.42 1.55 1.808 1.55 1.808.452.226.969.387 1.485.387.484.033 1-.097 1.42-.29a4.21 4.21 0 0 0 1.26-1.001c.193-.29.387-.581.548-.904.388-.743.646-1.517.872-2.324.13-.485.258-1.001.323-1.518.032-.258.064-.484.097-.742a1.76 1.76 0 0 0-.033-.71c-.032-.033-.032-.065-.032-.13-.129-.29-.323-.548-.613-.71a2.298 2.298 0 0 0-.678-.129Z"/></svg>