<svg data-tags="Cisco,webex" id="brand_ciscoWebex__a" xmlns="http://www.w3.org/2000/svg" viewBox="0 0 14 14"><path d="m5.64015,8.19983l-.16998-.66003c-.01001.06-.03809.09125-.04999.15002-.09003.39001-.22003.77997-.38,1.16998-.13.22003-.29004.47998-.62.41998l-.13-.06995c-.19-.16003-.35004-.35004-.45001-.58002-.20001-.41003-.38-.81-.53003-1.22003l-.04999-.17999c-.02002-.06-.03998-.12-.06-.17999-.03998-.14001-.08002-.27997-.10999-.41998-.10999-.40002-.19-.78003-.25-1.16003-.02002-.17999-.03998-.34998-.06-.52997,0-.08002-.01001-.16003-.02002-.22998-.02002-.16003-.06-.32001-.13-.47003v-.01001c-.02997-.07001-.07001-.14996-.10999-.21997-.01001-.01001-.01001-.02002-.02002-.02002-.06-.08002-.13995-.15997-.21997-.22998-.04004-.03003-.08002-.06-.12-.08002-.15002-.10999-.33002-.17999-.51001-.21002-.07001-.01996-.13-.02997-.20001-.03998-.26001,0-.51001.07001-.73999.15997-.22998.13-.39001.30005-.52002.52002C.06014,4.33978.00014,4.55981.00014,4.81982.00014,4.9198.00014,5.01984.03017,5.1098c.09998.81.41998,3.26001,1.54999,5.13,0,0,.94,1.81,2.94,1.78003.47998,0,.96997-.13,1.39001-.32001.37-.19.70996-.42004.96997-.72003-.26996-.31-.5-.69-.69-1.12-.26996-.64001-.45001-1.16998-.54999-1.65997Z"/><path d="m7.31014,3.18982c.45001.65997.76001,1.35999.94,2.12l.31,1.25c.11005-.42999.25-.84003.41003-1.25.07001-.20001.16998-.35999.33002-.48999.13-.06.29248-.04559.42249.05438.10303.07001.1875.1756.21747.2356.07001.07001.10004.16003.16003.22998.09998.16003.20001.32001.26001.48004.06995.13.12994.26001.22998.39001.02997,0,.02997.02997.02997.02997.04004.03998.09003.09003.14001.12l.01001.01001c.07001.06.13.10999.21002.15002.03998.02997.07996.06.13.07996.09503.04504.19.07751.28625.09875.00128.00024.00244.00104.00372.00128.08997.01996.19.02997.28998.02997.19,0,.38-.03998.54999-.09998.08087-.0354.16156-.07611.23853-.12427.00354-.0022.00793-.00354.01147-.00574.07001-.04999.14001-.10004.20001-.16003.01001-.00995.01001-.01996.02002-.02997.03998-.04999.20001-.31.27002-.41998.02997-.10004.06-.20001.07001-.29004.00995-.07996.01996-.16998.01996-.26001,0-.19-.06-.37994-.12-.58997-.08002-.16003-.20001-.44-.39001-.76001-.08997-.16998-.21997-.35999-.35999-.54999l-.01001-.02002c-.03998-.04999-.07001-.08997-.10999-.14001-.17999-.22998-.39001-.44-.62-.62-.54999-.41998-1.22998-.67999-1.94-.67999-.47998,0-.96997.13-1.38.35999-.37.17004-.67999.41003-.94.70001v.01001c.02002.02002.03003.03998.04999.06,0,0,.03003.03998.06.08002Z"/><path d="m13.95015,4.46979c-.0199-.0791-.01843-.07098-.03998-.13-.13-.28998-.32001-.54999-.60999-.70996-.19-.07001-.45001-.13-.68005-.13-.01996,0-.04999,0-.06995.01001.39996.57996.60999,1.12.62994,1.14996.07001.23004.14001.45001.14001.67999,0,.21002-.02997.40002-.09998.63-.13.21002-.23004.38-.33002.52002-.16998.16998-.35999.28998-.56.37-.19.08002-.40997.12-.64001.12-.26001,0-.48999-.04999-.70001-.15997-.01996-.01001-.04999-.02002-.06995-.04999l-.07001.27997c-.10004.41998-.26001.81-.45001,1.19-.09998.22998-.22998.46002-.35999.67999-.10004.13-.23004.26001-.39001.32001-.06,0-.13.03998-.16003.03998-.06,0-.12994-.03998-.18994-.06995-.10004-.09003-.20001-.19-.26001-.32001-.07001-.13-.13-.26001-.19-.42004-.10004-.22998-.23999-.71997-.29999-.92999-.02002-.06-.03003-.09998-.03003-.09998l-.09003-.35999v-.01001l-.09998-.41003-.19-.76996-.13-.52002c-.16998-.71002-.45996-1.39001-.88-2-.02997-.03998-.06-.09003-.09998-.13-.04004-.07001-.10004-.13-.15002-.19-.35999-.41998-.83997-.71997-1.35999-.90997-.47998-.16003-1.03003-.19-1.54999-.13-.81.17999-1.52002.63995-2.02002,1.28998.31.09998.58002.29999.77002.57001.20996.38.31.70001.31,1.04999.03998.5.13,1.03003.29999,1.64001.19-.58002.46002-1.12.79999-1.64001l.20001-.20001c.03003-.02997.09003-.02997.12-.02997.10004,0,.16998.02997.22998.07001.03003,0,.03003.02997.03003.02997.07001.06.13.13.20001.19.08997.20001.19.39001.28998.58002.16003.46002.28998,1,.28998,1v.02002l.11005.42999.27997,1.13995c.12.55005.32001,1.09003.54004,1.61005.19.44.40997.76996.62,1.02997.06.07001.10999.13.16998.19.40997.44.76001.59003.76001.59003.45996.21997.96997.39001,1.48999.39001.47998.02997,1-.10004,1.41998-.29004.48004-.26001.90002-.58997,1.26001-1.01001.19-.28998.39001-.57996.54999-.89996.38-.73999.64001-1.52002.87-2.32001.13-.48999.26001-1,.32001-1.52002.03003-.26001.07001-.48999.10004-.73999.02997-.22998.02997-.48999-.03003-.71002Z"/></svg>