<svg xmlns="http://www.w3.org/2000/svg" xmlns:xlink="http://www.w3.org/1999/xlink" id="brand_ciscoWebexCircle_clr__a" data-name="Layer 1" data-tags="cisco,webex" viewBox="0 0 14 14"><defs><radialGradient id="brand_ciscoWebexCircle_clr__c" cx="-1332.275" cy="-321.887" r=".129" fx="-1332.275" fy="-321.887" gradientTransform="matrix(7.08 25.23 -19.17014 5.3795 3269.463 35351.454)" gradientUnits="userSpaceOnUse"><stop offset="0" stop-color="#3e7962"/><stop offset=".14" stop-color="#3e7962" stop-opacity=".81"/><stop offset=".58" stop-color="#3e7962" stop-opacity=".23"/><stop offset=".78" stop-color="#3e7962" stop-opacity="0"/></radialGradient><radialGradient id="brand_ciscoWebexCircle_clr__d" cx="-1320.41" cy="-378.221" r=".129" fx="-1320.41" fy="-378.221" gradientTransform="matrix(-.35 17.71 -13.46 -.27 -5545.018 23288.644)" gradientUnits="userSpaceOnUse"><stop offset="0" stop-color="#3e7962"/><stop offset=".25" stop-color="#3e7962" stop-opacity=".7"/><stop offset=".71" stop-color="#3e7962" stop-opacity=".2"/><stop offset=".92" stop-color="#3e7962" stop-opacity="0"/></radialGradient><radialGradient id="brand_ciscoWebexCircle_clr__e" cx="-1311.088" cy="-388.383" r=".129" fx="-1311.088" fy="-388.383" gradientTransform="matrix(.4 16.51 -11.72 .29 -4019.486 21764.901)" gradientUnits="userSpaceOnUse"><stop offset="0" stop-color="#3e7962"/><stop offset=".07" stop-color="#3e7962" stop-opacity=".9"/><stop offset=".34" stop-color="#3e7962" stop-opacity=".51"/><stop offset=".59" stop-color="#3e7962" stop-opacity=".23"/><stop offset=".79" stop-color="#3e7962" stop-opacity=".06"/><stop offset=".92" stop-color="#3e7962" stop-opacity="0"/></radialGradient><radialGradient id="brand_ciscoWebexCircle_clr__f" cx="-1290.458" cy="-415.335" r=".129" fx="-1290.458" fy="-415.335" gradientTransform="matrix(.33 13.33 -9.47 .23 -3499.29 17303.62)" gradientUnits="userSpaceOnUse"><stop offset="0" stop-color="#3e7962"/><stop offset=".36" stop-color="#3e7962" stop-opacity=".63"/><stop offset=".92" stop-color="#3e7962" stop-opacity="0"/></radialGradient><radialGradient id="brand_ciscoWebexCircle_clr__g" cx="-1263.143" cy="-470.733" r=".129" fx="-1263.143" fy="-470.733" gradientTransform="matrix(.26 10.63 -6.8 .17 -2864.659 13513.458)" gradientUnits="userSpaceOnUse"><stop offset="0" stop-color="#3a715b"/><stop offset=".15" stop-color="#3a725c" stop-opacity=".93"/><stop offset=".38" stop-color="#3b735d" stop-opacity=".74"/><stop offset=".67" stop-color="#3c765f" stop-opacity=".43"/><stop offset="1" stop-color="#3e7962" stop-opacity="0"/></radialGradient><radialGradient id="brand_ciscoWebexCircle_clr__h" cx="-1291.702" cy="-218.004" r=".129" fx="-1291.702" fy="-218.004" gradientTransform="matrix(15.66 6.91 -5.18025 11.73989 19107.023 11491.593)" gradientUnits="userSpaceOnUse"><stop offset="0" stop-color="#3e7862"/><stop offset=".36" stop-color="#3e7862" stop-opacity=".56"/><stop offset=".72" stop-color="#3e7862" stop-opacity=".16"/><stop offset=".9" stop-color="#3e7862" stop-opacity="0"/></radialGradient><radialGradient id="brand_ciscoWebexCircle_clr__i" cx="-1312.683" cy="-256.903" r=".129" fx="-1312.683" fy="-256.903" gradientTransform="matrix(18.63 13.18 -12.05 17.04 21367.158 21681.718)" gradientUnits="userSpaceOnUse"><stop offset="0" stop-color="#6fd5c2"/><stop offset=".07" stop-color="#6ed3c0" stop-opacity=".9"/><stop offset=".41" stop-color="#69cab8" stop-opacity=".42"/><stop offset=".65" stop-color="#66c4b3" stop-opacity=".12"/><stop offset=".76" stop-color="#65c2b1" stop-opacity="0"/></radialGradient><radialGradient id="brand_ciscoWebexCircle_clr__j" cx="-1384.354" cy="-268.234" r=".129" fx="-1384.354" fy="-268.234" gradientTransform="rotate(35.272 -3999389.012 8436276.684) scale(4054.98206 2845.58199)"/><radialGradient id="brand_ciscoWebexCircle_clr__k" cx="-1342.727" cy="-338.991" r=".129" fx="-1342.727" fy="-338.991" gradientTransform="matrix(-3.83 19.76 -24.4194 -4.73311 -13412.178 24935.846)" gradientUnits="userSpaceOnUse"><stop offset="0" stop-color="#407d67" stop-opacity=".8"/><stop offset=".06" stop-color="#498972" stop-opacity=".65"/><stop offset=".21" stop-color="#5ca486" stop-opacity=".37"/><stop offset=".35" stop-color="#6ab794" stop-opacity=".17"/><stop offset=".47" stop-color="#72c19e" stop-opacity=".04"/><stop offset=".56" stop-color="#75c5a1" stop-opacity="0"/></radialGradient><radialGradient id="brand_ciscoWebexCircle_clr__l" cx="-1405.702" cy="-206.005" r=".129" fx="-1405.702" fy="-206.005" gradientTransform="matrix(16.62 -20.39 22.02068 17.94918 27906.21 -24957.317)" gradientUnits="userSpaceOnUse"><stop offset="0" stop-color="#3a7a87"/><stop offset=".04" stop-color="#3a7a87" stop-opacity=".93"/><stop offset=".33" stop-color="#3c7d8a" stop-opacity=".43"/><stop offset=".54" stop-color="#3d7f8c" stop-opacity=".12"/><stop offset=".65" stop-color="#3d808d" stop-opacity="0"/></radialGradient><radialGradient id="brand_ciscoWebexCircle_clr__m" cx="-1380.489" cy="-180.521" r=".129" fx="-1380.489" fy="-180.521" gradientTransform="matrix(21.84 -13.47 10.6438 17.25766 32077.712 -15471.943)" gradientUnits="userSpaceOnUse"><stop offset=".05" stop-color="#3b7b84"/><stop offset=".11" stop-color="#3b7c86" stop-opacity=".8"/><stop offset=".21" stop-color="#3c7d88" stop-opacity=".52"/><stop offset=".32" stop-color="#3d7f8a" stop-opacity=".29"/><stop offset=".42" stop-color="#3d7f8c" stop-opacity=".13"/><stop offset=".51" stop-color="#3d808d" stop-opacity=".03"/><stop offset=".6" stop-color="#3d808d" stop-opacity="0"/></radialGradient><radialGradient id="brand_ciscoWebexCircle_clr__n" cx="-1525.465" cy="-262.315" r=".129" fx="-1525.465" fy="-262.315" gradientTransform="matrix(-9.94 -11.62 9.15 -7.82 -12756.54 -19769.804)" gradientUnits="userSpaceOnUse"><stop offset=".26" stop-color="#3c7d87"/><stop offset=".27" stop-color="#3c7d87" stop-opacity=".98"/><stop offset=".38" stop-color="#3c7e89" stop-opacity=".68"/><stop offset=".5" stop-color="#3d7f8a" stop-opacity=".43"/><stop offset=".62" stop-color="#3d7f8c" stop-opacity=".24"/><stop offset=".74" stop-color="#3d808c" stop-opacity=".11"/><stop offset=".86" stop-color="#3d808d" stop-opacity=".03"/><stop offset="1" stop-color="#3d808d" stop-opacity="0"/></radialGradient><radialGradient id="brand_ciscoWebexCircle_clr__o" cx="-1505.15" cy="-358.772" r=".129" fx="-1505.15" fy="-358.772" gradientTransform="rotate(-173.11 -10633.87 -3218.207) scale(14.33996)" gradientUnits="userSpaceOnUse"><stop offset="0" stop-color="#2f636d"/><stop offset=".11" stop-color="#2f626c" stop-opacity=".73"/><stop offset=".27" stop-color="#2e626c" stop-opacity=".41"/><stop offset=".42" stop-color="#2e626c" stop-opacity=".18"/><stop offset=".55" stop-color="#2e626c" stop-opacity=".05"/><stop offset=".66" stop-color="#2e626c" stop-opacity="0"/></radialGradient><radialGradient id="brand_ciscoWebexCircle_clr__p" cx="-1585.676" cy="-211.569" r=".129" fx="-1585.676" fy="-211.569" gradientTransform="matrix(-4.91 -8.74 7.35038 -4.12933 -6224.985 -14724.215)" gradientUnits="userSpaceOnUse"><stop offset=".13" stop-color="#326871"/><stop offset=".24" stop-color="#346d77" stop-opacity=".79"/><stop offset=".45" stop-color="#387580" stop-opacity=".45"/><stop offset=".65" stop-color="#3a7b87" stop-opacity=".2"/><stop offset=".82" stop-color="#3d7f8b" stop-opacity=".05"/><stop offset=".95" stop-color="#3d808d" stop-opacity="0"/></radialGradient><radialGradient id="brand_ciscoWebexCircle_clr__q" cx="-1437.443" cy="-16.906" r=".129" fx="-1437.443" fy="-16.906" gradientTransform="matrix(5.28 -7.82 6.2 4.18 7699.884 -11162.363)" gradientUnits="userSpaceOnUse"><stop offset="0" stop-color="#438b99"/><stop offset=".1" stop-color="#438b99" stop-opacity=".87"/><stop offset=".41" stop-color="#438b99" stop-opacity=".5"/><stop offset=".67" stop-color="#438b99" stop-opacity=".23"/><stop offset=".88" stop-color="#438b99" stop-opacity=".06"/><stop offset="1" stop-color="#438b99" stop-opacity="0"/></radialGradient><radialGradient id="brand_ciscoWebexCircle_clr__x" cx="-1360.526" cy="-349.242" r=".129" fx="-1360.526" fy="-349.242" gradientTransform="matrix(-4.76 31.17 -20.56981 -3.14123 -13650.84 41317.56)" gradientUnits="userSpaceOnUse"><stop offset="0" stop-color="#233c95"/><stop offset=".4" stop-color="#233c95" stop-opacity=".42"/><stop offset=".7" stop-color="#233c95" stop-opacity="0"/></radialGradient><radialGradient id="brand_ciscoWebexCircle_clr__y" cx="-1385.768" cy="-270.433" r=".129" fx="-1385.768" fy="-270.433" gradientTransform="rotate(98.69 -2926458.039 2023082.991) scale(3878.78753 2091.4091)"/><radialGradient id="brand_ciscoWebexCircle_clr__z" cx="-1387.61" cy="-271.125" r=".129" fx="-1387.61" fy="-271.125" gradientTransform="rotate(98.616 -3423603.31 2494967.918) scale(4619.42695 1908.39558)"/><radialGradient id="brand_ciscoWebexCircle_clr__aa" cx="-1341.549" cy="-336.167" r=".129" fx="-1341.549" fy="-336.167" gradientTransform="matrix(3.32 27.36 -19.09 2.31 -1954.766 37488.055)" gradientUnits="userSpaceOnUse"><stop offset="0" stop-color="#233c95"/><stop offset=".16" stop-color="#233c95" stop-opacity=".69"/><stop offset=".33" stop-color="#233c95" stop-opacity=".4"/><stop offset=".49" stop-color="#233c95" stop-opacity=".18"/><stop offset=".61" stop-color="#233c95" stop-opacity=".05"/><stop offset=".7" stop-color="#233c95" stop-opacity="0"/></radialGradient><radialGradient id="brand_ciscoWebexCircle_clr__ab" cx="-1333.483" cy="-326.787" r=".129" fx="-1333.483" fy="-326.787" gradientTransform="matrix(7.02 25.54 -17.36889 4.77406 3694.175 35623.131)" gradientUnits="userSpaceOnUse"><stop offset="0" stop-color="#203789"/><stop offset=".37" stop-color="#223a90" stop-opacity=".45"/><stop offset=".7" stop-color="#233c95" stop-opacity="0"/></radialGradient><radialGradient id="brand_ciscoWebexCircle_clr__ac" cx="-1259.927" cy="-355.395" r=".129" fx="-1259.927" fy="-355.395" gradientTransform="matrix(3.26 11.87 -11.28052 3.0981 107.581 16065.172)" gradientUnits="userSpaceOnUse"><stop offset="0" stop-color="#203789"/><stop offset=".09" stop-color="#20388c" stop-opacity=".78"/><stop offset=".22" stop-color="#223a90" stop-opacity=".5"/><stop offset=".35" stop-color="#223b91" stop-opacity=".28"/><stop offset=".47" stop-color="#233b93" stop-opacity=".13"/><stop offset=".59" stop-color="#233c95" stop-opacity=".03"/><stop offset=".7" stop-color="#233c95" stop-opacity="0"/></radialGradient><radialGradient id="brand_ciscoWebexCircle_clr__ad" cx="-1260.077" cy="-355.415" r=".129" fx="-1260.077" fy="-355.415" gradientTransform="matrix(3.26 11.87 -11.28052 3.0981 107.881 16067.272)" gradientUnits="userSpaceOnUse"><stop offset="0" stop-color="#233c95" stop-opacity=".8"/><stop offset=".01" stop-color="#233c95" stop-opacity=".78"/><stop offset=".24" stop-color="#233c95" stop-opacity=".45"/><stop offset=".44" stop-color="#233c95" stop-opacity=".2"/><stop offset=".6" stop-color="#233c95" stop-opacity=".05"/><stop offset=".7" stop-color="#233c95" stop-opacity="0"/></radialGradient><radialGradient id="brand_ciscoWebexCircle_clr__ae" cx="-1335.762" cy="-312.171" r=".129" fx="-1335.762" fy="-312.171" gradientTransform="matrix(11.47 27.06 -17.959 7.61233 9719.946 38528.732)" gradientUnits="userSpaceOnUse"><stop offset="0" stop-color="#233c95"/><stop offset=".4" stop-color="#233c95" stop-opacity=".56"/><stop offset=".48" stop-color="#233c95" stop-opacity=".43"/><stop offset=".69" stop-color="#233c95" stop-opacity=".12"/><stop offset=".79" stop-color="#233c95" stop-opacity="0"/></radialGradient><radialGradient id="brand_ciscoWebexCircle_clr__af" cx="-1320.234" cy="-344.93" r=".129" fx="-1320.234" fy="-344.93" gradientTransform="matrix(5.24 21.16 -13.97012 3.45952 2104.24 29136.047)" gradientUnits="userSpaceOnUse"><stop offset="0" stop-color="#233c95"/><stop offset=".06" stop-color="#233c95" stop-opacity=".88"/><stop offset=".21" stop-color="#233c95" stop-opacity=".61"/><stop offset=".36" stop-color="#233c95" stop-opacity=".39"/><stop offset=".51" stop-color="#233c95" stop-opacity=".22"/><stop offset=".67" stop-color="#233c95" stop-opacity=".1"/><stop offset=".83" stop-color="#233c95" stop-opacity=".02"/><stop offset="1" stop-color="#233c95" stop-opacity="0"/></radialGradient><radialGradient id="brand_ciscoWebexCircle_clr__ag" cx="-1320.234" cy="-344.93" r=".129" fx="-1320.234" fy="-344.93" gradientTransform="matrix(5.24 21.16 -13.97012 3.45952 2104.24 29136.047)" gradientUnits="userSpaceOnUse"><stop offset="0" stop-color="#243d97"/><stop offset=".06" stop-color="#243d97" stop-opacity=".87"/><stop offset=".21" stop-color="#243d96" stop-opacity=".61"/><stop offset=".36" stop-color="#233c96" stop-opacity=".39"/><stop offset=".52" stop-color="#233c95" stop-opacity=".22"/><stop offset=".67" stop-color="#233c95" stop-opacity=".1"/><stop offset=".83" stop-color="#233c95" stop-opacity=".02"/><stop offset="1" stop-color="#233c95" stop-opacity="0"/></radialGradient><radialGradient id="brand_ciscoWebexCircle_clr__ah" cx="-1296.433" cy="-366.453" r=".129" fx="-1296.433" fy="-366.453" gradientTransform="matrix(4.01 16.19 -10.69 2.64 1286.386 21963.043)" gradientUnits="userSpaceOnUse"><stop offset="0" stop-color="#20388b"/><stop offset=".03" stop-color="#20388c" stop-opacity=".95"/><stop offset=".18" stop-color="#21398f" stop-opacity=".66"/><stop offset=".34" stop-color="#223a90" stop-opacity=".42"/><stop offset=".5" stop-color="#233b92" stop-opacity=".24"/><stop offset=".66" stop-color="#233c94" stop-opacity=".1"/><stop offset=".82" stop-color="#233c95" stop-opacity=".03"/><stop offset="1" stop-color="#233c95" stop-opacity="0"/></radialGradient><radialGradient id="brand_ciscoWebexCircle_clr__ai" cx="-1286.659" cy="-387.777" r=".129" fx="-1286.659" fy="-387.777" gradientTransform="matrix(.66 13.16 -11.58993 .58126 -3639.592 17163.828)" gradientUnits="userSpaceOnUse"><stop offset=".04" stop-color="#3052cd" stop-opacity=".6"/><stop offset=".2" stop-color="#3052cd" stop-opacity=".49"/><stop offset=".52" stop-color="#3052cd" stop-opacity=".2"/><stop offset=".73" stop-color="#3052cd" stop-opacity="0"/></radialGradient><linearGradient id="brand_ciscoWebexCircle_clr__b" x1="9.89" x2="16.898" y1="1144.339" y2="1141.506" gradientTransform="translate(-7 -1136.22)" gradientUnits="userSpaceOnUse"><stop offset=".13" stop-color="#58b7ed"/><stop offset=".34" stop-color="#4a96a2"/><stop offset=".45" stop-color="#4b99a3"/><stop offset=".51" stop-color="#50a1a7"/><stop offset=".57" stop-color="#59afae"/><stop offset=".6" stop-color="#5fb9b2"/><stop offset=".79" stop-color="#61b692"/><stop offset="1" stop-color="#88ec6f"/></linearGradient><linearGradient id="brand_ciscoWebexCircle_clr__r" x1="10.349" x2="13.441" y1="1139.842" y2="1142.704" gradientTransform="translate(-7 -1136.22)" gradientUnits="userSpaceOnUse"><stop offset=".13" stop-color="#78f4fc"/><stop offset=".27" stop-color="#78f4fc" stop-opacity=".64"/><stop offset=".4" stop-color="#78f5fc" stop-opacity=".3"/><stop offset=".49" stop-color="#77f5fc" stop-opacity=".08"/><stop offset=".54" stop-color="#77f5fc" stop-opacity="0"/></linearGradient><linearGradient id="brand_ciscoWebexCircle_clr__s" x1="8.592" x2="12.203" y1="1144.504" y2="1143.481" gradientTransform="translate(-7 -1136.22)" gradientUnits="userSpaceOnUse"><stop offset="0" stop-color="#77f5fc"/><stop offset=".06" stop-color="#77f5fc" stop-opacity=".88"/><stop offset=".24" stop-color="#77f5fc" stop-opacity=".51"/><stop offset=".39" stop-color="#77f5fc" stop-opacity=".23"/><stop offset=".5" stop-color="#77f5fc" stop-opacity=".06"/><stop offset=".55" stop-color="#77f5fc" stop-opacity="0"/></linearGradient><linearGradient id="brand_ciscoWebexCircle_clr__t" x1="9.548" x2="13.617" y1="1144.381" y2="1142.928" gradientTransform="translate(-7 -1136.22)" gradientUnits="userSpaceOnUse"><stop offset="0" stop-color="#69dafa"/><stop offset=".04" stop-color="#69dafa" stop-opacity=".88"/><stop offset=".17" stop-color="#69dafa" stop-opacity=".51"/><stop offset=".27" stop-color="#69dafa" stop-opacity=".23"/><stop offset=".34" stop-color="#69dafa" stop-opacity=".06"/><stop offset=".38" stop-color="#69dafa" stop-opacity="0"/></linearGradient><linearGradient id="brand_ciscoWebexCircle_clr__u" x1="13.427" x2="15.704" y1="1142.286" y2="1145.999" gradientTransform="translate(-7 -1136.22)" gradientUnits="userSpaceOnUse"><stop offset=".62" stop-color="#69dafa" stop-opacity="0"/><stop offset=".66" stop-color="#69dafa" stop-opacity=".06"/><stop offset=".73" stop-color="#69dafa" stop-opacity=".23"/><stop offset=".83" stop-color="#69dafa" stop-opacity=".51"/><stop offset=".96" stop-color="#69dafa" stop-opacity=".88"/><stop offset="1" stop-color="#69dafa"/></linearGradient><linearGradient id="brand_ciscoWebexCircle_clr__v" x1="15.973" x2="15.616" y1="1143.675" y2="1141.927" gradientTransform="translate(-7 -1136.22)" gradientUnits="userSpaceOnUse"><stop offset="0" stop-color="#63ad52"/><stop offset=".11" stop-color="#63ad52" stop-opacity=".8"/><stop offset=".27" stop-color="#63ad52" stop-opacity=".52"/><stop offset=".43" stop-color="#63ad52" stop-opacity=".29"/><stop offset=".58" stop-color="#63ad52" stop-opacity=".13"/><stop offset=".7" stop-color="#63ad52" stop-opacity=".03"/><stop offset=".8" stop-color="#63ad52" stop-opacity="0"/></linearGradient><linearGradient id="brand_ciscoWebexCircle_clr__w" x1="10.966" x2="18.503" y1="1141.84" y2="1144.335" gradientTransform="translate(-7 -1136.22)" gradientUnits="userSpaceOnUse"><stop offset="0" stop-color="#3e65f1"/><stop offset=".38" stop-color="#3d63ed"/><stop offset=".74" stop-color="#3456d0"/><stop offset="1" stop-color="#4d7cf6"/></linearGradient><linearGradient id="brand_ciscoWebexCircle_clr__aj" x1="15.862" x2="13.957" y1="1138.794" y2="1143.499" gradientTransform="translate(-7 -1136.22)" gradientUnits="userSpaceOnUse"><stop offset="0" stop-color="#4773f5"/><stop offset=".05" stop-color="#4773f5" stop-opacity=".91"/><stop offset=".16" stop-color="#4773f5" stop-opacity=".66"/><stop offset=".32" stop-color="#4773f5" stop-opacity=".28"/><stop offset=".43" stop-color="#4773f5" stop-opacity="0"/></linearGradient></defs><rect width="14" height="14" stroke-width="0" rx="7" ry="7"/><g stroke-width="0"><path fill="url(#brand_ciscoWebexCircle_clr__b)" d="M4.555 7.031c.103.353.249.685.415 1.017.062.145.166.27.29.373l.083.042c.208.042.312-.125.395-.27.103-.249.186-.498.249-.747.02-.041.02-.083.041-.145l.062-.27.914-2.428c.186-.25.435-.457.726-.602.27-.145.581-.228.892-.228.457 0 .893.166 1.246.435.601.457.954 1.35.954 1.35.042.124.083.249.083.373s-.02.228-.062.353a3.54 3.54 0 0 1-.187.29c-.083.083-.187.146-.29.187s-.229.062-.353.062-.25-.02-.374-.083a1.21 1.21 0 0 1-.311-.228s0-.02-.02-.02c-.063-.084-.105-.167-.146-.25a2.269 2.269 0 0 0-.166-.311c-.042-.041-.062-.104-.104-.145-.02-.042-.062-.104-.124-.125-.083-.062-.187-.083-.27-.041l-.02-.021a.638.638 0 0 0-.208.311 7.333 7.333 0 0 0-.312.955l-.041.187-.374 1.224-.519 1.162a2.005 2.005 0 0 1-.726.582c-.27.124-.581.207-.892.207-1.287.02-1.89-1.141-1.89-1.141-.725-1.204-.933-2.781-.995-3.3C2.5 5.724 2.5 5.66 2.5 5.599c0-.166.041-.311.125-.457s.186-.249.332-.332c.145-.062.31-.103.477-.103.27.02.519.145.685.373.104.187.166.374.166.581.041.478.145.934.27 1.37Z"/><path fill="url(#brand_ciscoWebexCircle_clr__c)" d="M4.555 7.031c.103.353.249.685.415 1.017.062.145.166.27.29.373l.083.042c.208.042.312-.125.395-.27.103-.249.186-.498.249-.747.02-.041.02-.083.041-.145l.062-.27.914-2.428c.186-.25.435-.457.726-.602.27-.145.581-.228.892-.228.457 0 .893.166 1.246.435.601.457.954 1.35.954 1.35.042.124.083.249.083.373s-.02.228-.062.353a3.54 3.54 0 0 1-.187.29c-.083.083-.187.146-.29.187s-.229.062-.353.062-.25-.02-.374-.083a1.21 1.21 0 0 1-.311-.228s0-.02-.02-.02c-.063-.084-.105-.167-.146-.25a2.269 2.269 0 0 0-.166-.311c-.042-.041-.062-.104-.104-.145-.02-.042-.062-.104-.124-.125-.083-.062-.187-.083-.27-.041l-.02-.021a.638.638 0 0 0-.208.311 7.333 7.333 0 0 0-.312.955l-.041.187-.374 1.224-.519 1.162a2.005 2.005 0 0 1-.726.582c-.27.124-.581.207-.892.207-1.287.02-1.89-1.141-1.89-1.141-.725-1.204-.933-2.781-.995-3.3C2.5 5.724 2.5 5.66 2.5 5.599c0-.166.041-.311.125-.457s.186-.249.332-.332c.145-.062.31-.103.477-.103.27.02.519.145.685.373.104.187.166.374.166.581.041.478.145.934.27 1.37Z"/><path fill="url(#brand_ciscoWebexCircle_clr__d)" d="M4.555 7.031c.103.353.249.685.415 1.017.062.145.166.27.29.373l.083.042c.208.042.312-.125.395-.27.103-.249.186-.498.249-.747.02-.041.02-.083.041-.145l.062-.27.914-2.428c.186-.25.435-.457.726-.602.27-.145.581-.228.892-.228.457 0 .893.166 1.246.435.601.457.954 1.35.954 1.35.042.124.083.249.083.373s-.02.228-.062.353a3.54 3.54 0 0 1-.187.29c-.083.083-.187.146-.29.187s-.229.062-.353.062-.25-.02-.374-.083a1.21 1.21 0 0 1-.311-.228s0-.02-.02-.02c-.063-.084-.105-.167-.146-.25a2.269 2.269 0 0 0-.166-.311c-.042-.041-.062-.104-.104-.145-.02-.042-.062-.104-.124-.125-.083-.062-.187-.083-.27-.041l-.02-.021a.638.638 0 0 0-.208.311 7.333 7.333 0 0 0-.312.955l-.041.187-.374 1.224-.519 1.162a2.005 2.005 0 0 1-.726.582c-.27.124-.581.207-.892.207-1.287.02-1.89-1.141-1.89-1.141-.725-1.204-.933-2.781-.995-3.3C2.5 5.724 2.5 5.66 2.5 5.599c0-.166.041-.311.125-.457s.186-.249.332-.332c.145-.062.31-.103.477-.103.27.02.519.145.685.373.104.187.166.374.166.581.041.478.145.934.27 1.37Z"/><path fill="url(#brand_ciscoWebexCircle_clr__e)" d="M4.555 7.031c.103.353.249.685.415 1.017.062.145.166.27.29.373l.083.042c.208.042.312-.125.395-.27.103-.249.186-.498.249-.747.02-.041.02-.083.041-.145l.062-.27.914-2.428c.186-.25.435-.457.726-.602.27-.145.581-.228.892-.228.457 0 .893.166 1.246.435.601.457.954 1.35.954 1.35.042.124.083.249.083.373s-.02.228-.062.353a3.54 3.54 0 0 1-.187.29c-.083.083-.187.146-.29.187s-.229.062-.353.062-.25-.02-.374-.083a1.21 1.21 0 0 1-.311-.228s0-.02-.02-.02c-.063-.084-.105-.167-.146-.25a2.269 2.269 0 0 0-.166-.311c-.042-.041-.062-.104-.104-.145-.02-.042-.062-.104-.124-.125-.083-.062-.187-.083-.27-.041l-.02-.021a.638.638 0 0 0-.208.311 7.333 7.333 0 0 0-.312.955l-.041.187-.374 1.224-.519 1.162a2.005 2.005 0 0 1-.726.582c-.27.124-.581.207-.892.207-1.287.02-1.89-1.141-1.89-1.141-.725-1.204-.933-2.781-.995-3.3C2.5 5.724 2.5 5.66 2.5 5.599c0-.166.041-.311.125-.457s.186-.249.332-.332c.145-.062.31-.103.477-.103.27.02.519.145.685.373.104.187.166.374.166.581.041.478.145.934.27 1.37Z"/><path fill="url(#brand_ciscoWebexCircle_clr__f)" d="M4.555 7.031c.103.353.249.685.415 1.017.062.145.166.27.29.373l.083.042c.208.042.312-.125.395-.27.103-.249.186-.498.249-.747.02-.041.02-.083.041-.145l.062-.27.914-2.428c.186-.25.435-.457.726-.602.27-.145.581-.228.892-.228.457 0 .893.166 1.246.435.601.457.954 1.35.954 1.35.042.124.083.249.083.373s-.02.228-.062.353a3.54 3.54 0 0 1-.187.29c-.083.083-.187.146-.29.187s-.229.062-.353.062-.25-.02-.374-.083a1.21 1.21 0 0 1-.311-.228s0-.02-.02-.02c-.063-.084-.105-.167-.146-.25a2.269 2.269 0 0 0-.166-.311c-.042-.041-.062-.104-.104-.145-.02-.042-.062-.104-.124-.125-.083-.062-.187-.083-.27-.041l-.02-.021a.638.638 0 0 0-.208.311 7.333 7.333 0 0 0-.312.955l-.041.187-.374 1.224-.519 1.162a2.005 2.005 0 0 1-.726.582c-.27.124-.581.207-.892.207-1.287.02-1.89-1.141-1.89-1.141-.725-1.204-.933-2.781-.995-3.3C2.5 5.724 2.5 5.66 2.5 5.599c0-.166.041-.311.125-.457s.186-.249.332-.332c.145-.062.31-.103.477-.103.27.02.519.145.685.373.104.187.166.374.166.581.041.478.145.934.27 1.37Z"/><path fill="url(#brand_ciscoWebexCircle_clr__g)" d="M4.555 7.031c.103.353.249.685.415 1.017.062.145.166.27.29.373l.083.042c.208.042.312-.125.395-.27.103-.249.186-.498.249-.747.02-.041.02-.083.041-.145l.062-.27.914-2.428c.186-.25.435-.457.726-.602.27-.145.581-.228.892-.228.457 0 .893.166 1.246.435.601.457.954 1.35.954 1.35.042.124.083.249.083.373s-.02.228-.062.353a3.54 3.54 0 0 1-.187.29c-.083.083-.187.146-.29.187s-.229.062-.353.062-.25-.02-.374-.083a1.21 1.21 0 0 1-.311-.228s0-.02-.02-.02c-.063-.084-.105-.167-.146-.25a2.269 2.269 0 0 0-.166-.311c-.042-.041-.062-.104-.104-.145-.02-.042-.062-.104-.124-.125-.083-.062-.187-.083-.27-.041l-.02-.021a.638.638 0 0 0-.208.311 7.333 7.333 0 0 0-.312.955l-.041.187-.374 1.224-.519 1.162a2.005 2.005 0 0 1-.726.582c-.27.124-.581.207-.892.207-1.287.02-1.89-1.141-1.89-1.141-.725-1.204-.933-2.781-.995-3.3C2.5 5.724 2.5 5.66 2.5 5.599c0-.166.041-.311.125-.457s.186-.249.332-.332c.145-.062.31-.103.477-.103.27.02.519.145.685.373.104.187.166.374.166.581.041.478.145.934.27 1.37Z"/><path fill="url(#brand_ciscoWebexCircle_clr__h)" d="M4.555 7.031c.103.353.249.685.415 1.017.062.145.166.27.29.373l.083.042c.208.042.312-.125.395-.27.103-.249.186-.498.249-.747.02-.041.02-.083.041-.145l.062-.27.914-2.428c.186-.25.435-.457.726-.602.27-.145.581-.228.892-.228.457 0 .893.166 1.246.435.601.457.954 1.35.954 1.35.042.124.083.249.083.373s-.02.228-.062.353a3.54 3.54 0 0 1-.187.29c-.083.083-.187.146-.29.187s-.229.062-.353.062-.25-.02-.374-.083a1.21 1.21 0 0 1-.311-.228s0-.02-.02-.02c-.063-.084-.105-.167-.146-.25a2.269 2.269 0 0 0-.166-.311c-.042-.041-.062-.104-.104-.145-.02-.042-.062-.104-.124-.125-.083-.062-.187-.083-.27-.041l-.02-.021a.638.638 0 0 0-.208.311 7.333 7.333 0 0 0-.312.955l-.041.187-.374 1.224-.519 1.162a2.005 2.005 0 0 1-.726.582c-.27.124-.581.207-.892.207-1.287.02-1.89-1.141-1.89-1.141-.725-1.204-.933-2.781-.995-3.3C2.5 5.724 2.5 5.66 2.5 5.599c0-.166.041-.311.125-.457s.186-.249.332-.332c.145-.062.31-.103.477-.103.27.02.519.145.685.373.104.187.166.374.166.581.041.478.145.934.27 1.37Z"/><path fill="url(#brand_ciscoWebexCircle_clr__i)" d="M4.555 7.031c.103.353.249.685.415 1.017.062.145.166.27.29.373l.083.042c.208.042.312-.125.395-.27.103-.249.186-.498.249-.747.02-.041.02-.083.041-.145l.062-.27.914-2.428c.186-.25.435-.457.726-.602.27-.145.581-.228.892-.228.457 0 .893.166 1.246.435.601.457.954 1.35.954 1.35.042.124.083.249.083.373s-.02.228-.062.353a3.54 3.54 0 0 1-.187.29c-.083.083-.187.146-.29.187s-.229.062-.353.062-.25-.02-.374-.083a1.21 1.21 0 0 1-.311-.228s0-.02-.02-.02c-.063-.084-.105-.167-.146-.25a2.269 2.269 0 0 0-.166-.311c-.042-.041-.062-.104-.104-.145-.02-.042-.062-.104-.124-.125-.083-.062-.187-.083-.27-.041l-.02-.021a.638.638 0 0 0-.208.311 7.333 7.333 0 0 0-.312.955l-.041.187-.374 1.224-.519 1.162a2.005 2.005 0 0 1-.726.582c-.27.124-.581.207-.892.207-1.287.02-1.89-1.141-1.89-1.141-.725-1.204-.933-2.781-.995-3.3C2.5 5.724 2.5 5.66 2.5 5.599c0-.166.041-.311.125-.457s.186-.249.332-.332c.145-.062.31-.103.477-.103.27.02.519.145.685.373.104.187.166.374.166.581.041.478.145.934.27 1.37Z"/><path fill="url(#brand_ciscoWebexCircle_clr__j)" d="M4.555 7.031c.103.353.249.685.415 1.017.062.145.166.27.29.373l.083.042c.208.042.312-.125.395-.27.103-.249.186-.498.249-.747.02-.041.02-.083.041-.145l.062-.27.914-2.428c.186-.25.435-.457.726-.602.27-.145.581-.228.892-.228.457 0 .893.166 1.246.435.601.457.954 1.35.954 1.35.042.124.083.249.083.373s-.02.228-.062.353a3.54 3.54 0 0 1-.187.29c-.083.083-.187.146-.29.187s-.229.062-.353.062-.25-.02-.374-.083a1.21 1.21 0 0 1-.311-.228s0-.02-.02-.02c-.063-.084-.105-.167-.146-.25a2.269 2.269 0 0 0-.166-.311c-.042-.041-.062-.104-.104-.145-.02-.042-.062-.104-.124-.125-.083-.062-.187-.083-.27-.041l-.02-.021a.638.638 0 0 0-.208.311 7.333 7.333 0 0 0-.312.955l-.041.187-.374 1.224-.519 1.162a2.005 2.005 0 0 1-.726.582c-.27.124-.581.207-.892.207-1.287.02-1.89-1.141-1.89-1.141-.725-1.204-.933-2.781-.995-3.3C2.5 5.724 2.5 5.66 2.5 5.599c0-.166.041-.311.125-.457s.186-.249.332-.332c.145-.062.31-.103.477-.103.27.02.519.145.685.373.104.187.166.374.166.581.041.478.145.934.27 1.37Z"/><path fill="url(#brand_ciscoWebexCircle_clr__k)" d="M4.555 7.031c.103.353.249.685.415 1.017.062.145.166.27.29.373l.083.042c.208.042.312-.125.395-.27.103-.249.186-.498.249-.747.02-.041.02-.083.041-.145l.062-.27.914-2.428c.186-.25.435-.457.726-.602.27-.145.581-.228.892-.228.457 0 .893.166 1.246.435.601.457.954 1.35.954 1.35.042.124.083.249.083.373s-.02.228-.062.353a3.54 3.54 0 0 1-.187.29c-.083.083-.187.146-.29.187s-.229.062-.353.062-.25-.02-.374-.083a1.21 1.21 0 0 1-.311-.228s0-.02-.02-.02c-.063-.084-.105-.167-.146-.25a2.269 2.269 0 0 0-.166-.311c-.042-.041-.062-.104-.104-.145-.02-.042-.062-.104-.124-.125-.083-.062-.187-.083-.27-.041l-.02-.021a.638.638 0 0 0-.208.311 7.333 7.333 0 0 0-.312.955l-.041.187-.374 1.224-.519 1.162a2.005 2.005 0 0 1-.726.582c-.27.124-.581.207-.892.207-1.287.02-1.89-1.141-1.89-1.141-.725-1.204-.933-2.781-.995-3.3C2.5 5.724 2.5 5.66 2.5 5.599c0-.166.041-.311.125-.457s.186-.249.332-.332c.145-.062.31-.103.477-.103.27.02.519.145.685.373.104.187.166.374.166.581.041.478.145.934.27 1.37Z"/><path fill="url(#brand_ciscoWebexCircle_clr__l)" d="M4.555 7.031c.103.353.249.685.415 1.017.062.145.166.27.29.373l.083.042c.208.042.312-.125.395-.27.103-.249.186-.498.249-.747.02-.041.02-.083.041-.145l.062-.27.914-2.428c.186-.25.435-.457.726-.602.27-.145.581-.228.892-.228.457 0 .893.166 1.246.435.601.457.954 1.35.954 1.35.042.124.083.249.083.373s-.02.228-.062.353a3.54 3.54 0 0 1-.187.29c-.083.083-.187.146-.29.187s-.229.062-.353.062-.25-.02-.374-.083a1.21 1.21 0 0 1-.311-.228s0-.02-.02-.02c-.063-.084-.105-.167-.146-.25a2.269 2.269 0 0 0-.166-.311c-.042-.041-.062-.104-.104-.145-.02-.042-.062-.104-.124-.125-.083-.062-.187-.083-.27-.041l-.02-.021a.638.638 0 0 0-.208.311 7.333 7.333 0 0 0-.312.955l-.041.187-.374 1.224-.519 1.162a2.005 2.005 0 0 1-.726.582c-.27.124-.581.207-.892.207-1.287.02-1.89-1.141-1.89-1.141-.725-1.204-.933-2.781-.995-3.3C2.5 5.724 2.5 5.66 2.5 5.599c0-.166.041-.311.125-.457s.186-.249.332-.332c.145-.062.31-.103.477-.103.27.02.519.145.685.373.104.187.166.374.166.581.041.478.145.934.27 1.37Z"/><path fill="url(#brand_ciscoWebexCircle_clr__m)" d="M4.555 7.031c.103.353.249.685.415 1.017.062.145.166.27.29.373l.083.042c.208.042.312-.125.395-.27.103-.249.186-.498.249-.747.02-.041.02-.083.041-.145l.062-.27.914-2.428c.186-.25.435-.457.726-.602.27-.145.581-.228.892-.228.457 0 .893.166 1.246.435.601.457.954 1.35.954 1.35.042.124.083.249.083.373s-.02.228-.062.353a3.54 3.54 0 0 1-.187.29c-.083.083-.187.146-.29.187s-.229.062-.353.062-.25-.02-.374-.083a1.21 1.21 0 0 1-.311-.228s0-.02-.02-.02c-.063-.084-.105-.167-.146-.25a2.269 2.269 0 0 0-.166-.311c-.042-.041-.062-.104-.104-.145-.02-.042-.062-.104-.124-.125-.083-.062-.187-.083-.27-.041l-.02-.021a.638.638 0 0 0-.208.311 7.333 7.333 0 0 0-.312.955l-.041.187-.374 1.224-.519 1.162a2.005 2.005 0 0 1-.726.582c-.27.124-.581.207-.892.207-1.287.02-1.89-1.141-1.89-1.141-.725-1.204-.933-2.781-.995-3.3C2.5 5.724 2.5 5.66 2.5 5.599c0-.166.041-.311.125-.457s.186-.249.332-.332c.145-.062.31-.103.477-.103.27.02.519.145.685.373.104.187.166.374.166.581.041.478.145.934.27 1.37Z"/><path fill="url(#brand_ciscoWebexCircle_clr__n)" d="M4.555 7.031c.103.353.249.685.415 1.017.062.145.166.27.29.373l.083.042c.208.042.312-.125.395-.27.103-.249.186-.498.249-.747.02-.041.02-.083.041-.145l.062-.27.914-2.428c.186-.25.435-.457.726-.602.27-.145.581-.228.892-.228.457 0 .893.166 1.246.435.601.457.954 1.35.954 1.35.042.124.083.249.083.373s-.02.228-.062.353a3.54 3.54 0 0 1-.187.29c-.083.083-.187.146-.29.187s-.229.062-.353.062-.25-.02-.374-.083a1.21 1.21 0 0 1-.311-.228s0-.02-.02-.02c-.063-.084-.105-.167-.146-.25a2.269 2.269 0 0 0-.166-.311c-.042-.041-.062-.104-.104-.145-.02-.042-.062-.104-.124-.125-.083-.062-.187-.083-.27-.041l-.02-.021a.638.638 0 0 0-.208.311 7.333 7.333 0 0 0-.312.955l-.041.187-.374 1.224-.519 1.162a2.005 2.005 0 0 1-.726.582c-.27.124-.581.207-.892.207-1.287.02-1.89-1.141-1.89-1.141-.725-1.204-.933-2.781-.995-3.3C2.5 5.724 2.5 5.66 2.5 5.599c0-.166.041-.311.125-.457s.186-.249.332-.332c.145-.062.31-.103.477-.103.27.02.519.145.685.373.104.187.166.374.166.581.041.478.145.934.27 1.37Z"/><path fill="url(#brand_ciscoWebexCircle_clr__o)" d="M4.555 7.031c.103.353.249.685.415 1.017.062.145.166.27.29.373l.083.042c.208.042.312-.125.395-.27.103-.249.186-.498.249-.747.02-.041.02-.083.041-.145l.062-.27.914-2.428c.186-.25.435-.457.726-.602.27-.145.581-.228.892-.228.457 0 .893.166 1.246.435.601.457.954 1.35.954 1.35.042.124.083.249.083.373s-.02.228-.062.353a3.54 3.54 0 0 1-.187.29c-.083.083-.187.146-.29.187s-.229.062-.353.062-.25-.02-.374-.083a1.21 1.21 0 0 1-.311-.228s0-.02-.02-.02c-.063-.084-.105-.167-.146-.25a2.269 2.269 0 0 0-.166-.311c-.042-.041-.062-.104-.104-.145-.02-.042-.062-.104-.124-.125-.083-.062-.187-.083-.27-.041l-.02-.021a.638.638 0 0 0-.208.311 7.333 7.333 0 0 0-.312.955l-.041.187-.374 1.224-.519 1.162a2.005 2.005 0 0 1-.726.582c-.27.124-.581.207-.892.207-1.287.02-1.89-1.141-1.89-1.141-.725-1.204-.933-2.781-.995-3.3C2.5 5.724 2.5 5.66 2.5 5.599c0-.166.041-.311.125-.457s.186-.249.332-.332c.145-.062.31-.103.477-.103.27.02.519.145.685.373.104.187.166.374.166.581.041.478.145.934.27 1.37Z"/><path fill="url(#brand_ciscoWebexCircle_clr__p)" d="M4.555 7.031c.103.353.249.685.415 1.017.062.145.166.27.29.373l.083.042c.208.042.312-.125.395-.27.103-.249.186-.498.249-.747.02-.041.02-.083.041-.145l.062-.27.914-2.428c.186-.25.435-.457.726-.602.27-.145.581-.228.892-.228.457 0 .893.166 1.246.435.601.457.954 1.35.954 1.35.042.124.083.249.083.373s-.02.228-.062.353a3.54 3.54 0 0 1-.187.29c-.083.083-.187.146-.29.187s-.229.062-.353.062-.25-.02-.374-.083a1.21 1.21 0 0 1-.311-.228s0-.02-.02-.02c-.063-.084-.105-.167-.146-.25a2.269 2.269 0 0 0-.166-.311c-.042-.041-.062-.104-.104-.145-.02-.042-.062-.104-.124-.125-.083-.062-.187-.083-.27-.041l-.02-.021a.638.638 0 0 0-.208.311 7.333 7.333 0 0 0-.312.955l-.041.187-.374 1.224-.519 1.162a2.005 2.005 0 0 1-.726.582c-.27.124-.581.207-.892.207-1.287.02-1.89-1.141-1.89-1.141-.725-1.204-.933-2.781-.995-3.3C2.5 5.724 2.5 5.66 2.5 5.599c0-.166.041-.311.125-.457s.186-.249.332-.332c.145-.062.31-.103.477-.103.27.02.519.145.685.373.104.187.166.374.166.581.041.478.145.934.27 1.37Z"/><path fill="url(#brand_ciscoWebexCircle_clr__q)" d="M4.555 7.031c.103.353.249.685.415 1.017.062.145.166.27.29.373l.083.042c.208.042.312-.125.395-.27.103-.249.186-.498.249-.747.02-.041.02-.083.041-.145l.062-.27.914-2.428c.186-.25.435-.457.726-.602.27-.145.581-.228.892-.228.457 0 .893.166 1.246.435.601.457.954 1.35.954 1.35.042.124.083.249.083.373s-.02.228-.062.353a3.54 3.54 0 0 1-.187.29c-.083.083-.187.146-.29.187s-.229.062-.353.062-.25-.02-.374-.083a1.21 1.21 0 0 1-.311-.228s0-.02-.02-.02c-.063-.084-.105-.167-.146-.25a2.269 2.269 0 0 0-.166-.311c-.042-.041-.062-.104-.104-.145-.02-.042-.062-.104-.124-.125-.083-.062-.187-.083-.27-.041l-.02-.021a.638.638 0 0 0-.208.311 7.333 7.333 0 0 0-.312.955l-.041.187-.374 1.224-.519 1.162a2.005 2.005 0 0 1-.726.582c-.27.124-.581.207-.892.207-1.287.02-1.89-1.141-1.89-1.141-.725-1.204-.933-2.781-.995-3.3C2.5 5.724 2.5 5.66 2.5 5.599c0-.166.041-.311.125-.457s.186-.249.332-.332c.145-.062.31-.103.477-.103.27.02.519.145.685.373.104.187.166.374.166.581.041.478.145.934.27 1.37Z"/><path fill="url(#brand_ciscoWebexCircle_clr__r)" d="M4.555 7.031c.103.353.249.685.415 1.017.062.145.166.27.29.373l.083.042c.208.042.312-.125.395-.27.103-.249.186-.498.249-.747.02-.041.02-.083.041-.145l.062-.27.914-2.428c.186-.25.435-.457.726-.602.27-.145.581-.228.892-.228.457 0 .893.166 1.246.435.601.457.954 1.35.954 1.35.042.124.083.249.083.373s-.02.228-.062.353a3.54 3.54 0 0 1-.187.29c-.083.083-.187.146-.29.187s-.229.062-.353.062-.25-.02-.374-.083a1.21 1.21 0 0 1-.311-.228s0-.02-.02-.02c-.063-.084-.105-.167-.146-.25a2.269 2.269 0 0 0-.166-.311c-.042-.041-.062-.104-.104-.145-.02-.042-.062-.104-.124-.125-.083-.062-.187-.083-.27-.041l-.02-.021a.638.638 0 0 0-.208.311 7.333 7.333 0 0 0-.312.955l-.041.187-.374 1.224-.519 1.162a2.005 2.005 0 0 1-.726.582c-.27.124-.581.207-.892.207-1.287.02-1.89-1.141-1.89-1.141-.725-1.204-.933-2.781-.995-3.3C2.5 5.724 2.5 5.66 2.5 5.599c0-.166.041-.311.125-.457s.186-.249.332-.332c.145-.062.31-.103.477-.103.27.02.519.145.685.373.104.187.166.374.166.581.041.478.145.934.27 1.37Z"/><path fill="url(#brand_ciscoWebexCircle_clr__s)" d="M4.555 7.031c.103.353.249.685.415 1.017.062.145.166.27.29.373l.083.042c.208.042.312-.125.395-.27.103-.249.186-.498.249-.747.02-.041.02-.083.041-.145l.062-.27.914-2.428c.186-.25.435-.457.726-.602.27-.145.581-.228.892-.228.457 0 .893.166 1.246.435.601.457.954 1.35.954 1.35.042.124.083.249.083.373s-.02.228-.062.353a3.54 3.54 0 0 1-.187.29c-.083.083-.187.146-.29.187s-.229.062-.353.062-.25-.02-.374-.083a1.21 1.21 0 0 1-.311-.228s0-.02-.02-.02c-.063-.084-.105-.167-.146-.25a2.269 2.269 0 0 0-.166-.311c-.042-.041-.062-.104-.104-.145-.02-.042-.062-.104-.124-.125-.083-.062-.187-.083-.27-.041l-.02-.021a.638.638 0 0 0-.208.311 7.333 7.333 0 0 0-.312.955l-.041.187-.374 1.224-.519 1.162a2.005 2.005 0 0 1-.726.582c-.27.124-.581.207-.892.207-1.287.02-1.89-1.141-1.89-1.141-.725-1.204-.933-2.781-.995-3.3C2.5 5.724 2.5 5.66 2.5 5.599c0-.166.041-.311.125-.457s.186-.249.332-.332c.145-.062.31-.103.477-.103.27.02.519.145.685.373.104.187.166.374.166.581.041.478.145.934.27 1.37Z"/><path fill="url(#brand_ciscoWebexCircle_clr__t)" d="M4.555 7.031c.103.353.249.685.415 1.017.062.145.166.27.29.373l.083.042c.208.042.312-.125.395-.27.103-.249.186-.498.249-.747.02-.041.02-.083.041-.145l.062-.27.914-2.428c.186-.25.435-.457.726-.602.27-.145.581-.228.892-.228.457 0 .893.166 1.246.435.601.457.954 1.35.954 1.35.042.124.083.249.083.373s-.02.228-.062.353a3.54 3.54 0 0 1-.187.29c-.083.083-.187.146-.29.187s-.229.062-.353.062-.25-.02-.374-.083a1.21 1.21 0 0 1-.311-.228s0-.02-.02-.02c-.063-.084-.105-.167-.146-.25a2.269 2.269 0 0 0-.166-.311c-.042-.041-.062-.104-.104-.145-.02-.042-.062-.104-.124-.125-.083-.062-.187-.083-.27-.041l-.02-.021a.638.638 0 0 0-.208.311 7.333 7.333 0 0 0-.312.955l-.041.187-.374 1.224-.519 1.162a2.005 2.005 0 0 1-.726.582c-.27.124-.581.207-.892.207-1.287.02-1.89-1.141-1.89-1.141-.725-1.204-.933-2.781-.995-3.3C2.5 5.724 2.5 5.66 2.5 5.599c0-.166.041-.311.125-.457s.186-.249.332-.332c.145-.062.31-.103.477-.103.27.02.519.145.685.373.104.187.166.374.166.581.041.478.145.934.27 1.37Z"/><path fill="url(#brand_ciscoWebexCircle_clr__u)" d="M4.555 7.031c.103.353.249.685.415 1.017.062.145.166.27.29.373l.083.042c.208.042.312-.125.395-.27.103-.249.186-.498.249-.747.02-.041.02-.083.041-.145l.062-.27.914-2.428c.186-.25.435-.457.726-.602.27-.145.581-.228.892-.228.457 0 .893.166 1.246.435.601.457.954 1.35.954 1.35.042.124.083.249.083.373s-.02.228-.062.353a3.54 3.54 0 0 1-.187.29c-.083.083-.187.146-.29.187s-.229.062-.353.062-.25-.02-.374-.083a1.21 1.21 0 0 1-.311-.228s0-.02-.02-.02c-.063-.084-.105-.167-.146-.25a2.269 2.269 0 0 0-.166-.311c-.042-.041-.062-.104-.104-.145-.02-.042-.062-.104-.124-.125-.083-.062-.187-.083-.27-.041l-.02-.021a.638.638 0 0 0-.208.311 7.333 7.333 0 0 0-.312.955l-.041.187-.374 1.224-.519 1.162a2.005 2.005 0 0 1-.726.582c-.27.124-.581.207-.892.207-1.287.02-1.89-1.141-1.89-1.141-.725-1.204-.933-2.781-.995-3.3C2.5 5.724 2.5 5.66 2.5 5.599c0-.166.041-.311.125-.457s.186-.249.332-.332c.145-.062.31-.103.477-.103.27.02.519.145.685.373.104.187.166.374.166.581.041.478.145.934.27 1.37Z"/><path fill="url(#brand_ciscoWebexCircle_clr__v)" d="m6.422 6.118.582-1.536c.186-.249.435-.457.726-.602.29-.124.602-.207.913-.207.457 0 .893.166 1.245.435.602.457.955 1.35.955 1.35.041.124.083.249.083.373s-.02.228-.062.353a3.54 3.54 0 0 1-.187.29c-.083.083-.187.146-.29.187s-.229.062-.353.062-.25-.02-.374-.083a1.21 1.21 0 0 1-.311-.228s0-.02-.021-.02c-.062-.084-.104-.167-.145-.25a2.269 2.269 0 0 0-.166-.311c-.042-.041-.063-.104-.104-.145-.02-.042-.062-.104-.125-.125-.083-.062-.186-.083-.27-.041l-.04-.021a.638.638 0 0 0-.208.311 7.333 7.333 0 0 0-.312.955l-.041.187-.374 1.224-1.12-2.158Z"/><path fill="url(#brand_ciscoWebexCircle_clr__w)" d="M10.615 4.748c-.063 0-.146.02-.208.02.166.25.311.499.415.769.042.124.083.249.083.373s-.02.229-.062.353a3.54 3.54 0 0 1-.187.29c-.083.084-.187.167-.29.187a.97.97 0 0 1-.353.063.889.889 0 0 1-.457-.125l-.083.353c-.062.27-.166.519-.29.768-.063.145-.146.29-.229.436a.61.61 0 0 1-.249.207c-.041 0-.083.021-.103.021a.295.295 0 0 1-.125-.042c-.062-.062-.124-.124-.166-.207s-.083-.166-.124-.27c-.083-.187-.208-.664-.208-.664l-.125-.498-.124-.498-.083-.332a3.74 3.74 0 0 0-.56-1.287 2.06 2.06 0 0 0-1.038-.789 2.301 2.301 0 0 0-.996-.083 2.27 2.27 0 0 0-1.412.976c.083.02.166.062.25.104a.885.885 0 0 1 .249.228c.103.187.166.373.166.581.041.436.124.892.249 1.307.124-.477.332-.913.601-1.328l.125-.124c.02-.021.062-.021.083-.021a.3.3 0 0 1 .145.041c.021 0 .021.021.021.021l.125.125.186.373c.104.29.187.644.187.644l.25 1.017c.082.352.207.705.352 1.037.394.913.996 1.162.996 1.162.29.146.623.25.955.25.311.02.643-.063.913-.187.311-.166.581-.374.81-.644.124-.186.248-.373.352-.58.25-.478.415-.976.56-1.495.084-.311.167-.643.208-.975.02-.166.042-.312.062-.478.021-.145.021-.311-.02-.456-.021-.021-.021-.042-.021-.083a.939.939 0 0 0-.394-.457 1.477 1.477 0 0 0-.436-.083Z"/><path fill="url(#brand_ciscoWebexCircle_clr__x)" d="M10.615 4.748c-.063 0-.146.02-.208.02.166.25.311.499.415.769.042.124.083.249.083.373s-.02.229-.062.353a3.54 3.54 0 0 1-.187.29c-.083.084-.187.167-.29.187a.97.97 0 0 1-.353.063.889.889 0 0 1-.457-.125l-.083.353c-.062.27-.166.519-.29.768-.063.145-.146.29-.229.436a.61.61 0 0 1-.249.207c-.041 0-.083.021-.103.021a.295.295 0 0 1-.125-.042c-.062-.062-.124-.124-.166-.207s-.083-.166-.124-.27c-.083-.187-.208-.664-.208-.664l-.125-.498-.124-.498-.083-.332a3.74 3.74 0 0 0-.56-1.287 2.06 2.06 0 0 0-1.038-.789 2.301 2.301 0 0 0-.996-.083 2.27 2.27 0 0 0-1.412.976c.083.02.166.062.25.104a.885.885 0 0 1 .249.228c.103.187.166.373.166.581.041.436.124.892.249 1.307.124-.477.332-.913.601-1.328l.125-.124c.02-.021.062-.021.083-.021a.3.3 0 0 1 .145.041c.021 0 .021.021.021.021l.125.125.186.373c.104.29.187.644.187.644l.25 1.017c.082.352.207.705.352 1.037.394.913.996 1.162.996 1.162.29.146.623.25.955.25.311.02.643-.063.913-.187.311-.166.581-.374.81-.644.124-.186.248-.373.352-.58.25-.478.415-.976.56-1.495.084-.311.167-.643.208-.975.02-.166.042-.312.062-.478.021-.145.021-.311-.02-.456-.021-.021-.021-.042-.021-.083a.939.939 0 0 0-.394-.457 1.477 1.477 0 0 0-.436-.083Z"/><path fill="url(#brand_ciscoWebexCircle_clr__y)" d="M10.615 4.748c-.063 0-.146.02-.208.02.166.25.311.499.415.769.042.124.083.249.083.373s-.02.229-.062.353a3.54 3.54 0 0 1-.187.29c-.083.084-.187.167-.29.187a.97.97 0 0 1-.353.063.889.889 0 0 1-.457-.125l-.083.353c-.062.27-.166.519-.29.768-.063.145-.146.29-.229.436a.61.61 0 0 1-.249.207c-.041 0-.083.021-.103.021a.295.295 0 0 1-.125-.042c-.062-.062-.124-.124-.166-.207s-.083-.166-.124-.27c-.083-.187-.208-.664-.208-.664l-.125-.498-.124-.498-.083-.332a3.74 3.74 0 0 0-.56-1.287 2.06 2.06 0 0 0-1.038-.789 2.301 2.301 0 0 0-.996-.083 2.27 2.27 0 0 0-1.412.976c.083.02.166.062.25.104a.885.885 0 0 1 .249.228c.103.187.166.373.166.581.041.436.124.892.249 1.307.124-.477.332-.913.601-1.328l.125-.124c.02-.021.062-.021.083-.021a.3.3 0 0 1 .145.041c.021 0 .021.021.021.021l.125.125.186.373c.104.29.187.644.187.644l.25 1.017c.082.352.207.705.352 1.037.394.913.996 1.162.996 1.162.29.146.623.25.955.25.311.02.643-.063.913-.187.311-.166.581-.374.81-.644.124-.186.248-.373.352-.58.25-.478.415-.976.56-1.495.084-.311.167-.643.208-.975.02-.166.042-.312.062-.478.021-.145.021-.311-.02-.456-.021-.021-.021-.042-.021-.083a.939.939 0 0 0-.394-.457 1.477 1.477 0 0 0-.436-.083Z"/><path fill="url(#brand_ciscoWebexCircle_clr__z)" d="M10.615 4.748c-.063 0-.146.02-.208.02.166.25.311.499.415.769.042.124.083.249.083.373s-.02.229-.062.353a3.54 3.54 0 0 1-.187.29c-.083.084-.187.167-.29.187a.97.97 0 0 1-.353.063.889.889 0 0 1-.457-.125l-.083.353c-.062.27-.166.519-.29.768-.063.145-.146.29-.229.436a.61.61 0 0 1-.249.207c-.041 0-.083.021-.103.021a.295.295 0 0 1-.125-.042c-.062-.062-.124-.124-.166-.207s-.083-.166-.124-.27c-.083-.187-.208-.664-.208-.664l-.125-.498-.124-.498-.083-.332a3.74 3.74 0 0 0-.56-1.287 2.06 2.06 0 0 0-1.038-.789 2.301 2.301 0 0 0-.996-.083 2.27 2.27 0 0 0-1.412.976c.083.02.166.062.25.104a.885.885 0 0 1 .249.228c.103.187.166.373.166.581.041.436.124.892.249 1.307.124-.477.332-.913.601-1.328l.125-.124c.02-.021.062-.021.083-.021a.3.3 0 0 1 .145.041c.021 0 .021.021.021.021l.125.125.186.373c.104.29.187.644.187.644l.25 1.017c.082.352.207.705.352 1.037.394.913.996 1.162.996 1.162.29.146.623.25.955.25.311.02.643-.063.913-.187.311-.166.581-.374.81-.644.124-.186.248-.373.352-.58.25-.478.415-.976.56-1.495.084-.311.167-.643.208-.975.02-.166.042-.312.062-.478.021-.145.021-.311-.02-.456-.021-.021-.021-.042-.021-.083a.939.939 0 0 0-.394-.457 1.477 1.477 0 0 0-.436-.083Z"/><path fill="url(#brand_ciscoWebexCircle_clr__aa)" d="M10.615 4.748c-.063 0-.146.02-.208.02.166.25.311.499.415.769.042.124.083.249.083.373s-.02.229-.062.353a3.54 3.54 0 0 1-.187.29c-.083.084-.187.167-.29.187a.97.97 0 0 1-.353.063.889.889 0 0 1-.457-.125l-.083.353c-.062.27-.166.519-.29.768-.063.145-.146.29-.229.436a.61.61 0 0 1-.249.207c-.041 0-.083.021-.103.021a.295.295 0 0 1-.125-.042c-.062-.062-.124-.124-.166-.207s-.083-.166-.124-.27c-.083-.187-.208-.664-.208-.664l-.125-.498-.124-.498-.083-.332a3.74 3.74 0 0 0-.56-1.287 2.06 2.06 0 0 0-1.038-.789 2.301 2.301 0 0 0-.996-.083 2.27 2.27 0 0 0-1.412.976c.083.02.166.062.25.104a.885.885 0 0 1 .249.228c.103.187.166.373.166.581.041.436.124.892.249 1.307.124-.477.332-.913.601-1.328l.125-.124c.02-.021.062-.021.083-.021a.3.3 0 0 1 .145.041c.021 0 .021.021.021.021l.125.125.186.373c.104.29.187.644.187.644l.25 1.017c.082.352.207.705.352 1.037.394.913.996 1.162.996 1.162.29.146.623.25.955.25.311.02.643-.063.913-.187.311-.166.581-.374.81-.644.124-.186.248-.373.352-.58.25-.478.415-.976.56-1.495.084-.311.167-.643.208-.975.02-.166.042-.312.062-.478.021-.145.021-.311-.02-.456-.021-.021-.021-.042-.021-.083a.939.939 0 0 0-.394-.457 1.477 1.477 0 0 0-.436-.083Z"/><path fill="url(#brand_ciscoWebexCircle_clr__ab)" d="M10.615 4.748c-.063 0-.146.02-.208.02.166.25.311.499.415.769.042.124.083.249.083.373s-.02.229-.062.353a3.54 3.54 0 0 1-.187.29c-.083.084-.187.167-.29.187a.97.97 0 0 1-.353.063.889.889 0 0 1-.457-.125l-.083.353c-.062.27-.166.519-.29.768-.063.145-.146.29-.229.436a.61.61 0 0 1-.249.207c-.041 0-.083.021-.103.021a.295.295 0 0 1-.125-.042c-.062-.062-.124-.124-.166-.207s-.083-.166-.124-.27c-.083-.187-.208-.664-.208-.664l-.125-.498-.124-.498-.083-.332a3.74 3.74 0 0 0-.56-1.287 2.06 2.06 0 0 0-1.038-.789 2.301 2.301 0 0 0-.996-.083 2.27 2.27 0 0 0-1.412.976c.083.02.166.062.25.104a.885.885 0 0 1 .249.228c.103.187.166.373.166.581.041.436.124.892.249 1.307.124-.477.332-.913.601-1.328l.125-.124c.02-.021.062-.021.083-.021a.3.3 0 0 1 .145.041c.021 0 .021.021.021.021l.125.125.186.373c.104.29.187.644.187.644l.25 1.017c.082.352.207.705.352 1.037.394.913.996 1.162.996 1.162.29.146.623.25.955.25.311.02.643-.063.913-.187.311-.166.581-.374.81-.644.124-.186.248-.373.352-.58.25-.478.415-.976.56-1.495.084-.311.167-.643.208-.975.02-.166.042-.312.062-.478.021-.145.021-.311-.02-.456-.021-.021-.021-.042-.021-.083a.939.939 0 0 0-.394-.457 1.477 1.477 0 0 0-.436-.083Z"/><path fill="url(#brand_ciscoWebexCircle_clr__ac)" d="M10.615 4.748c-.063 0-.146.02-.208.02.166.25.311.499.415.769.042.124.083.249.083.373s-.02.229-.062.353a3.54 3.54 0 0 1-.187.29c-.083.084-.187.167-.29.187a.97.97 0 0 1-.353.063.889.889 0 0 1-.457-.125l-.083.353c-.062.27-.166.519-.29.768-.063.145-.146.29-.229.436a.61.61 0 0 1-.249.207c-.041 0-.083.021-.103.021a.295.295 0 0 1-.125-.042c-.062-.062-.124-.124-.166-.207s-.083-.166-.124-.27c-.083-.187-.208-.664-.208-.664l-.125-.498-.124-.498-.083-.332a3.74 3.74 0 0 0-.56-1.287 2.06 2.06 0 0 0-1.038-.789 2.301 2.301 0 0 0-.996-.083 2.27 2.27 0 0 0-1.412.976c.083.02.166.062.25.104a.885.885 0 0 1 .249.228c.103.187.166.373.166.581.041.436.124.892.249 1.307.124-.477.332-.913.601-1.328l.125-.124c.02-.021.062-.021.083-.021a.3.3 0 0 1 .145.041c.021 0 .021.021.021.021l.125.125.186.373c.104.29.187.644.187.644l.25 1.017c.082.352.207.705.352 1.037.394.913.996 1.162.996 1.162.29.146.623.25.955.25.311.02.643-.063.913-.187.311-.166.581-.374.81-.644.124-.186.248-.373.352-.58.25-.478.415-.976.56-1.495.084-.311.167-.643.208-.975.02-.166.042-.312.062-.478.021-.145.021-.311-.02-.456-.021-.021-.021-.042-.021-.083a.939.939 0 0 0-.394-.457 1.477 1.477 0 0 0-.436-.083Z"/><path fill="url(#brand_ciscoWebexCircle_clr__ad)" d="M10.615 4.748c-.063 0-.146.02-.208.02.166.25.311.499.415.769.042.124.083.249.083.373s-.02.229-.062.353a3.54 3.54 0 0 1-.187.29c-.083.084-.187.167-.29.187a.97.97 0 0 1-.353.063.889.889 0 0 1-.457-.125l-.083.353c-.062.27-.166.519-.29.768-.063.145-.146.29-.229.436a.61.61 0 0 1-.249.207c-.041 0-.083.021-.103.021a.295.295 0 0 1-.125-.042c-.062-.062-.124-.124-.166-.207s-.083-.166-.124-.27c-.083-.187-.208-.664-.208-.664l-.125-.498-.124-.498-.083-.332a3.74 3.74 0 0 0-.56-1.287 2.06 2.06 0 0 0-1.038-.789 2.301 2.301 0 0 0-.996-.083 2.27 2.27 0 0 0-1.412.976c.083.02.166.062.25.104a.885.885 0 0 1 .249.228c.103.187.166.373.166.581.041.436.124.892.249 1.307.124-.477.332-.913.601-1.328l.125-.124c.02-.021.062-.021.083-.021a.3.3 0 0 1 .145.041c.021 0 .021.021.021.021l.125.125.186.373c.104.29.187.644.187.644l.25 1.017c.082.352.207.705.352 1.037.394.913.996 1.162.996 1.162.29.146.623.25.955.25.311.02.643-.063.913-.187.311-.166.581-.374.81-.644.124-.186.248-.373.352-.58.25-.478.415-.976.56-1.495.084-.311.167-.643.208-.975.02-.166.042-.312.062-.478.021-.145.021-.311-.02-.456-.021-.021-.021-.042-.021-.083a.939.939 0 0 0-.394-.457 1.477 1.477 0 0 0-.436-.083Z"/><path fill="url(#brand_ciscoWebexCircle_clr__ae)" d="M10.615 4.748c-.063 0-.146.02-.208.02.166.25.311.499.415.769.042.124.083.249.083.373s-.02.229-.062.353a3.54 3.54 0 0 1-.187.29c-.083.084-.187.167-.29.187a.97.97 0 0 1-.353.063.889.889 0 0 1-.457-.125l-.083.353c-.062.27-.166.519-.29.768-.063.145-.146.29-.229.436a.61.61 0 0 1-.249.207c-.041 0-.083.021-.103.021a.295.295 0 0 1-.125-.042c-.062-.062-.124-.124-.166-.207s-.083-.166-.124-.27c-.083-.187-.208-.664-.208-.664l-.125-.498-.124-.498-.083-.332a3.74 3.74 0 0 0-.56-1.287 2.06 2.06 0 0 0-1.038-.789 2.301 2.301 0 0 0-.996-.083 2.27 2.27 0 0 0-1.412.976c.083.02.166.062.25.104a.885.885 0 0 1 .249.228c.103.187.166.373.166.581.041.436.124.892.249 1.307.124-.477.332-.913.601-1.328l.125-.124c.02-.021.062-.021.083-.021a.3.3 0 0 1 .145.041c.021 0 .021.021.021.021l.125.125.186.373c.104.29.187.644.187.644l.25 1.017c.082.352.207.705.352 1.037.394.913.996 1.162.996 1.162.29.146.623.25.955.25.311.02.643-.063.913-.187.311-.166.581-.374.81-.644.124-.186.248-.373.352-.58.25-.478.415-.976.56-1.495.084-.311.167-.643.208-.975.02-.166.042-.312.062-.478.021-.145.021-.311-.02-.456-.021-.021-.021-.042-.021-.083a.939.939 0 0 0-.394-.457 1.477 1.477 0 0 0-.436-.083Z"/><path fill="url(#brand_ciscoWebexCircle_clr__af)" d="M10.615 4.748c-.063 0-.146.02-.208.02.166.25.311.499.415.769.042.124.083.249.083.373s-.02.229-.062.353a3.54 3.54 0 0 1-.187.29c-.083.084-.187.167-.29.187a.97.97 0 0 1-.353.063.889.889 0 0 1-.457-.125l-.083.353c-.062.27-.166.519-.29.768-.063.145-.146.29-.229.436a.61.61 0 0 1-.249.207c-.041 0-.083.021-.103.021a.295.295 0 0 1-.125-.042c-.062-.062-.124-.124-.166-.207s-.083-.166-.124-.27c-.083-.187-.208-.664-.208-.664l-.125-.498-.124-.498-.083-.332a3.74 3.74 0 0 0-.56-1.287 2.06 2.06 0 0 0-1.038-.789 2.301 2.301 0 0 0-.996-.083 2.27 2.27 0 0 0-1.412.976c.083.02.166.062.25.104a.885.885 0 0 1 .249.228c.103.187.166.373.166.581.041.436.124.892.249 1.307.124-.477.332-.913.601-1.328l.125-.124c.02-.021.062-.021.083-.021a.3.3 0 0 1 .145.041c.021 0 .021.021.021.021l.125.125.186.373c.104.29.187.644.187.644l.25 1.017c.082.352.207.705.352 1.037.394.913.996 1.162.996 1.162.29.146.623.25.955.25.311.02.643-.063.913-.187.311-.166.581-.374.81-.644.124-.186.248-.373.352-.58.25-.478.415-.976.56-1.495.084-.311.167-.643.208-.975.02-.166.042-.312.062-.478.021-.145.021-.311-.02-.456-.021-.021-.021-.042-.021-.083a.939.939 0 0 0-.394-.457 1.477 1.477 0 0 0-.436-.083Z"/><path fill="url(#brand_ciscoWebexCircle_clr__ag)" d="M10.615 4.748c-.063 0-.146.02-.208.02.166.25.311.499.415.769.042.124.083.249.083.373s-.02.229-.062.353a3.54 3.54 0 0 1-.187.29c-.083.084-.187.167-.29.187a.97.97 0 0 1-.353.063.889.889 0 0 1-.457-.125l-.083.353c-.062.27-.166.519-.29.768-.063.145-.146.29-.229.436a.61.61 0 0 1-.249.207c-.041 0-.083.021-.103.021a.295.295 0 0 1-.125-.042c-.062-.062-.124-.124-.166-.207s-.083-.166-.124-.27c-.083-.187-.208-.664-.208-.664l-.125-.498-.124-.498-.083-.332a3.74 3.74 0 0 0-.56-1.287 2.06 2.06 0 0 0-1.038-.789 2.301 2.301 0 0 0-.996-.083 2.27 2.27 0 0 0-1.412.976c.083.02.166.062.25.104a.885.885 0 0 1 .249.228c.103.187.166.373.166.581.041.436.124.892.249 1.307.124-.477.332-.913.601-1.328l.125-.124c.02-.021.062-.021.083-.021a.3.3 0 0 1 .145.041c.021 0 .021.021.021.021l.125.125.186.373c.104.29.187.644.187.644l.25 1.017c.082.352.207.705.352 1.037.394.913.996 1.162.996 1.162.29.146.623.25.955.25.311.02.643-.063.913-.187.311-.166.581-.374.81-.644.124-.186.248-.373.352-.58.25-.478.415-.976.56-1.495.084-.311.167-.643.208-.975.02-.166.042-.312.062-.478.021-.145.021-.311-.02-.456-.021-.021-.021-.042-.021-.083a.939.939 0 0 0-.394-.457 1.477 1.477 0 0 0-.436-.083Z"/><path fill="url(#brand_ciscoWebexCircle_clr__ah)" d="M10.615 4.748c-.063 0-.146.02-.208.02.166.25.311.499.415.769.042.124.083.249.083.373s-.02.229-.062.353a3.54 3.54 0 0 1-.187.29c-.083.084-.187.167-.29.187a.97.97 0 0 1-.353.063.889.889 0 0 1-.457-.125l-.083.353c-.062.27-.166.519-.29.768-.063.145-.146.29-.229.436a.61.61 0 0 1-.249.207c-.041 0-.083.021-.103.021a.295.295 0 0 1-.125-.042c-.062-.062-.124-.124-.166-.207s-.083-.166-.124-.27c-.083-.187-.208-.664-.208-.664l-.125-.498-.124-.498-.083-.332a3.74 3.74 0 0 0-.56-1.287 2.06 2.06 0 0 0-1.038-.789 2.301 2.301 0 0 0-.996-.083 2.27 2.27 0 0 0-1.412.976c.083.02.166.062.25.104a.885.885 0 0 1 .249.228c.103.187.166.373.166.581.041.436.124.892.249 1.307.124-.477.332-.913.601-1.328l.125-.124c.02-.021.062-.021.083-.021a.3.3 0 0 1 .145.041c.021 0 .021.021.021.021l.125.125.186.373c.104.29.187.644.187.644l.25 1.017c.082.352.207.705.352 1.037.394.913.996 1.162.996 1.162.29.146.623.25.955.25.311.02.643-.063.913-.187.311-.166.581-.374.81-.644.124-.186.248-.373.352-.58.25-.478.415-.976.56-1.495.084-.311.167-.643.208-.975.02-.166.042-.312.062-.478.021-.145.021-.311-.02-.456-.021-.021-.021-.042-.021-.083a.939.939 0 0 0-.394-.457 1.477 1.477 0 0 0-.436-.083Z"/><path fill="url(#brand_ciscoWebexCircle_clr__ai)" d="M10.615 4.748c-.063 0-.146.02-.208.02.166.25.311.499.415.769.042.124.083.249.083.373s-.02.229-.062.353a3.54 3.54 0 0 1-.187.29c-.083.084-.187.167-.29.187a.97.97 0 0 1-.353.063.889.889 0 0 1-.457-.125l-.083.353c-.062.27-.166.519-.29.768-.063.145-.146.29-.229.436a.61.61 0 0 1-.249.207c-.041 0-.083.021-.103.021a.295.295 0 0 1-.125-.042c-.062-.062-.124-.124-.166-.207s-.083-.166-.124-.27c-.083-.187-.208-.664-.208-.664l-.125-.498-.124-.498-.083-.332a3.74 3.74 0 0 0-.56-1.287 2.06 2.06 0 0 0-1.038-.789 2.301 2.301 0 0 0-.996-.083 2.27 2.27 0 0 0-1.412.976c.083.02.166.062.25.104a.885.885 0 0 1 .249.228c.103.187.166.373.166.581.041.436.124.892.249 1.307.124-.477.332-.913.601-1.328l.125-.124c.02-.021.062-.021.083-.021a.3.3 0 0 1 .145.041c.021 0 .021.021.021.021l.125.125.186.373c.104.29.187.644.187.644l.25 1.017c.082.352.207.705.352 1.037.394.913.996 1.162.996 1.162.29.146.623.25.955.25.311.02.643-.063.913-.187.311-.166.581-.374.81-.644.124-.186.248-.373.352-.58.25-.478.415-.976.56-1.495.084-.311.167-.643.208-.975.02-.166.042-.312.062-.478.021-.145.021-.311-.02-.456-.021-.021-.021-.042-.021-.083a.939.939 0 0 0-.394-.457 1.477 1.477 0 0 0-.436-.083Z"/><path fill="url(#brand_ciscoWebexCircle_clr__aj)" d="M10.615 4.748c-.063 0-.146.02-.208.02.166.25.311.499.415.769.042.124.083.249.083.373s-.02.229-.062.353a3.54 3.54 0 0 1-.187.29c-.083.084-.187.167-.29.187a.97.97 0 0 1-.353.063.889.889 0 0 1-.457-.125l-.083.353c-.062.27-.166.519-.29.768-.063.145-.146.29-.229.436a.61.61 0 0 1-.249.207c-.041 0-.083.021-.103.021a.295.295 0 0 1-.125-.042c-.062-.062-.124-.124-.166-.207s-.083-.166-.124-.27c-.083-.187-.208-.664-.208-.664l-.125-.498-.124-.498-.083-.332a3.74 3.74 0 0 0-.56-1.287 2.06 2.06 0 0 0-1.038-.789 2.301 2.301 0 0 0-.996-.083 2.27 2.27 0 0 0-1.412.976c.083.02.166.062.25.104a.885.885 0 0 1 .249.228c.103.187.166.373.166.581.041.436.124.892.249 1.307.124-.477.332-.913.601-1.328l.125-.124c.02-.021.062-.021.083-.021a.3.3 0 0 1 .145.041c.021 0 .021.021.021.021l.125.125.186.373c.104.29.187.644.187.644l.25 1.017c.082.352.207.705.352 1.037.394.913.996 1.162.996 1.162.29.146.623.25.955.25.311.02.643-.063.913-.187.311-.166.581-.374.81-.644.124-.186.248-.373.352-.58.25-.478.415-.976.56-1.495.084-.311.167-.643.208-.975.02-.166.042-.312.062-.478.021-.145.021-.311-.02-.456-.021-.021-.021-.042-.021-.083a.939.939 0 0 0-.394-.457 1.477 1.477 0 0 0-.436-.083Z"/></g></svg>