<svg data-tags="add file,slack" id="brand_slackAddFile__a" data-name="Layer 1" xmlns="http://www.w3.org/2000/svg" viewBox="0 0 14 14"><path d="m2.6344,5.87095c0,.3325.26959.6022.60215.6022s.60215-.2697.60215-.6022v-2.03225h2.0323c.33245,0,.60215-.26959.60215-.60215s-.2697-.60215-.60215-.60215h-2.0323V.60215c0-.33256-.26959-.60215-.60215-.60215s-.60215.26959-.60215.60215v2.03225H.60215c-.33256,0-.60215.26959-.60215.60215s.26959.60215.60215.60215h2.03225v2.03225Z"/><path d="m11.1398.75265h-4.51615v1.2043h4.51615c.91452,0,1.65595.74138,1.65595,1.65595v3.914h-3.91405c-.74821,0-1.3548.60653-1.3548,1.35474v3.91405h-3.1613c-.91457,0-1.65595-.74138-1.65595-1.6559v-3.7635h-1.2043v3.7635c0,1.57964,1.28056,2.8602,2.86025,2.8602h4.01286l5.62154-5.62154V3.6129c0-1.57969-1.28056-2.86025-2.8602-2.86025Zm-2.4086,11.19144v-3.06245c0-.0831.06734-.1505.1505-.1505h3.06239l-3.21289,3.21294Z"/></svg>