<svg data-tags="slack,pdf asset" id="brand_slackPdfAsset_clr__a" data-name="Layer 1" xmlns="http://www.w3.org/2000/svg" viewBox="0 0 14 14"><path fill="#bf214d" d="m8.19678,8.1015c-.08405.00922-.16833.01685-.25232.02686-.04938.00586-.09839.01465-.14752.02264-.02112.00342-.03943-.00055-.0545-.01648-.00342-.0036-.00757-.00641-.01135-.00964-.21313-.18292-.42145-.37091-.61432-.57544-.04437-.047-.0871-.09558-.13245-.14545.00708-.02124.01215-.03693.01752-.05255.07153-.20715.14069-.41504.19482-.62756.04309-.16913.08081-.33911.0874-.51459.00476-.12616-.0116-.24866-.05743-.36639-.06598-.16974-.17291-.30597-.33398-.3949-.13318-.07355-.27423-.09723-.42303-.05688-.11975.03247-.21521.1015-.29083.19879-.0578.07434-.09711.15826-.12439.24799-.05548.18207-.0697.36847-.05194.55707.01599.16968.06079.33264.12573.4903.0827.20093.19415.38519.32153.56036.00964.01331.01892.02692.02875.04102-.00598.01691-.01123.03253-.01703.04797-.09607.25305-.19855.50354-.30518.75226-.05426.12665-.11102.25226-.16559.37885-.01056.02448-.02448.04272-.0506.05029-.00635.00189-.01239.00476-.01849.00732-.21875.09216-.43536.18884-.64612.29822-.14453.07507-.28613.15497-.42102.2464-.09229.06256-.18073.13007-.26007.20862-.07245.07184-.13568.15057-.17609.24542-.04114.09644-.04974.19598-.02393.29742.01971.07727.06042.14343.11591.20044.06787.06976.14642.12567.23285.16907.18933.09503.38385.10864.58246.02948.08087-.03223.15381-.07794.22192-.13177.11713-.09253.21271-.20477.2984-.32605.11835-.16748.21448-.34766.29779-.53448.04926-.11066.09344-.22363.13733-.33655.01068-.02747.02576-.04388.05273-.05353.0484-.01733.09595-.03711.14417-.05505.23315-.08661.46515-.177.70648-.23914.13806-.03558.27692-.06799.41528-.10229.02795-.0069.05029-.00201.07269.01807.078.06976.15826.1369.23645.20648.05719.0509.11639.099.18164.13916.19208.11823.3988.17035.6236.13208.13611-.02313.25543-.08118.35168-.18256.07343-.07727.1189-.16864.12811-.27472.01459-.16742-.04645-.30585-.17175-.41608-.06598-.05804-.14441-.09381-.22772-.1192-.112-.03406-.22742-.04633-.34381-.04956-.08466-.00232-.16937-.00098-.25378.0083Zm-2.50433,1.24091c-.0896.18201-.18951.35748-.32739.50842-.04272.04669-.09027.08771-.14319.12262-.10022.06622-.20117.06897-.3028.00415-.02509-.01599-.04901-.03394-.07281-.05188-.00751-.00574-.01276-.01447-.01813-.02069.00208-.02197.01343-.03687.02502-.05042.02362-.02765.04749-.05554.07404-.08032.09387-.08759.20093-.15723.31036-.22321.13635-.08215.27777-.15497.42139-.22339.01117-.00531.02203-.0155.03967-.00769-.00208.00775-.00287.01569-.00616.0224Zm.76672-2.88928c-.0304-.15717-.02826-.31342.01489-.46814.00757-.02698.01855-.05316.02948-.07904.0058-.01361.01392-.02655.02283-.03839.03979-.05322.08331-.06329.14331-.03406.04779.02325.08319.05994.11072.10449.05261.08521.06714.17871.0603.27716-.01068.1532-.04767.30127-.08698.44879-.02258.0849-.04968.16858-.07507.25275-.00323.01068-.00836.02087-.01605.03955-.01007-.01398-.01544-.02014-.01941-.0271-.08441-.14972-.15125-.30627-.18402-.47601Zm.72363,1.82874c-.08948.02448-.17963.04681-.26819.07416-.09973.03076-.198.0661-.29694.09924-.01514.00507-.02954.01428-.0498.01117.00159-.00824.00177-.01459.00403-.02008.07776-.18835.1557-.37659.23462-.56732.00818.00433.01477.00604.01886.01025.12073.12335.24445.24371.37262.35938.00476.00427.00836.00983.01184.01398-.00342.01691-.01636.0163-.02704.01923Zm1.51099.29681c.01233.00427.02429.01099.03491.01868.02747.01971.0282.03931.00244.05994-.03198.02563-.06964.03802-.10968.04297-.06354.00775-.12573.00073-.18604-.02094-.0694-.02496-.13123-.06305-.18774-.11005-.00378-.00317-.00677-.00726-.00977-.01123-.00092-.0011-.00055-.00317-.00079-.00519.00507-.01392.01788-.01257.02887-.01282.05798-.00116.11603-.00171.17407-.00244.06158-.00067.12231.00751.18243.02008.02417.00513.04791.01282.07129.021Z"/><path fill="#bf214d" d="m12.02295,3.54785L8.9624.18848c-.07129-.07715-.17188-.12207-.27734-.12207H2.99463C2.37939.06641,1.87939.56641,1.87939,1.18066v11.63867c0,.61426.5,1.11426,1.11523,1.11426h8.01172c.61426,0,1.11426-.5,1.11426-1.11426V3.80078c0-.09375-.03516-.18359-.09766-.25293Zm-.65234,9.27148c0,.2041-.16016.36426-.36426.36426H2.99463c-.20508,0-.36523-.16016-.36523-.36426V1.18066c0-.19727.16699-.36426.36523-.36426h5.52441l2.85156,3.12988v8.87305Z"/></svg>