<svg data-tags="slack,excel asset" id="brand_slackExcelAsset_clr__a" data-name="Layer 1" xmlns="http://www.w3.org/2000/svg" viewBox="0 0 14 14"><path fill="#17826c" d="m7.92657,6.16699l-.72839,1.33057c-.04901.09601-.09607.19495-.14099.29669h-.00885c-.0235-.06262-.06659-.15765-.12921-.28497l-.68146-1.34229h-1.00458l1.24835,2.1001-1.36292,2.11194h.98694l.81067-1.48047c.03754-.05994.06805-.12396.09106-.19086h.01172c.02551.06824.05695.13416.09399.19684l.78717,1.47449h.98114l-1.31299-2.12366,1.2807-2.08838h-.92236Z"/><path fill="#17826c" d="m12.02295,3.54785L8.96143.18848c-.07129-.07715-.17188-.12207-.27734-.12207H2.99365C2.37939.06641,1.87939.56641,1.87939,1.18164v11.6377c0,.61426.5,1.11426,1.11426,1.11426h8.0127c.61426,0,1.11426-.5,1.11426-1.11426V3.80078c0-.09375-.03516-.18359-.09766-.25293Zm-.65234,9.27148c0,.2041-.16016.36426-.36426.36426H2.99365c-.2041,0-.36426-.16016-.36426-.36426V1.18164c0-.19824.16699-.36523.36426-.36523h5.52441l2.85254,3.12988v8.87305Z"/></svg>