<svg data-tags="slack,word asset" id="brand_slackWordAsset_clr__a" data-name="Layer 1" xmlns="http://www.w3.org/2000/svg" viewBox="0 0 14 14"><path fill="#17558f" d="m12.02295,3.54785L8.96191.18848c-.07129-.07715-.17188-.12207-.27734-.12207H2.99414C2.37939.06641,1.87939.56641,1.87939,1.18066v11.63867c0,.61426.5,1.11426,1.11475,1.11426h8.01172c.61475,0,1.11475-.5,1.11475-1.11426V3.80078c0-.09375-.03467-.18359-.09766-.25293Zm-.65234,9.27148c0,.2041-.16016.36426-.36475.36426H2.99414c-.20459,0-.36475-.16016-.36475-.36426V1.18066c0-.19727.16699-.36426.36475-.36426h5.5249l2.85156,3.12988v8.87305Z"/><polygon fill="#17558f" points="7.35486 6.40088 6.7287 6.40088 5.85199 9.23956 5.26758 6.31738 4.51611 6.31738 5.35107 10.49194 6.10248 10.49194 7.02087 7.61151 7.89752 10.49194 8.64899 10.49194 9.48389 6.31738 8.77417 6.31738 8.18982 9.23956 7.35486 6.40088"/></svg>