<svg data-tags="home,slack,house" id="brand_slackHome__a" data-name="Layer 1" xmlns="http://www.w3.org/2000/svg" viewBox="0 0 14 14"><defs/><path d="m13.81401,4.35109l-1.62012-.96973c-.00049-.00031-.0011-.00024-.00159-.00055l-2.98743-1.7981c-.00049-.00031-.00073-.00085-.00122-.00116l-1.90039-1.14062c-.18945-.11328-.42773-.11328-.61719,0l-1.89941,1.14062c-.00049.00031-.00073.00085-.00122.00116l-2.75806,1.65912c-.00079.00049-.00165.00037-.00244.00085L.18511,4.35207c-.28418.1709-.375.54004-.2041.82324.1123.1875.31055.29004.51465.29004.10547,0,.21191-.02734.30859-.08594l.93164-.56177v8.20825c0,.33105.26855.59961.59961.59961h9.5498c.33105,0,.59961-.26855.59961-.59961V4.95424l.71191.42615c.09668.05762.20312.08496.30762.08496.2041,0,.40332-.10352.51562-.29102.16992-.28516.07812-.65332-.20605-.82324Zm-3.31433,5.49359c0,.16779-.13599.30377-.30377.30377h-2.12964c-.16779,0-.30377-.13599-.30377-.30377v-2.12964c0-.16779.13599-.30377.30377-.30377h2.12964c.16779,0,.30377.13599.30377.30377v2.12964Z" /></svg>