<svg data-tags="slack,powerpoint asset" id="brand_slackPowepointAsset_clr__a" data-name="Layer 1" xmlns="http://www.w3.org/2000/svg" viewBox="0 0 14 14"><path fill="#ea9848" d="m7.20459,5.55859h-1.85669v4.6452h.91095v-1.70294h.88721c.32367.00677.64465-.06061.93835-.19696.25684-.11963.47363-.31091.62427-.5509.14801-.2171.22479-.47491.21973-.73767.02625-.40997-.13751-.80927-.44409-1.08276-.36884-.27222-.82233-.40472-1.27972-.37396Zm.53046,1.96912c-.19806.15112-.44458.22449-.69305.20624h-.78363v-1.45349h.81293c.59857,0,.89789.2569.89789.77063.01636.19-.07373.37347-.23413.47662Z"/><path fill="#ea9848" d="m12.02295,3.54785L8.9624.18848c-.07129-.07715-.17188-.12207-.27734-.12207H2.99463C2.37939.06641,1.87939.56641,1.87939,1.18066v11.63867c0,.61426.5,1.11426,1.11523,1.11426h8.01172c.61426,0,1.11426-.5,1.11426-1.11426V3.80078c0-.09375-.03516-.18359-.09766-.25293Zm-.65234,9.27148c0,.2041-.16016.36426-.36426.36426H2.99463c-.20508,0-.36523-.16016-.36523-.36426V1.18066c0-.19727.16699-.36426.36523-.36426h5.52441l2.85156,3.12988v8.87305Z"/></svg>