<svg data-tags="call,headphones,slack" id="brand_slackCall__a" data-name="Layer 1" xmlns="http://www.w3.org/2000/svg" viewBox="0 0 14 14"><path d="m7.00025-.00047C3.14014-.00047.00025,3.13942.00025,6.99953v3.61554C.00025,12.4811,1.51868,13.99953,3.38471,13.99953h.25323c.63934,0,1.15928-.51994,1.15928-1.15928v-4.44938c0-.6403-.51994-1.16025-1.15928-1.16025h-.25323c-.78377,0-1.53384.26768-2.13659.75777v-.98886C1.24812,3.82883,3.82859,1.24836,7.00025,1.24836c3.1707,0,5.75117,2.58047,5.75117,5.75117v.98886c-.60275-.4901-1.35282-.75777-2.13659-.75777h-.25227c-.6403,0-1.16025.51994-1.16025,1.16025v4.44938c0,.63934.51994,1.15928,1.16025,1.15928h.25227c1.86699,0,3.38542-1.51843,3.38542-3.38446v-3.61554C14.00025,3.13942,10.86036-.00047,7.00025-.00047Zm3.44993,12.58748v-3.94388c0-.09051.07414-.16465.16465-.16465,1.17758,0,2.13659.95901,2.13659,2.13659s-.95901,2.13659-2.13659,2.13659c-.09051,0-.16465-.07414-.16465-.16465Zm-6.90083,0c0,.09051-.07414.16465-.16465.16465-1.17758,0-2.13659-.95901-2.13659-2.13659s.95901-2.13659,2.13659-2.13659c.09051,0,.16465.07414.16465.16465v3.94388Z" /></svg>