<svg data-tags="message,chat,dm,slack" id="brand_slackDMs__a" data-name="Layer 1" xmlns="http://www.w3.org/2000/svg" viewBox="0 0 14 14"><path d="m4.08301,5.93262C1.88672,5.93262.09961,7.7207.09961,9.91699c0,.53613.10449,1.05566.31152,1.54395.05859.14355.07617.29004.0498.4248l-.27637,1.38281c-.02734.1377.00781.27734.0957.38477.08496.10449.20801.16602.40527.16602h.02734l1.40234-.28125c.04199-.00781.08398-.01074.12598-.01074.10059,0,.2002.02051.29785.0625.48926.20605,1.00879.31055,1.54395.31055,2.19629,0,3.98438-1.78711,3.98438-3.9834s-1.78809-3.98438-3.98438-3.98438Zm0,6.74121c-.37109,0-.73047-.07129-1.06836-.21387-.25098-.10547-.51172-.15918-.77441-.15918-.12012,0-.24219.01172-.36523.03516l-.2666.05566.05566-.26562c.09473-.47559-.01465-.88281-.12305-1.1416-.14258-.33691-.21484-.69629-.21484-1.06738,0-1.52051,1.23633-2.75684,2.75684-2.75684s2.75781,1.23633,2.75781,2.75684-1.2373,2.75684-2.75781,2.75684Z"/><path d="m13.41309,8.77441c.32324-.7666.4873-1.58105.4873-2.42188C13.90039,2.90527,11.09473.09961,7.64746.09961,4.66113.09961,2.08105,2.22461,1.51172,5.15234l-.0332.17383.16309-.06934c.33301-.1416.67871-.24902,1.02734-.31934l.05566-.01172.0166-.05469c.64551-2.14453,2.66309-3.64258,4.90625-3.64258,2.82617,0,5.125,2.29883,5.125,5.12402,0,.68945-.13379,1.35742-.39941,1.98535-.12988.31055-.26172.7998-.14941,1.36328l.30762,1.53418-1.53418-.30762c-.14551-.02832-.29102-.04297-.43262-.04297-.31445,0-.62793.06543-.92969.19238-.16504.06934-.33398.12988-.50684.18262l-.05371.0166-.01172.05566c-.07227.35547-.17969.70117-.31836,1.02734l-.07031.16309.1748-.03418c.41602-.08008.82812-.20508,1.22168-.37109.16406-.06934.33105-.10449.49512-.10449.07129,0,.14062.00684.21094.02148l2.18848.43652c.0459.00879.0918.01367.13672.01367.20215,0,.39355-.09082.52441-.24902.12891-.1582.18066-.36328.1416-.56445l-.4375-2.19043c-.0459-.22461-.0166-.46875.08301-.70605Z"/></svg>