<svg data-tags="screenshot,snapchat" id="brand_snapchatScreenshot__a" xmlns="http://www.w3.org/2000/svg" viewBox="0 0 14 14"><path d="m13.84232,6.48351c-.14613-.23386-.33128-.38975-.56515-.51643-2.63106-1.45194-5.27188-2.87468-7.90295-4.30711L3.09402.43212c-.1949-.10718-.39956-.20466-.62367-.20466-.1754,0-.35079.06822-.49699.20466-.46772.40926-.21435.88674-.05847,1.16937.15595.29233.33134.59441.49699.88674.25337.44827.50674.90624.75036,1.36427.77956,1.54936,1.03293,2.86493.77956,4.15122-.22411,1.18882-.73085,2.24125-1.43249,3.44958l-.10718.18515c-.21435.3703-.43852.75036-.60416,1.15961-.09742.22411-.0292.60416.14619.79907.10718.11693.29233.1754.55545.1754.05847,0,.11693,0,.1754-.00975.16564-.00975.31184-.09742.44822-.1754l1.22783-.68214c.65287-.3703,1.31556-.7406,1.97819-1.09139,2.28021-1.21808,4.56048-2.4264,6.85045-3.62504.46778-.24362.89655-.72109.80882-1.35446-.01951-.18515-.08773-.26312-.14619-.35085Z"/><path d="m11.65858,10.34634c-1.00098.53757-1.97399,1.06013-3.07352,1.65064,1.30892.61953,2.50409,1.21506,3.73013,1.73882.22817.09743.65092-.0113.85014-.18104.1318-.1123.12175-.5576.00793-.76025-.46519-.82813-.9947-1.62024-1.51468-2.44817Z"/><path d="m13.18447,1.17083c.10681-.18891.10424-.56645-.01917-.72231-.12552-.15857-.51662-.27463-.69785-.19558-1.25446.54702-2.48446,1.14983-3.84692,1.79361,1.08459.5847,2.04458,1.1023,3.01793,1.62705.5496-.87731,1.07725-1.67345,1.54601-2.50277Z"/><path d="m2.65125,5.06591c-.7536.36103-1.46214.66244-2.13277,1.03221-.70102.3865-.68805,1.47736.01994,1.86591.672.36874,1.37801.67589,2.15094,1.04976.47745-1.36626.52942-2.62805-.0381-3.94788Z"/></svg>