<svg data-tags="view,eye,overview" id="brand_snapchatView__a" xmlns="http://www.w3.org/2000/svg" viewBox="0 0 14 14"><path d="m13.65565,6.27448c-1.3028-2.42603-3.85132-3.96509-6.6485-3.94965-2.8009-.01587-5.35394,1.52271-6.66254,3.95001-.24823.46045-.24176,1.01172.00983,1.47034,1.83948,3.35382,5.95093,4.8493,9.56171,3.34479,1.5954-.66473,2.90802-1.85089,3.73175-3.35223.25024-.45612.25391-1.00488.00775-1.46326Zm-3.74139.7323c-.0047,1.78278-1.60889,3.1875-3.45056,2.85925-1.19543-.21307-2.16443-1.21338-2.34485-2.41418-.33612-2.23651,1.86945-4.08282,4.159-3.09424,1.02545.44281,1.63641,1.51691,1.63641,2.63385v.01532Z"/><path d="m7.01289,4.99915h-.00415c-1.10455-.00482-2.00391.88672-2.00873,1.99127s.88672,2.00391,1.99127,2.00873,2.00385-.88672,2.00867-1.99127v-.00018c.00592-1.10333-.88373-2.00256-1.98706-2.00854Z"/></svg>