<svg data-name="Layer 1" data-tags="twitter,ads" viewBox="0 0 14 14" xmlns="http://www.w3.org/2000/svg"><path d="M7.058 4.937L11.307 0H10.3L6.612 4.286 3.666 0H.27l4.454 6.482L.27 11.659h1.007L5.17 7.132l3.11 4.527h3.397L7.058 4.937zM5.68 6.539l-.451-.646L1.639.758h1.545l2.898 4.144.451.646 3.767 5.387H8.754L5.68 6.54zm4.827 5.835l-.619 1.596h.22l.18-.479h.668l.18.479h.23l-.62-1.596h-.239zm-.16.938l.27-.739h.01l.26.739h-.54zm3.353.189a.429.429 0 00-.09-.1 1.33 1.33 0 00-.12-.06l-.14-.03a2.896 2.896 0 00-.139-.03c-.04-.01-.08-.03-.12-.04a.402.402 0 01-.09-.05.14.14 0 01-.01-.159.206.206 0 01.06-.04c.02-.02.05-.02.08-.03h.09c.03-.002.06.002.09.01.03 0 .058.01.08.03.03.011.054.032.07.06a.471.471 0 01.03.09h.19a.475.475 0 00-.05-.18.344.344 0 00-.1-.11 1.184 1.184 0 00-.15-.06.97.97 0 00-.18-.01.387.387 0 00-.15.02.457.457 0 00-.14.05.265.265 0 00-.099.11.24.24 0 00-.04.15c-.002.06.016.12.05.17.04.041.087.075.14.1.061.022.125.038.19.05.06.02.119.03.179.049.05.008.099.028.14.06.04.02.05.06.05.11a.148.148 0 01-.02.09.18.18 0 01-.07.05l-.09.03h-.1a.446.446 0 01-.11-.01.418.418 0 01-.1-.04c-.03-.01-.05-.04-.07-.06a.202.202 0 01-.03-.11h-.189a.475.475 0 00.05.18c.026.048.064.09.11.12a.347.347 0 00.15.069.814.814 0 00.359 0 .44.44 0 00.16-.06.233.233 0 00.11-.11.31.31 0 00.05-.17.264.264 0 00-.03-.139zm-1.367-.529a.644.644 0 00-.08-.09.311.311 0 00-.1-.05.193.193 0 00-.1-.03.341.341 0 00-.1-.01.592.592 0 00-.229.05.342.342 0 00-.16.13.434.434 0 00-.099.19.587.587 0 00-.04.23.852.852 0 00.04.229.51.51 0 00.26.33.604.604 0 00.458.009.293.293 0 00.15-.14v.15h.19v-1.596h-.19v.598zm-.01.589a.351.351 0 01-.06.14.52.52 0 01-.11.1.429.429 0 01-.17.03.413.413 0 01-.159-.03.522.522 0 01-.11-.1.351.351 0 01-.06-.14.39.39 0 01-.02-.15.917.917 0 01.01-.17c.02-.05.04-.1.06-.14a.346.346 0 01.11-.099.293.293 0 01.16-.04c.06-.004.118.01.17.04.047.018.088.05.12.09a.59.59 0 01.059.469z"/></svg>
