<svg data-tags="files,surveys,template,copy,asset,boxes,multiple" id="solid_programs__a" xmlns="http://www.w3.org/2000/svg" viewBox="0 0 14 14"><path d="m10.5,12.72723H2.22729V4.45453c0-.35004-.28638-.63635-.63641-.63635-.34998,0-.63635.28632-.63635.63635v8.27271c0,.70001.57275,1.27277,1.27277,1.27277h8.27271c.34998,0,.63635-.28638.63635-.63641,0-.34998-.28638-.63635-.63635-.63635Z"/><path d="m12.66998,3.4491L9.60272.37543c-.24182-.24182-.56635-.37543-.90363-.37543h-3.92639c-.69995,0-1.26636.57269-1.26636,1.27271l-.00635,8.90912c0,.69995.56635,1.27271,1.26636,1.27271h7.00635c.70001,0,1.27277-.57275,1.27277-1.27271v-5.83551c0-.33722-.13367-.6618-.37549-.89722Zm-5.34802,6.53906c0,.10907-.08838.19745-.19739.19745h-2.15826c-.10901,0-.19739-.08838-.19739-.19745v-2.1582c0-.10901.08838-.19739.19739-.19739h2.15826c.10901,0,.19739.08838.19739.19739v2.1582Zm0-3.81439c0,.10907-.08838.19739-.19739.19739h-2.15826c-.10901,0-.19739-.08832-.19739-.19739v-2.1582c0-.10901.08838-.19739.19739-.19739h2.15826c.10901,0,.19739.08838.19739.19739v2.1582Zm3.81439,3.81439c0,.10907-.08838.19745-.19739.19745h-2.15826c-.10901,0-.19739-.08838-.19739-.19745v-2.1582c0-.10901.08838-.19739.19739-.19739h2.15826c.10901,0,.19739.08838.19739.19739v2.1582Z"/></svg>